# Mesh "Archer_Arrow" exported with Unity Assets Bundle Extractor; 14 vertices, 42 indices, 384 bits per vertex
g Archer_Arrow
# SubMesh 0
# Vertices
v -0.012914 0.012914 0.064250
vt 0.017514 0.981374
vn -0.706398 0.706403 0.044689
v 0.012914 0.012914 0.064250
vt 0.017514 0.981374
vn 0.706398 0.706403 0.044689
v -0.000000 0.000000 0.094603
vt 0.022522 0.988101
vn -0.000000 0.000000 1.000000
v 0.012914 0.012914 -0.079815
vt 0.017514 0.941424
vn 0.701493 0.701493 -0.125760
v -0.012914 0.012914 -0.079815
vt 0.017514 0.941424
vn -0.701493 0.701493 -0.125760
v 0.012914 -0.012914 -0.079815
vt 0.027530 0.941424
vn 0.701493 -0.701493 -0.125760
v -0.012914 -0.012914 -0.079815
vt 0.027530 0.941424
vn -0.701493 -0.701493 -0.125760
v 0.012914 -0.012914 0.064250
vt 0.027530 0.981374
vn 0.706398 -0.706403 0.044689
v -0.012914 -0.012914 0.064250
vt 0.027530 0.981374
vn -0.706398 -0.706403 0.044689
v -0.012914 0.012914 0.064250
vt 0.017514 0.981374
vn -0.706398 0.706403 0.044689
v -0.012914 -0.012914 0.064250
vt 0.027530 0.981374
vn -0.706398 -0.706403 0.044689
v -0.012914 -0.012914 -0.079815
vt 0.027530 0.941424
vn -0.701493 -0.701493 -0.125760
v -0.012914 0.012914 -0.079815
vt 0.017514 0.941424
vn -0.701493 0.701493 -0.125760
v -0.000000 0.000000 0.094603
vt 0.022522 0.988101
vn -0.000000 0.000000 1.000000
# Faces (1 to 14)
g Archer_Arrow_0
f -12/-12/-12 -13/-13/-13 -14/-14/-14
f -11/-11/-11 -14/-14/-14 -13/-13/-13
f -11/-11/-11 -10/-10/-10 -14/-14/-14
f -10/-10/-10 -11/-11/-11 -9/-9/-9
f -8/-8/-8 -10/-10/-10 -9/-9/-9
f -8/-8/-8 -9/-9/-9 -7/-7/-7
f -13/-13/-13 -7/-7/-7 -11/-11/-11
f -9/-9/-9 -11/-11/-11 -7/-7/-7
f -7/-7/-7 -13/-13/-13 -12/-12/-12
f -8/-8/-8 -7/-7/-7 -6/-6/-6
f -7/-7/-7 -12/-12/-12 -6/-6/-6
f -3/-3/-3 -4/-4/-4 -5/-5/-5
f -5/-5/-5 -2/-2/-2 -3/-3/-3
f -1/-1/-1 -5/-5/-5 -4/-4/-4

