# Mesh "Archer_Bow_Viking" exported with Unity Assets Bundle Extractor; 62 vertices, 240 indices, 384 bits per vertex
g Archer_Bow_Viking
# SubMesh 0
# Vertices
v 0.020056 -0.020056 0.066278
vt 0.113923 0.681960
vn 0.639345 -0.639350 0.427164
v -0.020056 -0.020056 0.066278
vt 0.113923 0.684831
vn -0.639346 -0.639350 0.427163
v -0.020056 0.020056 0.066278
vt 0.116794 0.684831
vn -0.639346 0.639350 0.427164
v 0.020056 0.020056 0.066278
vt 0.116794 0.681960
vn 0.639345 0.639350 0.427165
v -0.018995 0.018995 0.007074
vt 0.116794 0.687702
vn -0.641964 0.641968 -0.419236
v -0.018995 -0.018995 0.007074
vt 0.113923 0.687702
vn -0.641964 -0.641968 -0.419237
v 0.018995 0.018995 0.007074
vt 0.116794 0.690573
vn 0.641964 0.641968 -0.419235
v 0.018995 -0.018995 0.007074
vt 0.113923 0.690573
vn 0.641965 -0.641968 -0.419236
v 0.020056 0.020056 0.066278
vt 0.116794 0.693444
vn 0.639345 0.639350 0.427165
v 0.020056 -0.020056 0.066278
vt 0.113923 0.693444
vn 0.639345 -0.639350 0.427164
v -0.018995 0.018995 0.007074
vt 0.119665 0.684831
vn -0.641964 0.641968 -0.419236
v 0.018995 0.018995 0.007074
vt 0.119665 0.681960
vn 0.641964 0.641968 -0.419235
v 0.018995 -0.018995 0.007074
vt 0.111052 0.681960
vn 0.641965 -0.641968 -0.419236
v -0.018995 -0.018995 0.007074
vt 0.111052 0.684831
vn -0.641964 -0.641968 -0.419237
v -0.041178 0.014732 0.051614
vt 0.429495 0.875907
vn -0.150332 0.686740 0.711188
v -0.035274 0.015028 0.019018
vt 0.432251 0.875996
vn 0.093225 0.792046 -0.603301
v -0.000000 0.014875 0.018833
vt 0.432251 0.868040
vn -0.000000 0.763368 -0.645964
v -0.000000 0.014875 0.051525
vt 0.429495 0.868039
vn -0.000000 0.714802 0.699327
v -0.102461 0.013483 0.030600
vt 0.429495 0.893828
vn -0.348562 0.672795 0.652573
v -0.090894 0.013799 0.002989
vt 0.432251 0.895075
vn 0.238632 0.788464 -0.566903
v -0.133259 0.013243 -0.025349
vt 0.432252 0.933655
vn 0.414914 0.775272 -0.476235
v -0.151920 0.012884 -0.006434
vt 0.429495 0.934016
vn -0.542953 0.653025 0.527978
v -0.041178 -0.014732 0.051614
vt 0.426738 0.875904
vn -0.150323 -0.686768 0.711163
v -0.000000 -0.014875 0.051525
vt 0.426738 0.868039
vn -0.000000 -0.714802 0.699327
v -0.000000 -0.014875 0.018833
vt 0.423981 0.868039
vn -0.000000 -0.763368 -0.645964
v -0.035274 -0.015028 0.019018
vt 0.423981 0.875974
vn 0.093236 -0.792020 -0.603334
v -0.102459 -0.013486 0.030598
vt 0.426738 0.893879
vn -0.348191 -0.673578 0.651963
v -0.090892 -0.013796 0.002986
vt 0.423981 0.895257
vn 0.238942 -0.788067 -0.567324
v -0.133263 -0.013183 -0.025437
vt 0.423981 0.933827
vn 0.416893 -0.773187 -0.477894
v -0.151929 -0.012942 -0.006523
vt 0.426738 0.934097
vn -0.541954 -0.655147 0.526373
v -0.035274 0.015028 0.019018
vt 0.421223 0.875956
vn 0.093225 0.792046 -0.603301
v -0.000000 0.014875 0.018833
vt 0.421223 0.868039
vn -0.000000 0.763368 -0.645964
v -0.090894 0.013799 0.002989
vt 0.421223 0.895327
vn 0.238632 0.788464 -0.566903
v -0.133259 0.013243 -0.025349
vt 0.421224 0.933814
vn 0.414914 0.775272 -0.476235
v -0.166263 0.011868 -0.066277
vt 0.425819 0.979696
vn 0.343384 0.698369 -0.627987
v -0.185751 0.011815 -0.053998
vt 0.428116 0.983359
vn -0.741070 0.646551 0.181069
v -0.166259 -0.011864 -0.066279
vt 0.423982 0.974465
vn 0.344678 -0.696724 -0.629104
v -0.185747 -0.011820 -0.054000
vt 0.426738 0.975727
vn -0.740579 -0.647290 0.180436
v 0.041178 0.014732 0.051614
vt 0.429495 0.790078
vn 0.150332 0.686740 0.711188
v -0.000000 0.014875 0.051525
vt 0.429495 0.797526
vn -0.000000 0.714802 0.699327
v -0.000000 0.014875 0.018833
vt 0.432251 0.797526
vn -0.000000 0.763368 -0.645964
v 0.035274 0.015028 0.019018
vt 0.432252 0.789989
vn -0.093222 0.792046 -0.603301
v 0.102461 0.013483 0.030600
vt 0.429496 0.767959
vn 0.348559 0.672795 0.652574
v 0.090894 0.013799 0.002989
vt 0.432252 0.766713
vn -0.238632 0.788463 -0.566905
v 0.133259 0.013243 -0.025349
vt 0.432250 0.733589
vn -0.414921 0.775268 -0.476235
v 0.151920 0.012884 -0.006434
vt 0.429494 0.733229
vn 0.542948 0.653028 0.527979
v 0.041178 -0.014732 0.051614
vt 0.426738 0.790081
vn 0.150323 -0.686768 0.711163
v -0.000000 -0.014875 0.051525
vt 0.426738 0.797526
vn -0.000000 -0.714802 0.699327
v -0.000000 -0.014875 0.018833
vt 0.423981 0.797526
vn -0.000000 -0.763368 -0.645964
v 0.035274 -0.015028 0.019018
vt 0.423981 0.790010
vn -0.093233 -0.792020 -0.603334
v 0.102459 -0.013486 0.030598
vt 0.426738 0.767909
vn 0.348188 -0.673578 0.651964
v 0.090892 -0.013796 0.002986
vt 0.423980 0.766531
vn -0.238941 -0.788067 -0.567325
v 0.133263 -0.013183 -0.025437
vt 0.423980 0.733418
vn -0.416899 -0.773184 -0.477894
v 0.151929 -0.012942 -0.006523
vt 0.426738 0.733147
vn 0.541951 -0.655147 0.526376
v 0.035274 0.015028 0.019018
vt 0.421224 0.790029
vn -0.093222 0.792046 -0.603301
v -0.000000 0.014875 0.018833
vt 0.421223 0.797526
vn -0.000000 0.763368 -0.645964
v 0.090894 0.013799 0.002989
vt 0.421223 0.766460
vn -0.238632 0.788463 -0.566905
v 0.133259 0.013243 -0.025349
vt 0.421225 0.733430
vn -0.414921 0.775268 -0.476235
v 0.166263 0.011868 -0.066277
vt 0.425818 0.687548
vn -0.343384 0.698370 -0.627986
v 0.185751 0.011815 -0.053998
vt 0.428117 0.683885
vn 0.741072 0.646551 0.181067
v 0.166259 -0.011864 -0.066279
vt 0.423980 0.692779
vn -0.344676 -0.696725 -0.629104
v 0.185747 -0.011820 -0.054000
vt 0.426738 0.691517
vn 0.740582 -0.647289 0.180434
# Faces (1 to 62)
g Archer_Bow_Viking_0
f -60/-60/-60 -61/-61/-61 -62/-62/-62
f -59/-59/-59 -60/-60/-60 -62/-62/-62
f -60/-60/-60 -58/-58/-58 -61/-61/-61
f -58/-58/-58 -57/-57/-57 -61/-61/-61
f -58/-58/-58 -56/-56/-56 -57/-57/-57
f -56/-56/-56 -55/-55/-55 -57/-57/-57
f -56/-56/-56 -54/-54/-54 -55/-55/-55
f -54/-54/-54 -53/-53/-53 -55/-55/-55
f -52/-52/-52 -60/-60/-60 -59/-59/-59
f -51/-51/-51 -52/-52/-52 -59/-59/-59
f -62/-62/-62 -61/-61/-61 -50/-50/-50
f -61/-61/-61 -49/-49/-49 -50/-50/-50
f -46/-46/-46 -47/-47/-47 -48/-48/-48
f -45/-45/-45 -46/-46/-46 -48/-48/-48
f -48/-48/-48 -47/-47/-47 -44/-44/-44
f -47/-47/-47 -43/-43/-43 -44/-44/-44
f -43/-43/-43 -42/-42/-42 -44/-44/-44
f -42/-42/-42 -41/-41/-41 -44/-44/-44
f -45/-45/-45 -48/-48/-48 -40/-40/-40
f -39/-39/-39 -45/-45/-45 -40/-40/-40
f -38/-38/-38 -39/-39/-39 -40/-40/-40
f -37/-37/-37 -38/-38/-38 -40/-40/-40
f -37/-37/-37 -40/-40/-40 -36/-36/-36
f -48/-48/-48 -44/-44/-44 -36/-36/-36
f -40/-40/-40 -48/-48/-48 -36/-36/-36
f -35/-35/-35 -37/-37/-37 -36/-36/-36
f -34/-34/-34 -35/-35/-35 -36/-36/-36
f -33/-33/-33 -34/-34/-34 -36/-36/-36
f -44/-44/-44 -41/-41/-41 -33/-33/-33
f -36/-36/-36 -44/-44/-44 -33/-33/-33
f -37/-37/-37 -32/-32/-32 -38/-38/-38
f -32/-32/-32 -31/-31/-31 -38/-38/-38
f -30/-30/-30 -32/-32/-32 -37/-37/-37
f -35/-35/-35 -30/-30/-30 -37/-37/-37
f -29/-29/-29 -30/-30/-30 -35/-35/-35
f -34/-34/-34 -29/-29/-29 -35/-35/-35
f -42/-42/-42 -28/-28/-28 -41/-41/-41
f -28/-28/-28 -27/-27/-27 -41/-41/-41
f -27/-27/-27 -28/-28/-28 -26/-26/-26
f -26/-26/-26 -28/-28/-28 -29/-29/-29
f -34/-34/-34 -26/-26/-26 -29/-29/-29
f -25/-25/-25 -27/-27/-27 -26/-26/-26
f -25/-25/-25 -26/-26/-26 -34/-34/-34
f -33/-33/-33 -25/-25/-25 -34/-34/-34
f -41/-41/-41 -27/-27/-27 -25/-25/-25
f -33/-33/-33 -41/-41/-41 -25/-25/-25
f -22/-22/-22 -23/-23/-23 -24/-24/-24
f -21/-21/-21 -22/-22/-22 -24/-24/-24
f -21/-21/-21 -24/-24/-24 -20/-20/-20
f -19/-19/-19 -21/-21/-21 -20/-20/-20
f -18/-18/-18 -19/-19/-19 -20/-20/-20
f -17/-17/-17 -18/-18/-18 -20/-20/-20
f -24/-24/-24 -23/-23/-23 -16/-16/-16
f -23/-23/-23 -15/-15/-15 -16/-16/-16
f -15/-15/-15 -14/-14/-14 -16/-16/-16
f -14/-14/-14 -13/-13/-13 -16/-16/-16
f -16/-16/-16 -13/-13/-13 -12/-12/-12
f -24/-24/-24 -16/-16/-16 -12/-12/-12
f -20/-20/-20 -24/-24/-24 -12/-12/-12
f -13/-13/-13 -11/-11/-11 -12/-12/-12
f -11/-11/-11 -10/-10/-10 -12/-12/-12
f -10/-10/-10 -9/-9/-9 -12/-12/-12
f -20/-20/-20 -12/-12/-12 -9/-9/-9
f -17/-17/-17 -20/-20/-20 -9/-9/-9
f -8/-8/-8 -13/-13/-13 -14/-14/-14
f -7/-7/-7 -8/-8/-8 -14/-14/-14
f -6/-6/-6 -11/-11/-11 -13/-13/-13
f -8/-8/-8 -6/-6/-6 -13/-13/-13
f -5/-5/-5 -10/-10/-10 -11/-11/-11
f -6/-6/-6 -5/-5/-5 -11/-11/-11
f -4/-4/-4 -18/-18/-18 -17/-17/-17
f -3/-3/-3 -4/-4/-4 -17/-17/-17
f -4/-4/-4 -3/-3/-3 -2/-2/-2
f -2/-2/-2 -10/-10/-10 -5/-5/-5
f -4/-4/-4 -2/-2/-2 -5/-5/-5
f -3/-3/-3 -1/-1/-1 -2/-2/-2
f -1/-1/-1 -9/-9/-9 -10/-10/-10
f -2/-2/-2 -1/-1/-1 -10/-10/-10
f -17/-17/-17 -9/-9/-9 -1/-1/-1
f -3/-3/-3 -17/-17/-17 -1/-1/-1

