# Mesh "Archer_Bow_Short_2" exported with Unity Assets Bundle Extractor; 57 vertices, 240 indices, 384 bits per vertex
g Archer_Bow_Short_2
# SubMesh 0
# Vertices
v -0.041178 0.014732 0.051863
vt 0.430653 0.856180
vn -0.150332 0.686740 0.711188
v -0.035274 0.015028 0.019267
vt 0.433409 0.856269
vn 0.093222 0.792046 -0.603301
v -0.000000 0.014875 0.019082
vt 0.433409 0.833622
vn -0.000000 0.763368 -0.645964
v -0.000000 0.014875 0.051774
vt 0.430653 0.833622
vn -0.000000 0.714802 0.699327
v -0.102461 0.013483 0.030850
vt 0.430653 0.893828
vn -0.348559 0.672795 0.652574
v -0.090894 0.013799 0.003238
vt 0.433409 0.895075
vn 0.238632 0.788464 -0.566903
v -0.133259 0.013243 -0.025100
vt 0.433410 0.933655
vn 0.414917 0.775271 -0.476234
v -0.151920 0.012884 -0.006184
vt 0.430653 0.934016
vn -0.542950 0.653026 0.527979
v -0.041178 -0.014732 0.051863
vt 0.427896 0.856177
vn -0.150324 -0.686768 0.711163
v -0.000000 -0.014875 0.051774
vt 0.427896 0.833622
vn -0.000000 -0.714802 0.699327
v -0.000000 -0.014875 0.019082
vt 0.425138 0.833622
vn -0.000000 -0.763368 -0.645964
v -0.035274 -0.015028 0.019267
vt 0.425138 0.856247
vn 0.093233 -0.792020 -0.603334
v -0.102459 -0.013486 0.030847
vt 0.427896 0.893879
vn -0.348188 -0.673578 0.651964
v -0.090892 -0.013796 0.003235
vt 0.425138 0.895257
vn 0.238942 -0.788067 -0.567324
v -0.133263 -0.013183 -0.025188
vt 0.425139 0.933827
vn 0.416896 -0.773185 -0.477893
v -0.151929 -0.012942 -0.006274
vt 0.427896 0.934097
vn -0.541951 -0.655148 0.526374
v -0.035274 0.015028 0.019267
vt 0.422381 0.856229
vn 0.093222 0.792046 -0.603301
v -0.000000 0.014875 0.019082
vt 0.422381 0.833622
vn -0.000000 0.763368 -0.645964
v -0.090894 0.013799 0.003238
vt 0.422381 0.895327
vn 0.238632 0.788464 -0.566903
v -0.133259 0.013243 -0.025100
vt 0.422382 0.933814
vn 0.414917 0.775271 -0.476234
v -0.166263 0.011868 -0.066027
vt 0.426977 0.979696
vn 0.343383 0.698369 -0.627988
v -0.185751 0.011815 -0.053748
vt 0.429274 0.983359
vn -0.741070 0.646552 0.181067
v -0.166259 -0.011864 -0.066029
vt 0.425139 0.974465
vn 0.344677 -0.696724 -0.629105
v -0.185747 -0.011820 -0.053751
vt 0.427896 0.975727
vn -0.740579 -0.647291 0.180435
v 0.041178 -0.014732 0.051863
vt 0.427896 0.811067
vn 0.150326 -0.686768 0.711162
v 0.041178 0.014732 0.051863
vt 0.430653 0.811064
vn 0.150335 0.686739 0.711188
v 0.035274 0.015028 0.019267
vt 0.433410 0.810976
vn -0.093221 0.792047 -0.603301
v 0.102461 0.013483 0.030850
vt 0.430654 0.773415
vn 0.348566 0.672793 0.652573
v 0.090894 0.013799 0.003238
vt 0.433410 0.772170
vn -0.238633 0.788463 -0.566905
v 0.133259 0.013243 -0.025100
vt 0.433408 0.733589
vn -0.414920 0.775269 -0.476235
v 0.151920 0.012884 -0.006184
vt 0.430652 0.733229
vn 0.542948 0.653027 0.527980
v 0.102459 -0.013486 0.030847
vt 0.427896 0.773365
vn 0.348196 -0.673576 0.651963
v 0.035274 -0.015028 0.019267
vt 0.425138 0.810997
vn -0.093232 -0.792020 -0.603334
v 0.090892 -0.013796 0.003235
vt 0.425137 0.771987
vn -0.238942 -0.788067 -0.567325
v 0.133263 -0.013183 -0.025188
vt 0.425137 0.733418
vn -0.416898 -0.773184 -0.477893
v 0.151929 -0.012942 -0.006274
vt 0.427896 0.733147
vn 0.541952 -0.655145 0.526377
v 0.035274 0.015028 0.019267
vt 0.422382 0.811015
vn -0.093221 0.792047 -0.603301
v 0.090894 0.013799 0.003238
vt 0.422381 0.771916
vn -0.238633 0.788463 -0.566905
v 0.133259 0.013243 -0.025100
vt 0.422383 0.733430
vn -0.414920 0.775269 -0.476235
v 0.166263 0.011868 -0.066027
vt 0.426976 0.687548
vn -0.343385 0.698369 -0.627986
v 0.185751 0.011815 -0.053748
vt 0.429275 0.683885
vn 0.741066 0.646557 0.181070
v 0.166259 -0.011864 -0.066029
vt 0.425137 0.692779
vn -0.344677 -0.696725 -0.629104
v 0.185747 -0.011820 -0.053751
vt 0.427896 0.691517
vn 0.740576 -0.647294 0.180436
v 0.020056 -0.020056 0.066029
vt 0.114847 0.972905
vn 0.639345 -0.639350 0.427164
v -0.020056 -0.020056 0.066029
vt 0.114847 0.975776
vn -0.639346 -0.639350 0.427164
v -0.020056 0.020056 0.066029
vt 0.117718 0.975776
vn -0.639346 0.639350 0.427164
v 0.020056 0.020056 0.066029
vt 0.117718 0.972905
vn 0.639345 0.639350 0.427165
v -0.018995 0.018995 0.006825
vt 0.117718 0.978647
vn -0.641964 0.641968 -0.419236
v -0.018995 -0.018995 0.006825
vt 0.114847 0.978647
vn -0.641964 -0.641968 -0.419237
v 0.018995 0.018995 0.006825
vt 0.117718 0.981518
vn 0.641964 0.641968 -0.419235
v 0.018995 -0.018995 0.006825
vt 0.114847 0.981518
vn 0.641965 -0.641968 -0.419236
v 0.020056 0.020056 0.066029
vt 0.117718 0.984389
vn 0.639345 0.639350 0.427165
v 0.020056 -0.020056 0.066029
vt 0.114847 0.984389
vn 0.639345 -0.639350 0.427164
v -0.018995 0.018995 0.006825
vt 0.120589 0.975776
vn -0.641964 0.641968 -0.419236
v 0.018995 0.018995 0.006825
vt 0.120589 0.972905
vn 0.641964 0.641968 -0.419235
v 0.018995 -0.018995 0.006825
vt 0.111976 0.972905
vn 0.641965 -0.641968 -0.419236
v -0.018995 -0.018995 0.006825
vt 0.111976 0.975776
vn -0.641964 -0.641968 -0.419237
# Faces (1 to 57)
g Archer_Bow_Short_2_0
f -55/-55/-55 -56/-56/-56 -57/-57/-57
f -54/-54/-54 -55/-55/-55 -57/-57/-57
f -57/-57/-57 -56/-56/-56 -53/-53/-53
f -56/-56/-56 -52/-52/-52 -53/-53/-53
f -52/-52/-52 -51/-51/-51 -53/-53/-53
f -51/-51/-51 -50/-50/-50 -53/-53/-53
f -54/-54/-54 -57/-57/-57 -49/-49/-49
f -48/-48/-48 -54/-54/-54 -49/-49/-49
f -47/-47/-47 -48/-48/-48 -49/-49/-49
f -46/-46/-46 -47/-47/-47 -49/-49/-49
f -46/-46/-46 -49/-49/-49 -45/-45/-45
f -57/-57/-57 -53/-53/-53 -45/-45/-45
f -49/-49/-49 -57/-57/-57 -45/-45/-45
f -44/-44/-44 -46/-46/-46 -45/-45/-45
f -43/-43/-43 -44/-44/-44 -45/-45/-45
f -42/-42/-42 -43/-43/-43 -45/-45/-45
f -53/-53/-53 -50/-50/-50 -42/-42/-42
f -45/-45/-45 -53/-53/-53 -42/-42/-42
f -46/-46/-46 -41/-41/-41 -47/-47/-47
f -41/-41/-41 -40/-40/-40 -47/-47/-47
f -39/-39/-39 -41/-41/-41 -46/-46/-46
f -44/-44/-44 -39/-39/-39 -46/-46/-46
f -38/-38/-38 -39/-39/-39 -44/-44/-44
f -43/-43/-43 -38/-38/-38 -44/-44/-44
f -51/-51/-51 -37/-37/-37 -50/-50/-50
f -37/-37/-37 -36/-36/-36 -50/-50/-50
f -36/-36/-36 -37/-37/-37 -35/-35/-35
f -35/-35/-35 -37/-37/-37 -38/-38/-38
f -43/-43/-43 -35/-35/-35 -38/-38/-38
f -34/-34/-34 -36/-36/-36 -35/-35/-35
f -34/-34/-34 -35/-35/-35 -43/-43/-43
f -42/-42/-42 -34/-34/-34 -43/-43/-43
f -50/-50/-50 -36/-36/-36 -34/-34/-34
f -42/-42/-42 -50/-50/-50 -34/-34/-34
f -48/-48/-48 -47/-47/-47 -33/-33/-33
f -54/-54/-54 -48/-48/-48 -33/-33/-33
f -32/-32/-32 -54/-54/-54 -33/-33/-33
f -55/-55/-55 -54/-54/-54 -32/-32/-32
f -31/-31/-31 -55/-55/-55 -32/-32/-32
f -31/-31/-31 -32/-32/-32 -30/-30/-30
f -29/-29/-29 -31/-31/-31 -30/-30/-30
f -28/-28/-28 -29/-29/-29 -30/-30/-30
f -27/-27/-27 -28/-28/-28 -30/-30/-30
f -32/-32/-32 -33/-33/-33 -26/-26/-26
f -30/-30/-30 -32/-32/-32 -26/-26/-26
f -33/-33/-33 -25/-25/-25 -26/-26/-26
f -47/-47/-47 -25/-25/-25 -33/-33/-33
f -25/-25/-25 -24/-24/-24 -26/-26/-26
f -24/-24/-24 -23/-23/-23 -26/-26/-26
f -23/-23/-23 -22/-22/-22 -26/-26/-26
f -30/-30/-30 -26/-26/-26 -22/-22/-22
f -27/-27/-27 -30/-30/-30 -22/-22/-22
f -21/-21/-21 -25/-25/-25 -47/-47/-47
f -40/-40/-40 -21/-21/-21 -47/-47/-47
f -20/-20/-20 -24/-24/-24 -25/-25/-25
f -21/-21/-21 -20/-20/-20 -25/-25/-25
f -19/-19/-19 -23/-23/-23 -24/-24/-24
f -20/-20/-20 -19/-19/-19 -24/-24/-24
f -18/-18/-18 -28/-28/-28 -27/-27/-27
f -17/-17/-17 -18/-18/-18 -27/-27/-27
f -18/-18/-18 -17/-17/-17 -16/-16/-16
f -16/-16/-16 -23/-23/-23 -19/-19/-19
f -18/-18/-18 -16/-16/-16 -19/-19/-19
f -17/-17/-17 -15/-15/-15 -16/-16/-16
f -27/-27/-27 -22/-22/-22 -15/-15/-15
f -17/-17/-17 -27/-27/-27 -15/-15/-15
f -15/-15/-15 -22/-22/-22 -23/-23/-23
f -16/-16/-16 -15/-15/-15 -23/-23/-23
f -12/-12/-12 -13/-13/-13 -14/-14/-14
f -11/-11/-11 -12/-12/-12 -14/-14/-14
f -12/-12/-12 -10/-10/-10 -13/-13/-13
f -10/-10/-10 -9/-9/-9 -13/-13/-13
f -10/-10/-10 -8/-8/-8 -9/-9/-9
f -8/-8/-8 -7/-7/-7 -9/-9/-9
f -8/-8/-8 -6/-6/-6 -7/-7/-7
f -6/-6/-6 -5/-5/-5 -7/-7/-7
f -4/-4/-4 -12/-12/-12 -11/-11/-11
f -3/-3/-3 -4/-4/-4 -11/-11/-11
f -14/-14/-14 -13/-13/-13 -2/-2/-2
f -13/-13/-13 -1/-1/-1 -2/-2/-2

