# Mesh "Corpse_2" exported with Unity Assets Bundle Extractor; 67 vertices, 210 indices, 384 bits per vertex
g Corpse_2
# SubMesh 0
# Vertices
v -0.031923 0.000000 -0.224924
vt 0.529551 0.663234
vn -0.289097 -0.141200 -0.946829
v 0.020013 0.000000 -0.203199
vt 0.489014 0.628705
vn 0.770886 -0.181840 -0.610466
v 0.000921 0.041492 -0.183956
vt 0.502877 0.616866
vn 0.427224 0.805171 -0.411314
v 0.049883 0.000000 -0.150532
vt 0.477268 0.572653
vn 0.916984 -0.252848 -0.308559
v 0.018642 0.041492 -0.139745
vt 0.497533 0.571930
vn 0.425045 0.867764 -0.257530
v -0.028346 0.041492 -0.173428
vt 0.551445 0.615807
vn -0.614443 0.788865 -0.012282
v -0.054432 0.000000 -0.182421
vt 0.562070 0.631422
vn -0.982492 -0.183400 0.032783
v -0.015055 0.041492 -0.128111
vt 0.553219 0.571151
vn -0.424908 0.900634 -0.091167
v -0.039869 0.000000 -0.119543
vt 0.567055 0.570578
vn -0.955932 -0.242056 -0.166138
v -0.029762 0.058781 -0.025867
vt 0.543471 0.482457
vn -0.323456 0.937134 -0.130977
v -0.089487 0.000000 -0.093702
vt 0.570433 0.446168
vn -0.852635 -0.123191 -0.507778
v -0.070545 0.000000 -0.029034
vt 0.570363 0.433656
vn -0.978472 -0.164789 -0.124243
v 0.037480 0.058781 -0.056490
vt 0.520211 0.477692
vn 0.352683 0.935209 -0.031596
v -0.084798 0.000000 0.035931
vt 0.581920 0.323590
vn -0.976094 0.204544 -0.073500
v -0.054943 0.058768 0.024025
vt 0.580593 0.323971
vn -0.517347 0.853512 0.062199
v 0.022179 0.058768 0.033208
vt 0.577669 0.318518
vn 0.299090 0.923146 0.241551
v 0.067489 0.000000 -0.026073
vt 0.508982 0.438869
vn 0.895689 0.006011 0.444640
v 0.062684 0.000000 0.012463
vt 0.575811 0.319775
vn 0.942320 0.089283 -0.322585
v -0.080066 0.000000 0.092673
vt 0.582448 0.314201
vn -0.977217 0.112271 0.180118
v -0.058844 0.027482 0.125927
vt 0.582031 0.307749
vn -0.339186 0.876039 0.342795
v -0.018398 0.000000 0.074216
vt 0.579785 0.313999
vn 0.511893 0.108399 0.852183
v -0.058505 0.000000 0.143021
vt 0.582233 0.304976
vn -0.278043 -0.685958 0.672424
v -0.029653 0.000000 0.127278
vt 0.580897 0.306027
vn 0.725136 -0.473073 0.500380
v 0.049393 0.000000 0.076663
vt 0.577144 0.310113
vn -0.243311 0.154078 0.957632
v 0.086652 0.030431 0.063415
vt 0.575508 0.310329
vn 0.453375 0.877010 -0.159071
v 0.105079 0.000000 0.034253
vt 0.574415 0.314080
vn 0.804765 0.017091 -0.593347
v 0.106930 0.000000 0.083961
vt 0.574968 0.305973
vn 0.701372 -0.595074 0.392384
v 0.072074 0.000000 0.097949
vt 0.576518 0.305514
vn 0.018124 -0.454560 0.890532
v 0.062646 0.000000 -0.109419
vt 0.475413 0.511157
vn 0.698975 -0.247576 -0.670925
v 0.113619 0.026004 -0.087585
vt 0.511158 0.430186
vn 0.389256 0.920763 0.025976
v 0.126324 0.000000 -0.115112
vt 0.488179 0.447340
vn 0.250233 -0.360868 -0.898420
v 0.144015 0.000000 -0.082315
vt 0.488265 0.412094
vn 0.804075 -0.295396 0.515951
v 0.144015 0.000000 -0.082315
vt 0.488265 0.412094
vn 0.804075 -0.295396 0.515951
v 0.067489 0.000000 -0.026073
vt 0.508982 0.438869
vn 0.895689 0.006011 0.444640
v 0.037480 0.058781 -0.056490
vt 0.520211 0.477692
vn 0.352683 0.935209 -0.031596
v 0.113619 0.026004 -0.087585
vt 0.511158 0.430186
vn 0.389256 0.920763 0.025976
v -0.031923 0.000000 -0.224924
vt 0.529551 0.663234
vn -0.289097 -0.141200 -0.946829
v -0.013713 -0.041492 -0.178693
vt 0.526456 0.616337
vn -0.080433 -0.980329 -0.180237
v 0.020013 0.000000 -0.203199
vt 0.489014 0.628705
vn 0.770886 -0.181840 -0.610466
v 0.049883 0.000000 -0.150532
vt 0.477268 0.572653
vn 0.916984 -0.252848 -0.308559
v 0.001794 -0.041492 -0.133928
vt 0.525376 0.571542
vn 0.123907 -0.989976 -0.067789
v -0.054432 0.000000 -0.182421
vt 0.562070 0.631422
vn -0.982492 -0.183400 0.032783
v -0.039869 0.000000 -0.119543
vt 0.567055 0.570578
vn -0.955932 -0.242056 -0.166138
v 0.003589 -0.044121 -0.033884
vt 0.559882 0.480075
vn 0.106666 -0.987967 -0.111996
v -0.089487 0.000000 -0.093702
vt 0.570433 0.446168
vn -0.852635 -0.123191 -0.507778
v -0.070545 0.000000 -0.029034
vt 0.570363 0.433656
vn -0.978472 -0.164789 -0.124243
v 0.062646 0.000000 -0.109419
vt 0.475413 0.511157
vn 0.698975 -0.247576 -0.670925
v 0.126324 0.000000 -0.115112
vt 0.488179 0.447340
vn 0.250233 -0.360868 -0.898420
v 0.144015 0.000000 -0.082315
vt 0.488265 0.412094
vn 0.804075 -0.295396 0.515951
v -0.052202 -0.044108 0.036838
vt 0.580647 0.321765
vn -0.349389 -0.933035 0.085870
v -0.084798 0.000000 0.035931
vt 0.581920 0.323590
vn -0.976094 0.204544 -0.073500
v 0.031688 -0.044108 0.035780
vt 0.577327 0.317614
vn 0.321592 -0.930805 0.173724
v 0.067489 0.000000 -0.026073
vt 0.508982 0.438869
vn 0.895689 0.006011 0.444640
v 0.062684 0.000000 0.012463
vt 0.575811 0.319775
vn 0.942320 0.089283 -0.322585
v 0.105079 0.000000 0.034253
vt 0.574415 0.314080
vn 0.804765 0.017091 -0.593347
v 0.106930 0.000000 0.083961
vt 0.574968 0.305973
vn 0.701372 -0.595074 0.392384
v 0.072074 0.000000 0.097949
vt 0.576518 0.305514
vn 0.018124 -0.454560 0.890532
v 0.049393 0.000000 0.076663
vt 0.577144 0.310113
vn -0.243311 0.154078 0.957632
v -0.018398 0.000000 0.074216
vt 0.579785 0.313999
vn 0.511893 0.108399 0.852183
v -0.052202 -0.044108 0.036838
vt 0.580647 0.321765
vn -0.349389 -0.933035 0.085870
v -0.029653 0.000000 0.127278
vt 0.580897 0.306027
vn 0.725136 -0.473073 0.500380
v -0.058505 0.000000 0.143021
vt 0.582233 0.304976
vn -0.278043 -0.685958 0.672424
v -0.080066 0.000000 0.092673
vt 0.582448 0.314201
vn -0.977217 0.112271 0.180118
v -0.084798 0.000000 0.035931
vt 0.581920 0.323590
vn -0.976094 0.204544 -0.073500
v 0.144015 0.000000 -0.082315
vt 0.488265 0.412094
vn 0.804075 -0.295396 0.515951
v 0.003589 -0.044121 -0.033884
vt 0.559882 0.480075
vn 0.106666 -0.987967 -0.111996
v 0.067489 0.000000 -0.026073
vt 0.508982 0.438869
vn 0.895689 0.006011 0.444640
# Faces (1 to 67)
g Corpse_2_0
f -65/-65/-65 -66/-66/-66 -67/-67/-67
f -64/-64/-64 -66/-66/-66 -65/-65/-65
f -63/-63/-63 -64/-64/-64 -65/-65/-65
f -62/-62/-62 -65/-65/-65 -67/-67/-67
f -63/-63/-63 -65/-65/-65 -62/-62/-62
f -62/-62/-62 -67/-67/-67 -61/-61/-61
f -60/-60/-60 -63/-63/-63 -62/-62/-62
f -62/-62/-62 -61/-61/-61 -59/-59/-59
f -60/-60/-60 -62/-62/-62 -59/-59/-59
f -58/-58/-58 -60/-60/-60 -59/-59/-59
f -58/-58/-58 -59/-59/-59 -57/-57/-57
f -58/-58/-58 -57/-57/-57 -56/-56/-56
f -55/-55/-55 -63/-63/-63 -60/-60/-60
f -58/-58/-58 -55/-55/-55 -60/-60/-60
f -58/-58/-58 -56/-56/-56 -54/-54/-54
f -53/-53/-53 -58/-58/-58 -54/-54/-54
f -55/-55/-55 -58/-58/-58 -53/-53/-53
f -52/-52/-52 -55/-55/-55 -53/-53/-53
f -55/-55/-55 -52/-52/-52 -51/-51/-51
f -52/-52/-52 -50/-50/-50 -51/-51/-51
f -53/-53/-53 -54/-54/-54 -49/-49/-49
f -48/-48/-48 -53/-53/-53 -49/-49/-49
f -53/-53/-53 -48/-48/-48 -47/-47/-47
f -52/-52/-52 -53/-53/-53 -47/-47/-47
f -48/-48/-48 -49/-49/-49 -46/-46/-46
f -48/-48/-48 -46/-46/-46 -45/-45/-45
f -48/-48/-48 -45/-45/-45 -47/-47/-47
f -52/-52/-52 -47/-47/-47 -44/-44/-44
f -43/-43/-43 -52/-52/-52 -44/-44/-44
f -52/-52/-52 -43/-43/-43 -50/-50/-50
f -43/-43/-43 -42/-42/-42 -50/-50/-50
f -43/-43/-43 -41/-41/-41 -42/-42/-42
f -43/-43/-43 -40/-40/-40 -41/-41/-41
f -43/-43/-43 -44/-44/-44 -40/-40/-40
f -55/-55/-55 -38/-38/-38 -39/-39/-39
f -38/-38/-38 -37/-37/-37 -39/-39/-39
f -38/-38/-38 -36/-36/-36 -37/-37/-37
f -63/-63/-63 -55/-55/-55 -39/-39/-39
f -64/-64/-64 -63/-63/-63 -39/-39/-39
f -33/-33/-33 -34/-34/-34 -35/-35/-35
f -32/-32/-32 -33/-33/-33 -35/-35/-35
f -29/-29/-29 -30/-30/-30 -31/-31/-31
f -29/-29/-29 -28/-28/-28 -30/-30/-30
f -28/-28/-28 -27/-27/-27 -30/-30/-30
f -31/-31/-31 -30/-30/-30 -26/-26/-26
f -30/-30/-30 -27/-27/-27 -25/-25/-25
f -26/-26/-26 -30/-30/-30 -25/-25/-25
f -27/-27/-27 -24/-24/-24 -25/-25/-25
f -25/-25/-25 -24/-24/-24 -23/-23/-23
f -23/-23/-23 -24/-24/-24 -22/-22/-22
f -27/-27/-27 -28/-28/-28 -21/-21/-21
f -24/-24/-24 -27/-27/-27 -21/-21/-21
f -20/-20/-20 -24/-24/-24 -21/-21/-21
f -19/-19/-19 -24/-24/-24 -20/-20/-20
f -24/-24/-24 -18/-18/-18 -22/-22/-22
f -22/-22/-22 -18/-18/-18 -17/-17/-17
f -24/-24/-24 -16/-16/-16 -18/-18/-18
f -16/-16/-16 -24/-24/-24 -15/-15/-15
f -14/-14/-14 -16/-16/-16 -15/-15/-15
f -13/-13/-13 -16/-16/-16 -14/-14/-14
f -12/-12/-12 -16/-16/-16 -13/-13/-13
f -11/-11/-11 -16/-16/-16 -12/-12/-12
f -10/-10/-10 -16/-16/-16 -11/-11/-11
f -9/-9/-9 -16/-16/-16 -10/-10/-10
f -8/-8/-8 -16/-16/-16 -9/-9/-9
f -7/-7/-7 -8/-8/-8 -9/-9/-9
f -6/-6/-6 -8/-8/-8 -7/-7/-7
f -5/-5/-5 -8/-8/-8 -6/-6/-6
f -4/-4/-4 -8/-8/-8 -5/-5/-5
f -1/-1/-1 -2/-2/-2 -3/-3/-3

