# Mesh "Corpse_6" exported with Unity Assets Bundle Extractor; 47 vertices, 120 indices, 384 bits per vertex
g Corpse_6
# SubMesh 0
# Vertices
v -0.050892 0.036635 -0.099353
vt 0.503845 0.587719
vn 0.135391 0.884637 -0.446192
v -0.090130 0.000000 -0.142183
vt 0.541087 0.650425
vn -0.253440 0.797259 -0.547856
v -0.036383 0.000000 -0.136119
vt 0.482901 0.617085
vn 0.334038 0.730304 -0.595881
v -0.003858 0.000000 -0.089044
vt 0.477586 0.550084
vn 0.578587 0.552057 -0.600392
v 0.006726 0.053637 -0.035824
vt 0.490518 0.505850
vn 0.375897 0.874385 -0.306842
v 0.059639 0.000000 -0.030446
vt 0.486765 0.458004
vn 0.726593 0.614670 -0.306991
v -0.076458 0.036635 -0.083443
vt 0.546763 0.588421
vn -0.427887 0.896475 -0.115090
v -0.110089 0.000000 -0.103447
vt 0.571859 0.619855
vn -0.717851 0.693346 -0.062939
v -0.087866 0.000000 -0.042383
vt 0.574779 0.563023
vn -0.785637 0.602630 -0.140040
v -0.051773 0.053637 -0.025969
vt 0.544064 0.525402
vn -0.276849 0.959774 -0.046785
v 0.026064 0.045676 0.027710
vt 0.500713 0.328010
vn 0.500595 0.836788 0.221788
v -0.047794 0.046664 0.024230
vt 0.503471 0.324251
vn -0.331459 0.931399 0.150436
v 0.056335 0.000000 0.052494
vt 0.479820 0.333843
vn 0.683278 0.641782 0.348205
v 0.009475 0.000000 0.075702
vt 0.499282 0.325246
vn 0.517381 0.599751 0.610422
v -0.045684 0.036977 0.091680
vt 0.500902 0.322120
vn -0.198040 0.898148 0.392569
v -0.021152 0.000000 0.130732
vt 0.498131 0.321560
vn 0.382915 0.778789 0.496853
v -0.064201 0.000000 0.131813
vt 0.499902 0.319602
vn -0.491603 0.741609 0.456445
v -0.092552 0.000000 0.041074
vt 0.505131 0.322176
vn -0.622925 0.741549 0.249137
v -0.092552 0.000000 0.041074
vt 0.570656 0.398854
vn -0.622925 0.741549 0.249137
v -0.116565 0.000000 0.016561
vt 0.580520 0.403349
vn -0.501090 0.821374 0.272496
v -0.118822 0.000000 -0.011384
vt 0.584362 0.411329
vn -0.638207 0.744536 -0.195850
v -0.118822 0.000000 -0.011384
vt 0.584362 0.411329
vn -0.638207 0.744536 -0.195850
v -0.087866 0.000000 -0.042383
vt 0.578762 0.423984
vn -0.785637 0.602630 -0.140040
v -0.051773 0.053637 -0.025969
vt 0.544064 0.525402
vn -0.276849 0.959774 -0.046785
v -0.092552 0.000000 0.041074
vt 0.505131 0.322176
vn -0.419265 -0.883696 0.208080
v -0.064201 0.000000 0.131813
vt 0.499902 0.319602
vn -0.182742 -0.955395 0.232003
v -0.033582 -0.030747 0.029313
vt 0.501890 0.324232
vn 0.079053 -0.994934 0.062104
v -0.021152 0.000000 0.130732
vt 0.498131 0.321560
vn 0.127125 -0.953441 0.273478
v 0.009475 0.000000 0.075702
vt 0.499282 0.325246
vn 0.311320 -0.899310 0.307119
v 0.056335 0.000000 0.052494
vt 0.479820 0.333843
vn 0.305954 -0.950846 0.047791
v -0.034564 -0.030747 -0.058072
vt 0.575507 0.569089
vn 0.123210 -0.988681 -0.085605
v 0.059639 0.000000 -0.030446
vt 0.486765 0.458004
vn 0.323937 -0.945633 -0.029041
v -0.003858 0.000000 -0.089044
vt 0.477586 0.550084
vn 0.428419 -0.816877 -0.386225
v -0.036383 0.000000 -0.136119
vt 0.482901 0.617085
vn 0.136552 -0.920599 -0.365858
v -0.090130 0.000000 -0.142183
vt 0.541087 0.650425
vn -0.134625 -0.956029 -0.260547
v -0.110089 0.000000 -0.103447
vt 0.571859 0.619855
vn -0.349940 -0.935363 -0.051369
v -0.116565 0.000000 0.016561
vt 0.580520 0.403349
vn -0.349907 -0.934860 0.060018
v -0.118822 0.000000 -0.011384
vt 0.584362 0.411329
vn -0.364251 -0.930225 -0.044760
v -0.110089 0.000000 -0.103447
vt 0.571859 0.619855
vn -0.349940 -0.935363 -0.051369
v -0.087866 0.000000 -0.042383
vt 0.574779 0.563023
vn -0.522031 -0.844715 -0.118066
v -0.034564 -0.030747 -0.058072
vt 0.575507 0.569089
vn 0.123210 -0.988681 -0.085605
v -0.116565 0.000000 0.016561
vt 0.580520 0.403349
vn -0.349907 -0.934860 0.060018
v -0.092552 0.000000 0.041074
vt 0.570656 0.398854
vn -0.419265 -0.883696 0.208080
v -0.033582 -0.030747 0.029313
vt 0.501890 0.324232
vn 0.079053 -0.994934 0.062104
v -0.034564 -0.030747 -0.058072
vt 0.575507 0.569089
vn 0.123210 -0.988681 -0.085605
v -0.087866 0.000000 -0.042383
vt 0.578762 0.423984
vn -0.522031 -0.844715 -0.118066
v -0.118822 0.000000 -0.011384
vt 0.584362 0.411329
vn -0.364251 -0.930225 -0.044760
# Faces (1 to 47)
g Corpse_6_0
f -45/-45/-45 -46/-46/-46 -47/-47/-47
f -44/-44/-44 -45/-45/-45 -47/-47/-47
f -44/-44/-44 -47/-47/-47 -43/-43/-43
f -44/-44/-44 -43/-43/-43 -42/-42/-42
f -47/-47/-47 -41/-41/-41 -43/-43/-43
f -47/-47/-47 -46/-46/-46 -41/-41/-41
f -46/-46/-46 -40/-40/-40 -41/-41/-41
f -41/-41/-41 -40/-40/-40 -39/-39/-39
f -41/-41/-41 -38/-38/-38 -43/-43/-43
f -38/-38/-38 -41/-41/-41 -39/-39/-39
f -37/-37/-37 -43/-43/-43 -38/-38/-38
f -43/-43/-43 -37/-37/-37 -42/-42/-42
f -38/-38/-38 -36/-36/-36 -37/-37/-37
f -37/-37/-37 -35/-35/-35 -42/-42/-42
f -37/-37/-37 -34/-34/-34 -35/-35/-35
f -37/-37/-37 -33/-33/-33 -34/-34/-34
f -36/-36/-36 -33/-33/-33 -37/-37/-37
f -33/-33/-33 -32/-32/-32 -34/-34/-34
f -32/-32/-32 -33/-33/-33 -31/-31/-31
f -33/-33/-33 -30/-30/-30 -31/-31/-31
f -33/-33/-33 -36/-36/-36 -30/-30/-30
f -36/-36/-36 -38/-38/-38 -29/-29/-29
f -38/-38/-38 -28/-28/-28 -29/-29/-29
f -38/-38/-38 -27/-27/-27 -28/-28/-28
f -24/-24/-24 -25/-25/-25 -26/-26/-26
f -21/-21/-21 -22/-22/-22 -23/-23/-23
f -20/-20/-20 -22/-22/-22 -21/-21/-21
f -19/-19/-19 -20/-20/-20 -21/-21/-21
f -19/-19/-19 -21/-21/-21 -18/-18/-18
f -21/-21/-21 -17/-17/-17 -18/-18/-18
f -17/-17/-17 -16/-16/-16 -18/-18/-18
f -17/-17/-17 -15/-15/-15 -16/-16/-16
f -17/-17/-17 -14/-14/-14 -15/-15/-15
f -17/-17/-17 -13/-13/-13 -14/-14/-14
f -17/-17/-17 -12/-12/-12 -13/-13/-13
f -11/-11/-11 -17/-17/-17 -21/-21/-21
f -11/-11/-11 -10/-10/-10 -17/-17/-17
f -7/-7/-7 -8/-8/-8 -9/-9/-9
f -4/-4/-4 -5/-5/-5 -6/-6/-6
f -1/-1/-1 -2/-2/-2 -3/-3/-3

