# Mesh "Corpse_0" exported with Unity Assets Bundle Extractor; 62 vertices, 174 indices, 384 bits per vertex
g Corpse_0
# SubMesh 0
# Vertices
v -0.049049 0.000000 -0.182125
vt 0.481416 0.628814
vn -0.883459 -0.137891 -0.447756
v -0.011541 -0.038658 -0.167575
vt 0.525864 0.609750
vn -0.017876 -0.980197 -0.197217
v -0.012657 0.000000 -0.217464
vt 0.523948 0.644785
vn -0.097703 -0.139022 -0.985458
v 0.020086 0.000000 -0.189463
vt 0.570614 0.620465
vn 0.867611 -0.160661 -0.470573
v 0.038817 0.000000 -0.117640
vt 0.576686 0.554236
vn 0.931647 -0.212701 -0.294605
v -0.056560 0.000000 -0.130857
vt 0.472077 0.556184
vn -0.976006 -0.200839 -0.084121
v 0.002423 -0.051896 -0.020851
vt 0.519856 0.427223
vn 0.289124 -0.957283 -0.004083
v 0.081222 0.000000 -0.021952
vt 0.547651 0.428771
vn 0.985258 -0.164264 0.047789
v 0.011775 -0.033355 0.095850
vt 0.591372 0.309315
vn 0.442025 -0.881785 0.164529
v -0.039734 -0.033355 0.098595
vt 0.579681 0.308692
vn -0.400939 -0.905885 0.136460
v 0.006447 0.000000 0.156885
vt 0.586480 0.296428
vn 0.875272 0.287238 0.389092
v 0.032494 0.000000 0.156718
vt 0.593309 0.295906
vn 0.564741 0.000000 0.825268
v -0.002155 0.000000 0.192752
vt 0.588211 0.287322
vn 0.965514 -0.029741 0.258647
v -0.029173 0.000000 0.209702
vt 0.582078 0.283475
vn -0.785410 -0.004044 0.618963
v 0.049224 0.000000 0.118830
vt 0.599871 0.304100
vn 0.948578 -0.141749 0.283033
v -0.076821 0.000000 0.059322
vt 0.571264 0.315458
vn -0.991898 -0.118475 0.045852
v -0.071329 0.000000 0.003329
vt 0.507752 0.401635
vn -0.755947 -0.239957 0.609069
v -0.107693 -0.023449 -0.025681
vt 0.497841 0.437897
vn -0.356983 -0.934070 -0.008788
v -0.105089 0.000000 -0.016514
vt 0.499415 0.428436
vn -0.423402 -0.093581 0.901096
v -0.105761 0.000000 -0.041300
vt 0.497198 0.453987
vn -0.322292 -0.100882 -0.941250
v -0.072635 0.000000 -0.051604
vt 0.502535 0.458365
vn -0.318350 -0.146355 -0.936607
v -0.058895 0.000000 0.147859
vt 0.575333 0.297511
vn -0.943343 0.109417 0.313261
v -0.107693 0.023449 -0.025681
vt 0.497841 0.437897
vn -0.604267 0.796707 0.010932
v -0.105761 0.000000 -0.041300
vt 0.497198 0.453987
vn -0.322292 -0.100882 -0.941250
v -0.031221 0.073519 -0.022461
vt 0.493655 0.428513
vn -0.218942 0.974951 0.039183
v 0.011775 0.033355 0.095850
vt 0.591372 0.309315
vn 0.430606 0.840305 0.329340
v 0.036067 0.073519 -0.019241
vt 0.570021 0.433712
vn 0.438440 0.895956 0.070953
v -0.105089 0.000000 -0.016514
vt 0.499415 0.428436
vn -0.423402 -0.093581 0.901096
v -0.107693 -0.023449 -0.025681
vt 0.497841 0.437897
vn -0.356983 -0.934070 -0.008788
v -0.105761 0.000000 -0.041300
vt 0.497198 0.453987
vn -0.322292 -0.100882 -0.941250
v 0.002423 -0.051896 -0.020851
vt 0.519856 0.427223
vn 0.289124 -0.957283 -0.004083
v -0.053492 0.000000 -0.066771
vt 0.468122 0.480634
vn -0.949206 -0.281651 -0.140288
v -0.072635 0.000000 -0.051604
vt 0.502535 0.458365
vn -0.318350 -0.146355 -0.936607
v -0.053492 0.000000 -0.066771
vt 0.468122 0.480634
vn -0.949206 -0.281651 -0.140288
v -0.012657 0.000000 -0.217464
vt 0.523948 0.644785
vn -0.097703 -0.139022 -0.985458
v 0.002418 0.038658 -0.169057
vt 0.548566 0.606441
vn 0.303153 0.898492 -0.317506
v -0.025501 0.038658 -0.166093
vt 0.503295 0.605950
vn -0.300192 0.912530 -0.277801
v -0.031221 0.073519 -0.022461
vt 0.493655 0.428513
vn -0.218942 0.974951 0.039183
v 0.036067 0.073519 -0.019241
vt 0.570021 0.433712
vn 0.438440 0.895956 0.070953
v -0.049049 0.000000 -0.182125
vt 0.481416 0.628814
vn -0.883459 -0.137891 -0.447756
v 0.020086 0.000000 -0.189463
vt 0.570614 0.620465
vn 0.867611 -0.160661 -0.470573
v 0.011775 0.033355 0.095850
vt 0.591372 0.309315
vn 0.430606 0.840305 0.329340
v -0.039734 0.033355 0.098595
vt 0.579681 0.308692
vn -0.295688 0.911339 0.286408
v 0.006447 0.000000 0.156885
vt 0.586480 0.296428
vn 0.875272 0.287238 0.389092
v 0.032494 0.000000 0.156718
vt 0.593309 0.295906
vn 0.564741 0.000000 0.825268
v -0.021695 0.030802 0.189688
vt 0.583776 0.288017
vn -0.162628 0.958964 0.232249
v -0.002155 0.000000 0.192752
vt 0.588211 0.287322
vn 0.965514 -0.029741 0.258647
v -0.029173 0.000000 0.209702
vt 0.582078 0.283475
vn -0.785410 -0.004044 0.618963
v 0.038817 0.000000 -0.117640
vt 0.576686 0.554236
vn 0.931647 -0.212701 -0.294605
v -0.056560 0.000000 -0.130857
vt 0.472077 0.556184
vn -0.976006 -0.200839 -0.084121
v -0.076821 0.000000 0.059322
vt 0.571264 0.315458
vn -0.991898 -0.118475 0.045852
v -0.071329 0.000000 0.003329
vt 0.507752 0.401635
vn -0.755947 -0.239957 0.609069
v -0.058895 0.000000 0.147859
vt 0.575333 0.297511
vn -0.943343 0.109417 0.313261
v 0.049224 0.000000 0.118830
vt 0.599871 0.304100
vn 0.948578 -0.141749 0.283033
v -0.053492 0.000000 -0.066771
vt 0.468122 0.480634
vn -0.949206 -0.281651 -0.140288
v -0.031221 0.073519 -0.022461
vt 0.493655 0.428513
vn -0.218942 0.974951 0.039183
v -0.072635 0.000000 -0.051604
vt 0.502535 0.458365
vn -0.318350 -0.146355 -0.936607
v -0.053492 0.000000 -0.066771
vt 0.468122 0.480634
vn -0.949206 -0.281651 -0.140288
v -0.031221 0.073519 -0.022461
vt 0.493655 0.428513
vn -0.218942 0.974951 0.039183
v -0.107693 0.023449 -0.025681
vt 0.497841 0.437897
vn -0.604267 0.796707 0.010932
v -0.105761 0.000000 -0.041300
vt 0.497198 0.453987
vn -0.322292 -0.100882 -0.941250
v -0.072635 0.000000 -0.051604
vt 0.502535 0.458365
vn -0.318350 -0.146355 -0.936607
# Faces (1 to 62)
g Corpse_0_0
f -60/-60/-60 -61/-61/-61 -62/-62/-62
f -59/-59/-59 -61/-61/-61 -60/-60/-60
f -61/-61/-61 -59/-59/-59 -58/-58/-58
f -57/-57/-57 -62/-62/-62 -61/-61/-61
f -56/-56/-56 -61/-61/-61 -58/-58/-58
f -56/-56/-56 -57/-57/-57 -61/-61/-61
f -55/-55/-55 -56/-56/-56 -58/-58/-58
f -54/-54/-54 -56/-56/-56 -55/-55/-55
f -53/-53/-53 -56/-56/-56 -54/-54/-54
f -53/-53/-53 -54/-54/-54 -52/-52/-52
f -52/-52/-52 -54/-54/-54 -51/-51/-51
f -50/-50/-50 -53/-53/-53 -52/-52/-52
f -49/-49/-49 -53/-53/-53 -50/-50/-50
f -48/-48/-48 -54/-54/-54 -55/-55/-55
f -51/-51/-51 -54/-54/-54 -48/-48/-48
f -56/-56/-56 -53/-53/-53 -47/-47/-47
f -46/-46/-46 -56/-56/-56 -47/-47/-47
f -45/-45/-45 -56/-56/-56 -46/-46/-46
f -44/-44/-44 -45/-45/-45 -46/-46/-46
f -45/-45/-45 -43/-43/-43 -56/-56/-56
f -43/-43/-43 -42/-42/-42 -56/-56/-56
f -47/-47/-47 -53/-53/-53 -41/-41/-41
f -49/-49/-49 -41/-41/-41 -53/-53/-53
f -40/-40/-40 -44/-44/-44 -46/-46/-46
f -40/-40/-40 -39/-39/-39 -44/-44/-44
f -38/-38/-38 -40/-40/-40 -46/-46/-46
f -37/-37/-37 -48/-48/-48 -55/-55/-55
f -36/-36/-36 -37/-37/-37 -55/-55/-55
f -36/-36/-36 -55/-55/-55 -58/-58/-58
f -33/-33/-33 -34/-34/-34 -35/-35/-35
f -30/-30/-30 -31/-31/-31 -32/-32/-32
f -29/-29/-29 -57/-57/-57 -56/-56/-56
f -26/-26/-26 -27/-27/-27 -28/-28/-28
f -26/-26/-26 -25/-25/-25 -27/-27/-27
f -25/-25/-25 -24/-24/-24 -27/-27/-27
f -26/-26/-26 -28/-28/-28 -23/-23/-23
f -27/-27/-27 -22/-22/-22 -28/-28/-28
f -24/-24/-24 -25/-25/-25 -21/-21/-21
f -25/-25/-25 -20/-20/-20 -21/-21/-21
f -21/-21/-21 -20/-20/-20 -19/-19/-19
f -21/-21/-21 -19/-19/-19 -18/-18/-18
f -20/-20/-20 -17/-17/-17 -19/-19/-19
f -17/-17/-17 -16/-16/-16 -19/-19/-19
f -17/-17/-17 -15/-15/-15 -16/-16/-16
f -27/-27/-27 -24/-24/-24 -14/-14/-14
f -22/-22/-22 -27/-27/-27 -14/-14/-14
f -23/-23/-23 -13/-13/-13 -26/-26/-26
f -13/-13/-13 -25/-25/-25 -26/-26/-26
f -20/-20/-20 -25/-25/-25 -12/-12/-12
f -25/-25/-25 -11/-11/-11 -12/-12/-12
f -20/-20/-20 -12/-12/-12 -10/-10/-10
f -10/-10/-10 -15/-15/-15 -17/-17/-17
f -20/-20/-20 -10/-10/-10 -17/-17/-17
f -21/-21/-21 -18/-18/-18 -9/-9/-9
f -13/-13/-13 -8/-8/-8 -25/-25/-25
f -5/-5/-5 -6/-6/-6 -7/-7/-7
f -2/-2/-2 -3/-3/-3 -4/-4/-4
f -1/-1/-1 -2/-2/-2 -4/-4/-4

