# Mesh "Flame_1" exported with Unity Assets Bundle Extractor; 114 vertices, 504 indices, 384 bits per vertex
g Flame_1
# SubMesh 0
# Vertices
v -0.060849 -0.007412 0.067441
vt -0.853017 0.480764
vn 0.970427 -0.105183 -0.217273
v 0.122093 -0.085425 0.239496
vt -0.974595 0.425638
vn -0.058435 -0.422856 -0.904311
v 0.158466 0.045683 0.211339
vt -0.954701 0.518282
vn 0.218501 -0.005933 -0.975819
v -0.107270 0.123187 0.028871
vt -0.825765 0.573048
vn 0.937439 0.232583 -0.259063
v 0.074508 -0.134342 -0.214720
vt -0.653638 0.391072
vn 0.582729 0.303979 0.753674
v 0.006320 0.010821 -0.308241
vt -0.587552 0.493648
vn 0.695512 0.465587 0.547258
v 0.096492 0.210026 0.233743
vt -0.970532 0.634410
vn 0.339282 -0.022591 -0.940413
v -0.087437 -0.045004 0.091607
vt -0.870095 0.454201
vn 0.350886 -0.924384 0.149641
v -0.080361 -0.215041 -0.157652
vt -0.693963 0.334049
vn 0.522990 -0.145724 0.839789
v -0.233082 -0.172711 -0.033675
vt -0.781568 0.363960
vn 0.786920 -0.286947 0.546277
v -0.263169 -0.091711 0.190298
vt -0.939832 0.421197
vn 0.814367 -0.506464 -0.283375
v -0.044289 -0.051566 0.280645
vt -1.003675 0.449564
vn 0.098839 -0.716687 -0.690356
v -0.104714 0.179744 -0.257559
vt -0.623364 0.613012
vn 0.898092 0.095626 0.429287
v -0.105756 0.342747 -0.107825
vt -0.729173 0.728193
vn 0.908666 -0.410394 0.076835
v -0.067406 0.323502 0.115655
vt -0.887086 0.714595
vn 0.730721 -0.340107 -0.591924
v -0.029763 -0.160724 0.327341
vt -1.036668 0.372430
vn 0.041279 0.221062 -0.974386
v -0.259961 -0.199174 0.230112
vt -0.967965 0.345261
vn 0.748232 0.321532 -0.580316
v -0.022423 -0.349029 0.143030
vt -0.906430 0.239370
vn -0.025304 0.935305 -0.352937
v -0.233948 -0.290132 -0.003539
vt -0.802861 0.280988
vn 0.734947 0.643630 0.213525
v -0.031197 -0.329138 -0.145392
vt -0.702626 0.253426
vn 0.135502 0.802807 0.580637
v 0.012122 0.419923 0.104234
vt -0.879018 0.782728
vn 0.241279 -0.846616 -0.474369
v -0.028619 0.426067 -0.147460
vt -0.701165 0.787069
vn 0.304453 -0.890985 0.336830
v -0.030221 0.251232 -0.331290
vt -0.571267 0.663528
vn 0.314755 -0.405704 0.858099
v 0.110816 0.044933 -0.378184
vt -0.538129 0.517752
vn -0.115096 0.133991 0.984276
v 0.193336 -0.186771 -0.238780
vt -0.636636 0.354025
vn -0.422035 0.588565 0.689549
v 0.200263 0.280917 0.226900
vt -0.965695 0.684503
vn -0.387313 -0.481126 -0.786451
v 0.122093 -0.085425 0.239496
vt -0.974595 0.425638
vn -0.058435 -0.422856 -0.904311
v -0.087437 -0.045004 0.091607
vt -0.870095 0.454201
vn 0.350886 -0.924384 0.149641
v -0.044289 -0.051566 0.280645
vt -1.003675 0.449564
vn 0.098839 -0.716687 -0.690356
v -0.029763 -0.160724 0.327341
vt -1.036668 0.372430
vn 0.041279 0.221062 -0.974386
v 0.203441 -0.171282 0.246835
vt -0.979783 0.364970
vn -0.567817 0.455218 -0.685828
v -0.022423 -0.349029 0.143030
vt -0.906430 0.239370
vn -0.025304 0.935305 -0.352937
v 0.179260 -0.292395 -0.000464
vt -0.805036 0.279389
vn -0.547133 0.837037 0.003863
v -0.031197 -0.329138 -0.145392
vt -0.702626 0.253426
vn 0.135502 0.802807 0.580637
v 0.350467 -0.101270 -0.005759
vt -0.801293 0.414442
vn -0.932437 0.361170 -0.010846
v 0.288596 0.047760 0.208181
vt -0.952470 0.519750
vn -0.723537 -0.018231 -0.690045
v 0.351928 0.191692 -0.009352
vt -0.798753 0.621455
vn -0.943975 -0.328338 -0.033253
v 0.307494 0.047004 -0.207694
vt -0.658601 0.519216
vn -0.842048 0.029334 0.538604
v 0.193336 -0.186771 -0.238780
vt -0.636636 0.354025
vn -0.422035 0.588565 0.689549
v 0.110816 0.044933 -0.378184
vt -0.538129 0.517752
vn -0.115096 0.133991 0.984276
v 0.215347 0.283589 -0.237830
vt -0.637307 0.686392
vn -0.567385 -0.561678 0.602156
v 0.200263 0.280917 0.226900
vt -0.965695 0.684503
vn -0.387313 -0.481126 -0.786451
v -0.030221 0.251232 -0.331290
vt -0.571267 0.663528
vn 0.314755 -0.405704 0.858099
v -0.028619 0.426067 -0.147460
vt -0.701165 0.787069
vn 0.304453 -0.890985 0.336830
v 0.189464 0.383331 -0.012625
vt -0.796441 0.756872
vn -0.546812 -0.837247 0.003766
v 0.012122 0.419923 0.104234
vt -0.879018 0.782728
vn 0.241279 -0.846616 -0.474369
v 0.158466 0.045683 0.211339
vt -0.954701 0.518282
vn 0.218501 -0.005933 -0.975819
v 0.096492 0.210026 0.233743
vt -0.970532 0.634410
vn 0.339282 -0.022591 -0.940413
v -0.559594 -0.305781 0.305780
vt 0.539405 0.318925
vn 0.809158 0.415488 -0.415491
v -0.612801 0.000000 0.353834
vt 0.505447 0.534996
vn 0.868093 0.000000 -0.496403
v -0.707593 0.000000 0.000001
vt 0.755473 0.534996
vn 1.000000 0.000000 0.000000
v -0.612801 -0.353832 0.000001
vt 0.755473 0.284971
vn 0.868095 0.496398 0.000000
v -0.305783 -0.559597 0.305780
vt 0.539405 0.139573
vn 0.415489 0.809157 -0.415493
v -0.353833 -0.612803 0.000001
vt 0.755473 0.101977
vn 0.496400 0.868094 0.000000
v 0.000003 -0.707593 0.000001
vt 0.755473 0.034996
vn -0.000000 1.000000 0.000000
v 0.000003 -0.612803 0.353834
vt 0.505447 0.101977
vn -0.000000 0.868092 -0.496403
v 0.000003 -0.353832 0.612802
vt 0.322456 0.284971
vn -0.000000 0.496400 -0.868094
v -0.305783 -0.305781 0.559598
vt 0.360049 0.318925
vn 0.415492 0.415489 -0.809157
v 0.000003 0.000000 0.707593
vt 0.255473 0.534996
vn -0.000000 0.000000 -1.000000
v -0.353833 0.000000 0.612802
vt 0.322456 0.534996
vn 0.496403 0.000000 -0.868092
v -0.559594 0.305781 0.305780
vt 0.539405 0.751068
vn 0.809159 -0.415487 -0.415491
v -0.612801 0.353832 0.000001
vt 0.755473 0.785022
vn 0.868097 -0.496395 0.000000
v -0.305783 0.559597 0.305780
vt 0.539405 0.930420
vn 0.415491 -0.809156 -0.415493
v -0.353833 0.612803 0.000001
vt 0.755473 0.968016
vn 0.496402 -0.868093 0.000000
v 0.000003 0.707593 0.000001
vt 0.755473 1.034996
vn -0.000000 -1.000000 0.000000
v 0.000003 0.612803 0.353834
vt 0.505447 0.968016
vn -0.000000 -0.868092 -0.496403
v -0.305783 0.305781 0.559598
vt 0.360049 0.751068
vn 0.415493 -0.415489 -0.809156
v 0.000003 0.353832 0.612802
vt 0.322456 0.785022
vn -0.000000 -0.496401 -0.868093
v -0.305783 0.559597 -0.305777
vt 0.971542 0.930420
vn 0.415492 -0.809156 0.415492
v -0.559594 0.305781 -0.305777
vt 0.971542 0.751068
vn 0.809161 -0.415486 0.415488
v -0.612801 0.000000 -0.353831
vt 1.005500 0.534996
vn 0.868095 0.000000 0.496399
v -0.305783 0.305781 -0.559596
vt 1.150897 0.751068
vn 0.415491 -0.415492 0.809156
v -0.353833 0.000000 -0.612803
vt 1.188495 0.534996
vn 0.496403 0.000000 0.868092
v 0.000003 0.000000 -0.707591
vt 1.255473 0.534996
vn -0.000000 0.000000 1.000000
v 0.000003 0.353832 -0.612803
vt 1.188495 0.785022
vn -0.000000 -0.496401 0.868093
v 0.000003 0.612803 -0.353831
vt 1.005500 0.968016
vn -0.000000 -0.868093 0.496402
v -0.559594 -0.305781 -0.305777
vt 0.971542 0.318925
vn 0.809160 0.415487 0.415489
v -0.305783 -0.559597 -0.305777
vt 0.971542 0.139573
vn 0.415490 0.809157 0.415492
v 0.000003 -0.612803 -0.353831
vt 1.005500 0.101977
vn -0.000000 0.868093 0.496402
v -0.305783 -0.305781 -0.559596
vt 1.150897 0.318925
vn 0.415491 0.415491 0.809157
v 0.000003 -0.353832 -0.612803
vt 1.188495 0.284971
vn -0.000000 0.496401 0.868094
v 0.305782 -0.559597 0.305780
vt 0.539405 0.139573
vn -0.415491 0.809156 -0.415491
v 0.000003 -0.612803 0.353834
vt 0.505447 0.101977
vn -0.000000 0.868092 -0.496403
v 0.000003 -0.707593 0.000001
vt 0.755473 0.034996
vn -0.000000 1.000000 0.000000
v 0.353835 -0.612803 0.000001
vt 0.755473 0.101977
vn -0.496404 0.868092 0.000000
v 0.612804 -0.353832 0.000001
vt 0.755473 0.284971
vn -0.868093 0.496402 0.000000
v 0.559596 -0.305781 0.305780
vt 0.539405 0.318925
vn -0.809154 0.415495 -0.415492
v 0.707595 0.000000 0.000001
vt 0.755473 0.534996
vn -1.000000 0.000000 0.000000
v 0.612804 0.000000 0.353834
vt 0.505447 0.534996
vn -0.868091 0.000000 -0.496405
v 0.305782 -0.305781 0.559598
vt 0.360049 0.318925
vn -0.415495 0.415492 -0.809154
v 0.353835 0.000000 0.612802
vt 0.322456 0.534996
vn -0.496407 0.000000 -0.868090
v 0.000003 0.000000 0.707593
vt 0.255473 0.534996
vn -0.000000 0.000000 -1.000000
v 0.000003 -0.353832 0.612802
vt 0.322456 0.284971
vn -0.000000 0.496400 -0.868094
v 0.559596 0.305781 0.305780
vt 0.539405 0.751068
vn -0.809153 -0.415496 -0.415493
v 0.612804 0.353832 0.000001
vt 0.755473 0.785022
vn -0.868091 -0.496405 0.000000
v 0.305782 0.559597 0.305780
vt 0.539405 0.930420
vn -0.415489 -0.809158 -0.415491
v 0.353835 0.612803 0.000001
vt 0.755473 0.968016
vn -0.496402 -0.868093 0.000000
v 0.000003 0.707593 0.000001
vt 0.755473 1.034996
vn -0.000000 -1.000000 0.000000
v 0.000003 0.612803 0.353834
vt 0.505447 0.968016
vn -0.000000 -0.868092 -0.496403
v 0.000003 0.353832 0.612802
vt 0.322456 0.785022
vn -0.000000 -0.496401 -0.868093
v 0.305782 0.305781 0.559598
vt 0.360049 0.751068
vn -0.415494 -0.415492 -0.809155
v 0.559596 0.305781 -0.305777
vt 0.971542 0.751068
vn -0.809155 -0.415494 0.415490
v 0.612804 0.000000 -0.353831
vt 1.005500 0.534996
vn -0.868093 0.000000 0.496401
v 0.305782 0.305781 -0.559596
vt 1.150897 0.751068
vn -0.415493 -0.415493 0.809155
v 0.353835 0.000000 -0.612803
vt 1.188495 0.534996
vn -0.496407 0.000000 0.868090
v 0.000003 0.000000 -0.707591
vt 1.255473 0.534996
vn -0.000000 0.000000 1.000000
v 0.000003 0.353832 -0.612803
vt 1.188495 0.785022
vn -0.000000 -0.496401 0.868093
v 0.000003 0.612803 -0.353831
vt 1.005500 0.968016
vn -0.000000 -0.868093 0.496402
v 0.305782 0.559597 -0.305777
vt 0.971542 0.930420
vn -0.415491 -0.809157 0.415490
v 0.305782 -0.305781 -0.559596
vt 1.150897 0.318925
vn -0.415493 0.415493 0.809154
v 0.000003 -0.353832 -0.612803
vt 1.188495 0.284971
vn -0.000000 0.496401 0.868094
v 0.000003 -0.612803 -0.353831
vt 1.005500 0.101977
vn -0.000000 0.868093 0.496402
v 0.305782 -0.559597 -0.305777
vt 0.971542 0.139573
vn -0.415493 0.809156 0.415490
v 0.559596 -0.305781 -0.305777
vt 0.971542 0.318925
vn -0.809156 0.415494 0.415490
# Faces (1 to 114)
g Flame_1_0
f -112/-112/-112 -113/-113/-113 -114/-114/-114
f -112/-112/-112 -114/-114/-114 -111/-111/-111
f -110/-110/-110 -111/-111/-111 -114/-114/-114
f -110/-110/-110 -109/-109/-109 -111/-111/-111
f -112/-112/-112 -111/-111/-111 -108/-108/-108
f -113/-113/-113 -107/-107/-107 -114/-114/-114
f -114/-114/-114 -107/-107/-107 -106/-106/-106
f -114/-114/-114 -106/-106/-106 -110/-110/-110
f -105/-105/-105 -106/-106/-106 -107/-107/-107
f -104/-104/-104 -105/-105/-105 -107/-107/-107
f -103/-103/-103 -104/-104/-104 -107/-107/-107
f -102/-102/-102 -111/-111/-111 -109/-109/-109
f -102/-102/-102 -101/-101/-101 -111/-111/-111
f -111/-111/-111 -101/-101/-101 -100/-100/-100
f -111/-111/-111 -100/-100/-100 -108/-108/-108
f -104/-104/-104 -103/-103/-103 -99/-99/-99
f -98/-98/-98 -104/-104/-104 -99/-99/-99
f -104/-104/-104 -98/-98/-98 -105/-105/-105
f -98/-98/-98 -99/-99/-99 -97/-97/-97
f -96/-96/-96 -98/-98/-98 -97/-97/-97
f -96/-96/-96 -105/-105/-105 -98/-98/-98
f -105/-105/-105 -96/-96/-96 -106/-106/-106
f -95/-95/-95 -96/-96/-96 -97/-97/-97
f -95/-95/-95 -110/-110/-110 -106/-106/-106
f -95/-95/-95 -106/-106/-106 -96/-96/-96
f -94/-94/-94 -100/-100/-100 -101/-101/-101
f -94/-94/-94 -108/-108/-108 -100/-100/-100
f -101/-101/-101 -93/-93/-93 -94/-94/-94
f -93/-93/-93 -101/-101/-101 -92/-92/-92
f -101/-101/-101 -102/-102/-102 -92/-92/-92
f -92/-92/-92 -102/-102/-102 -109/-109/-109
f -109/-109/-109 -91/-91/-91 -92/-92/-92
f -91/-91/-91 -109/-109/-109 -110/-110/-110
f -110/-110/-110 -90/-90/-90 -91/-91/-91
f -90/-90/-90 -110/-110/-110 -95/-95/-95
f -89/-89/-89 -108/-108/-108 -94/-94/-94
f -86/-86/-86 -87/-87/-87 -88/-88/-88
f -85/-85/-85 -86/-86/-86 -88/-88/-88
f -88/-88/-88 -84/-84/-84 -85/-85/-85
f -83/-83/-83 -85/-85/-85 -84/-84/-84
f -83/-83/-83 -84/-84/-84 -82/-82/-82
f -83/-83/-83 -82/-82/-82 -81/-81/-81
f -82/-82/-82 -84/-84/-84 -80/-80/-80
f -84/-84/-84 -79/-79/-79 -80/-80/-80
f -84/-84/-84 -88/-88/-88 -79/-79/-79
f -80/-80/-80 -79/-79/-79 -78/-78/-78
f -78/-78/-78 -77/-77/-77 -80/-80/-80
f -77/-77/-77 -76/-76/-76 -80/-80/-80
f -81/-81/-81 -82/-82/-82 -76/-76/-76
f -76/-76/-76 -82/-82/-82 -80/-80/-80
f -75/-75/-75 -76/-76/-76 -77/-77/-77
f -75/-75/-75 -77/-77/-77 -74/-74/-74
f -74/-74/-74 -77/-77/-77 -78/-78/-78
f -78/-78/-78 -79/-79/-79 -73/-73/-73
f -74/-74/-74 -72/-72/-72 -75/-75/-75
f -71/-71/-71 -72/-72/-72 -74/-74/-74
f -70/-70/-70 -74/-74/-74 -78/-78/-78
f -71/-71/-71 -74/-74/-74 -70/-70/-70
f -73/-73/-73 -70/-70/-70 -78/-78/-78
f -71/-71/-71 -70/-70/-70 -69/-69/-69
f -69/-69/-69 -70/-70/-70 -73/-73/-73
f -73/-73/-73 -79/-79/-79 -68/-68/-68
f -88/-88/-88 -68/-68/-68 -79/-79/-79
f -68/-68/-68 -67/-67/-67 -73/-73/-73
f -64/-64/-64 -65/-65/-65 -66/-66/-66
f -66/-66/-66 -63/-63/-63 -64/-64/-64
f -63/-63/-63 -66/-66/-66 -62/-62/-62
f -62/-62/-62 -61/-61/-61 -63/-63/-63
f -60/-60/-60 -61/-61/-61 -62/-62/-62
f -62/-62/-62 -59/-59/-59 -60/-60/-60
f -62/-62/-62 -58/-58/-58 -59/-59/-59
f -57/-57/-57 -58/-58/-58 -62/-62/-62
f -66/-66/-66 -65/-65/-65 -57/-57/-57
f -57/-57/-57 -62/-62/-62 -66/-66/-66
f -56/-56/-56 -58/-58/-58 -57/-57/-57
f -57/-57/-57 -55/-55/-55 -56/-56/-56
f -57/-57/-57 -65/-65/-65 -55/-55/-55
f -54/-54/-54 -65/-65/-65 -64/-64/-64
f -64/-64/-64 -53/-53/-53 -54/-54/-54
f -53/-53/-53 -52/-52/-52 -54/-54/-54
f -53/-53/-53 -51/-51/-51 -52/-52/-52
f -52/-52/-52 -51/-51/-51 -50/-50/-50
f -50/-50/-50 -49/-49/-49 -52/-52/-52
f -56/-56/-56 -55/-55/-55 -48/-48/-48
f -48/-48/-48 -54/-54/-54 -52/-52/-52
f -65/-65/-65 -54/-54/-54 -48/-48/-48
f -48/-48/-48 -55/-55/-55 -65/-65/-65
f -48/-48/-48 -47/-47/-47 -56/-56/-56
f -52/-52/-52 -49/-49/-49 -47/-47/-47
f -47/-47/-47 -48/-48/-48 -52/-52/-52
f -46/-46/-46 -51/-51/-51 -53/-53/-53
f -50/-50/-50 -51/-51/-51 -46/-46/-46
f -53/-53/-53 -45/-45/-45 -46/-46/-46
f -45/-45/-45 -53/-53/-53 -64/-64/-64
f -64/-64/-64 -44/-44/-44 -45/-45/-45
f -43/-43/-43 -45/-45/-45 -44/-44/-44
f -46/-46/-46 -45/-45/-45 -43/-43/-43
f -44/-44/-44 -42/-42/-42 -43/-43/-43
f -43/-43/-43 -42/-42/-42 -41/-41/-41
f -41/-41/-41 -40/-40/-40 -43/-43/-43
f -46/-46/-46 -39/-39/-39 -50/-50/-50
f -43/-43/-43 -40/-40/-40 -39/-39/-39
f -39/-39/-39 -46/-46/-46 -43/-43/-43
f -38/-38/-38 -44/-44/-44 -64/-64/-64
f -64/-64/-64 -63/-63/-63 -38/-38/-38
f -38/-38/-38 -63/-63/-63 -37/-37/-37
f -61/-61/-61 -37/-37/-37 -63/-63/-63
f -37/-37/-37 -61/-61/-61 -60/-60/-60
f -60/-60/-60 -36/-36/-36 -37/-37/-37
f -35/-35/-35 -42/-42/-42 -44/-44/-44
f -44/-44/-44 -38/-38/-38 -35/-35/-35
f -41/-41/-41 -42/-42/-42 -35/-35/-35
f -35/-35/-35 -37/-37/-37 -36/-36/-36
f -35/-35/-35 -38/-38/-38 -37/-37/-37
f -35/-35/-35 -34/-34/-34 -41/-41/-41
f -36/-36/-36 -34/-34/-34 -35/-35/-35
f -31/-31/-31 -32/-32/-32 -33/-33/-33
f -33/-33/-33 -30/-30/-30 -31/-31/-31
f -29/-29/-29 -30/-30/-30 -33/-33/-33
f -29/-29/-29 -33/-33/-33 -28/-28/-28
f -27/-27/-27 -29/-29/-29 -28/-28/-28
f -28/-28/-28 -26/-26/-26 -27/-27/-27
f -26/-26/-26 -28/-28/-28 -25/-25/-25
f -25/-25/-25 -28/-28/-28 -33/-33/-33
f -25/-25/-25 -24/-24/-24 -26/-26/-26
f -23/-23/-23 -24/-24/-24 -25/-25/-25
f -25/-25/-25 -22/-22/-22 -23/-23/-23
f -22/-22/-22 -25/-25/-25 -33/-33/-33
f -33/-33/-33 -32/-32/-32 -22/-22/-22
f -27/-27/-27 -26/-26/-26 -21/-21/-21
f -21/-21/-21 -20/-20/-20 -27/-27/-27
f -20/-20/-20 -21/-21/-21 -19/-19/-19
f -19/-19/-19 -18/-18/-18 -20/-20/-20
f -17/-17/-17 -18/-18/-18 -19/-19/-19
f -19/-19/-19 -16/-16/-16 -17/-17/-17
f -15/-15/-15 -16/-16/-16 -19/-19/-19
f -19/-19/-19 -14/-14/-14 -15/-15/-15
f -14/-14/-14 -24/-24/-24 -23/-23/-23
f -23/-23/-23 -15/-15/-15 -14/-14/-14
f -14/-14/-14 -26/-26/-26 -24/-24/-24
f -21/-21/-21 -26/-26/-26 -14/-14/-14
f -14/-14/-14 -19/-19/-19 -21/-21/-21
f -27/-27/-27 -20/-20/-20 -13/-13/-13
f -13/-13/-13 -12/-12/-12 -27/-27/-27
f -12/-12/-12 -13/-13/-13 -11/-11/-11
f -11/-11/-11 -10/-10/-10 -12/-12/-12
f -9/-9/-9 -10/-10/-10 -11/-11/-11
f -11/-11/-11 -8/-8/-8 -9/-9/-9
f -7/-7/-7 -8/-8/-8 -11/-11/-11
f -11/-11/-11 -6/-6/-6 -7/-7/-7
f -6/-6/-6 -18/-18/-18 -17/-17/-17
f -17/-17/-17 -7/-7/-7 -6/-6/-6
f -18/-18/-18 -6/-6/-6 -20/-20/-20
f -13/-13/-13 -20/-20/-20 -6/-6/-6
f -6/-6/-6 -11/-11/-11 -13/-13/-13
f -5/-5/-5 -10/-10/-10 -9/-9/-9
f -12/-12/-12 -10/-10/-10 -5/-5/-5
f -9/-9/-9 -4/-4/-4 -5/-5/-5
f -5/-5/-5 -4/-4/-4 -3/-3/-3
f -3/-3/-3 -2/-2/-2 -5/-5/-5
f -2/-2/-2 -3/-3/-3 -31/-31/-31
f -31/-31/-31 -30/-30/-30 -2/-2/-2
f -2/-2/-2 -30/-30/-30 -29/-29/-29
f -29/-29/-29 -1/-1/-1 -2/-2/-2
f -5/-5/-5 -1/-1/-1 -12/-12/-12
f -5/-5/-5 -2/-2/-2 -1/-1/-1
f -1/-1/-1 -29/-29/-29 -27/-27/-27
f -27/-27/-27 -12/-12/-12 -1/-1/-1

