# Mesh "Flame_2" exported with Unity Assets Bundle Extractor; 160 vertices, 768 indices, 384 bits per vertex
g Flame_2
# SubMesh 0
# Vertices
v -0.542510 -0.293292 0.486002
vt 0.569403 0.298014
vn 0.840547 0.403881 -0.361054
v -0.585319 -0.318558 0.151816
vt 0.759714 0.283625
vn 0.870632 0.485674 -0.078237
v -0.293632 -0.542318 0.486044
vt 0.569380 0.156201
vn 0.404503 0.840208 -0.361148
v -0.318923 -0.585173 0.151835
vt 0.759703 0.131797
vn 0.486349 0.870252 -0.078276
v -0.300743 -0.300450 0.752814
vt 0.417464 0.293937
vn 0.421899 0.421369 -0.802776
v -0.653617 0.004241 0.153624
vt 0.758684 0.467449
vn 0.996526 -0.001073 -0.083269
v -0.583126 0.004164 0.510508
vt 0.555449 0.467405
vn 0.897898 -0.000930 -0.440203
v -0.541992 0.296830 0.485747
vt 0.569552 0.634068
vn 0.838354 -0.409573 -0.359739
v -0.300445 0.304024 0.752249
vt 0.417788 0.638166
vn 0.420489 -0.427038 -0.800517
v -0.328082 0.004223 0.798613
vt 0.391383 0.467438
vn 0.510827 -0.000944 -0.859683
v -0.584567 0.322196 0.151728
vt 0.759764 0.648513
vn 0.867413 -0.491458 -0.077868
v -0.317733 0.586368 0.151537
vt 0.759871 0.798951
vn 0.483123 -0.872125 -0.077398
v -0.292716 0.544320 0.485201
vt 0.569861 0.775006
vn 0.401977 -0.842511 -0.358595
v 0.003594 0.653621 0.153250
vt 0.758898 0.837250
vn -0.000902 -0.996622 -0.082121
v 0.003529 0.584149 0.509524
vt 0.556010 0.797687
vn -0.000783 -0.899264 -0.437406
v 0.003583 0.331432 0.797880
vt 0.391802 0.653773
vn -0.000797 -0.515989 -0.856595
v 0.003625 0.004267 0.878016
vt 0.346167 0.467464
vn -0.000843 -0.000992 -0.999999
v 0.003586 -0.327814 0.798670
vt 0.391352 0.278354
vn -0.000803 0.510420 -0.859925
v 0.003537 -0.583042 0.510584
vt 0.555407 0.133010
vn -0.000788 0.897785 -0.440433
v 0.003602 -0.653621 0.153658
vt 0.758665 0.092818
vn -0.000912 0.996519 -0.083363
v -0.318851 -0.585049 -0.183298
vt 0.950548 0.131867
vn 0.486180 0.869888 0.083207
v 0.003602 -0.653456 -0.185194
vt 0.951628 0.092912
vn -0.000909 0.996073 0.088531
v -0.292762 -0.540647 -0.500093
vt 1.130953 0.157153
vn 0.400764 0.833981 0.379294
v -0.585197 -0.318487 -0.183279
vt 0.950537 0.283666
vn 0.870269 0.485505 0.083165
v -0.540840 -0.292424 -0.500048
vt 1.130926 0.298508
vn 0.834319 0.400148 0.379201
v -0.297370 -0.297078 -0.760462
vt 1.279227 0.295857
vn 0.412583 0.412061 0.812392
v -0.580795 0.004156 -0.524721
vt 1.144980 0.467401
vn 0.888501 -0.000927 0.458873
v -0.323921 0.004191 -0.802950
vt 1.303419 0.467421
vn 0.500032 -0.000928 0.866006
v -0.297080 0.300631 -0.759924
vt 1.278918 0.636233
vn 0.411222 -0.417688 0.810206
v -0.540328 0.295956 -0.499781
vt 1.130774 0.633571
vn 0.832180 -0.405824 0.377867
v -0.653457 0.004240 -0.185163
vt 0.951613 0.467448
vn 0.996082 -0.001072 0.088432
v -0.584449 0.322125 -0.183187
vt 0.950487 0.648473
vn 0.867056 -0.491285 0.082778
v -0.317665 0.586247 -0.182974
vt 0.950365 0.798882
vn 0.482966 -0.871765 0.082284
v -0.291854 0.542672 -0.499224
vt 1.130457 0.774068
vn 0.398276 -0.836347 0.376696
v 0.003522 0.581850 -0.523718
vt 1.144408 0.796378
vn -0.000775 -0.889957 0.456044
v 0.003556 0.327254 -0.802252
vt 1.303023 0.651394
vn -0.000771 -0.505173 0.863018
v 0.003594 0.653461 -0.184755
vt 0.951380 0.837158
vn -0.000902 -0.996188 0.087227
v 0.003533 -0.580711 -0.524801
vt 1.145025 0.134337
vn -0.000781 0.888387 0.459094
v 0.003563 -0.323656 -0.803003
vt 1.303450 0.280722
vn -0.000786 0.499629 0.866239
v 0.003594 0.004225 -0.878012
vt 1.346167 0.467440
vn -0.000811 -0.000960 0.999999
v 0.303780 -0.300196 0.752333
vt 0.417738 0.294082
vn -0.426716 0.420172 -0.800855
v 0.003586 -0.327814 0.798670
vt 0.391352 0.278354
vn -0.000803 0.510420 -0.859925
v 0.003537 -0.583042 0.510584
vt 0.555407 0.133010
vn -0.000788 0.897785 -0.440433
v 0.296631 -0.541876 0.485827
vt 0.569506 0.156453
vn -0.409336 0.838345 -0.360031
v 0.003602 -0.653621 0.153658
vt 0.758665 0.092818
vn -0.000912 0.996519 -0.083363
v 0.322007 -0.584534 0.151758
vt 0.759745 0.132161
vn -0.491261 0.867516 -0.077961
v 0.586335 -0.317549 0.151564
vt 0.759856 0.284200
vn -0.872218 0.482941 -0.077488
v 0.544213 -0.292520 0.485285
vt 0.569815 0.298453
vn -0.842498 0.401744 -0.358886
v 0.003625 0.004267 0.878016
vt 0.346167 0.467464
vn -0.000843 -0.000992 -0.999999
v 0.331154 0.004221 0.797941
vt 0.391764 0.467437
vn -0.515559 -0.000943 -0.856854
v 0.303475 0.303770 0.751776
vt 0.418055 0.638021
vn -0.425299 -0.425844 -0.798610
v 0.584069 0.004156 0.509604
vt 0.555964 0.467400
vn -0.899152 -0.000928 -0.437636
v 0.543694 0.296051 0.485033
vt 0.569956 0.633625
vn -0.840324 -0.407420 -0.357581
v 0.003583 0.331432 0.797880
vt 0.391802 0.653773
vn -0.000797 -0.515989 -0.856595
v 0.003529 0.584149 0.509524
vt 0.556010 0.797687
vn -0.000783 -0.899264 -0.437406
v 0.295716 0.543886 0.484987
vt 0.569983 0.774759
vn -0.406803 -0.840663 -0.357487
v 0.320813 0.585740 0.151461
vt 0.759917 0.798594
vn -0.488031 -0.869415 -0.077088
v 0.585595 0.321181 0.151476
vt 0.759905 0.647936
vn -0.869030 -0.488712 -0.077124
v 0.003594 0.653621 0.153250
vt 0.758898 0.837250
vn -0.000902 -0.996622 -0.082121
v 0.653618 0.004230 0.153280
vt 0.758879 0.467443
vn -0.996615 -0.001066 -0.082210
v 0.585473 0.321113 -0.182913
vt 0.950331 0.647897
vn -0.868672 -0.488554 0.082000
v 0.320748 0.585620 -0.182894
vt 0.950319 0.798525
vn -0.487869 -0.869061 0.081959
v 0.542054 0.295184 -0.499052
vt 1.130362 0.633131
vn -0.834209 -0.403701 0.375661
v 0.294846 0.542246 -0.499006
vt 1.130335 0.773825
vn -0.403078 -0.834551 0.375570
v 0.003594 0.653461 -0.184755
vt 0.951380 0.837158
vn -0.000902 -0.996188 0.087227
v 0.003522 0.581850 -0.523718
vt 1.144408 0.796378
vn -0.000775 -0.889957 0.456044
v 0.300095 0.300385 -0.759474
vt 1.278662 0.636093
vn -0.415994 -0.416525 0.808366
v 0.003556 0.327254 -0.802252
vt 1.303023 0.651394
vn -0.000771 -0.505173 0.863018
v 0.581765 0.004148 -0.523802
vt 1.144453 0.467396
vn -0.889840 -0.000919 0.456271
v 0.326981 0.004190 -0.802309
vt 1.303057 0.467420
vn -0.504752 -0.000924 0.863264
v 0.003594 0.004225 -0.878012
vt 1.346167 0.467440
vn -0.000811 -0.000960 0.999999
v 0.653458 0.004229 -0.184789
vt 0.951399 0.467442
vn -0.996179 -0.001061 0.087325
v 0.300385 -0.296834 -0.760004
vt 1.278963 0.295996
vn -0.417366 0.410905 0.810532
v 0.542557 -0.291660 -0.499311
vt 1.130507 0.298943
vn -0.836326 0.398043 0.376989
v 0.295754 -0.540215 -0.499868
vt 1.130827 0.157399
vn -0.405582 0.832165 0.378158
v 0.003533 -0.580711 -0.524801
vt 1.145025 0.134337
vn -0.000781 0.888387 0.459094
v 0.003563 -0.323656 -0.803003
vt 1.303450 0.280722
vn -0.000786 0.499629 0.866239
v 0.586213 -0.317483 -0.183004
vt 0.950381 0.284238
vn -0.871857 0.482782 0.082380
v 0.321938 -0.584412 -0.183218
vt 0.950503 0.132230
vn -0.491092 0.867156 0.082875
v 0.003602 -0.653456 -0.185194
vt 0.951628 0.092912
vn -0.000909 0.996073 0.088531
v -0.304481 -0.172510 0.130057
vt -0.678999 0.331829
vn 0.886715 0.458809 -0.056837
v -0.163993 -0.277548 0.368727
vt -0.814913 0.272013
vn 0.387623 0.871031 -0.301751
v -0.277641 -0.163821 0.368727
vt -0.814913 0.336776
vn 0.871442 0.386780 -0.301646
v -0.172676 -0.304437 0.130057
vt -0.678999 0.256700
vn 0.459730 0.886236 -0.056875
v -0.163467 -0.163294 0.501776
vt -0.890681 0.337077
vn 0.408441 0.407687 -0.816680
v -0.337211 0.003488 0.129912
vt -0.678915 0.432054
vn 0.997947 0.000022 -0.064044
v -0.295268 0.003508 0.377047
vt -0.819651 0.432065
vn 0.928739 0.000037 -0.370733
v -0.277641 0.166071 0.368727
vt -0.814913 0.524639
vn 0.868694 -0.394182 -0.299985
v -0.163467 0.165545 0.501776
vt -0.890681 0.524340
vn 0.406071 -0.415521 -0.813909
v -0.171020 0.003510 0.522917
vt -0.902720 0.432066
vn 0.497244 0.000048 -0.867611
v -0.304481 0.174699 0.130057
vt -0.678999 0.529553
vn 0.882756 -0.466422 -0.056499
v -0.172676 0.304995 0.130057
vt -0.678999 0.603752
vn 0.455040 -0.888704 -0.056064
v -0.163993 0.278734 0.368727
vt -0.814913 0.588797
vn 0.383764 -0.873753 -0.298798
v 0.002961 0.337183 0.129912
vt -0.678915 0.622082
vn 0.000019 -0.998016 -0.062967
v 0.002980 0.295839 0.377047
vt -0.819651 0.598538
vn 0.000026 -0.930146 -0.367190
v 0.002980 0.173082 0.522917
vt -0.902720 0.528632
vn 0.000037 -0.504546 -0.863385
v 0.002965 0.003491 0.560713
vt -0.924246 0.432055
vn 0.000071 0.000083 -1.000000
v 0.002980 -0.170849 0.522917
vt -0.902720 0.332775
vn 0.000041 0.496657 -0.867947
v 0.002980 -0.295222 0.377047
vt -0.819651 0.261948
vn 0.000030 0.928624 -0.371023
v 0.002961 -0.337213 0.129912
vt -0.678915 0.238035
vn 0.000018 0.997941 -0.064134
v 0.002961 -0.337213 -0.159345
vt -0.514193 0.238035
vn 0.000019 0.997787 0.066491
v -0.172676 -0.304437 -0.159551
vt -0.514078 0.256700
vn 0.460086 0.885915 0.058955
v -0.163993 -0.277548 -0.378145
vt -0.389597 0.272013
vn 0.383255 0.865370 0.322878
v -0.304481 -0.172510 -0.159551
vt -0.514078 0.331829
vn 0.886394 0.459168 0.058917
v -0.277641 -0.163821 -0.378145
vt -0.389597 0.336776
vn 0.865782 0.382415 0.322770
v -0.163467 -0.163294 -0.505808
vt -0.316897 0.337077
vn 0.394649 0.393913 0.830111
v -0.295268 0.003508 -0.386347
vt -0.384924 0.432065
vn 0.919233 0.000039 0.393715
v -0.171020 0.003510 -0.524923
vt -0.306010 0.432066
vn 0.479906 0.000047 0.877320
v -0.163467 0.165545 -0.505808
vt -0.316897 0.524340
vn 0.392409 -0.401577 0.827497
v -0.277641 0.166071 -0.378145
vt -0.389597 0.524639
vn 0.863134 -0.389787 0.321038
v -0.337211 0.003488 -0.159345
vt -0.514193 0.432054
vn 0.997793 0.000022 0.066399
v -0.304481 0.174699 -0.159551
vt -0.514078 0.529553
vn 0.882431 -0.466783 0.058566
v -0.172676 0.304995 -0.159551
vt -0.514078 0.603752
vn 0.455393 -0.888392 0.058118
v -0.163993 0.278734 -0.378145
vt -0.389597 0.588797
vn 0.379462 -0.868193 0.319764
v 0.002980 0.295839 -0.386347
vt -0.384924 0.598538
vn 0.000027 -0.920801 0.390033
v 0.002980 0.173082 -0.524923
vt -0.306010 0.528632
vn 0.000038 -0.487120 0.873335
v 0.002961 0.337183 -0.159345
vt -0.514193 0.622082
vn 0.000018 -0.997867 0.065286
v 0.002980 -0.295222 -0.386347
vt -0.384924 0.261948
vn 0.000034 0.919103 0.394018
v 0.002980 -0.170849 -0.524923
vt -0.306010 0.332775
vn 0.000038 0.479334 0.877633
v 0.002965 0.003491 -0.560713
vt -0.285628 0.432055
vn 0.000061 0.000072 1.000000
v 0.165375 -0.163294 0.501776
vt -0.890681 0.337077
vn -0.415094 0.405671 -0.814327
v 0.002980 -0.170849 0.522917
vt -0.902720 0.332775
vn 0.000041 0.496657 -0.867947
v 0.002980 -0.295222 0.377047
vt -0.819651 0.261948
vn 0.000030 0.928624 -0.371023
v 0.165902 -0.277548 0.368727
vt -0.814913 0.272013
vn -0.393907 0.868698 -0.300335
v 0.002961 -0.337213 0.129912
vt -0.678915 0.238035
vn 0.000018 0.997941 -0.064134
v 0.174534 -0.304437 0.130057
vt -0.678999 0.256700
vn -0.466192 0.882872 -0.056586
v 0.304955 -0.172510 0.130057
vt -0.678999 0.331829
vn -0.888810 0.454823 -0.056149
v 0.278649 -0.163821 0.368727
vt -0.814913 0.336776
vn -0.873748 0.383504 -0.299146
v 0.002965 0.003491 0.560713
vt -0.924246 0.432055
vn 0.000071 0.000083 -1.000000
v 0.172913 0.003510 0.522917
vt -0.902720 0.432066
vn -0.503942 0.000048 -0.863738
v 0.165375 0.165545 0.501776
vt -0.890681 0.524340
vn -0.412716 -0.413490 -0.811598
v 0.295792 0.003508 0.377047
vt -0.819651 0.432065
vn -0.930029 0.000036 -0.367487
v 0.278649 0.166071 0.368727
vt -0.814913 0.524639
vn -0.871042 -0.390864 -0.297509
v 0.002980 0.173082 0.522917
vt -0.902720 0.528632
vn 0.000037 -0.504546 -0.863385
v 0.002980 0.295839 0.377047
vt -0.819651 0.598538
vn 0.000026 -0.930146 -0.367190
v 0.165902 0.278734 0.368727
vt -0.814913 0.588797
vn -0.390007 -0.871459 -0.297410
v 0.174534 0.304995 0.130057
vt -0.678999 0.603752
vn -0.461468 -0.885401 -0.055784
v 0.304955 0.174699 0.130057
vt -0.678999 0.529553
vn -0.884906 -0.462412 -0.055821
v 0.002961 0.337183 0.129912
vt -0.678915 0.622082
vn 0.000019 -0.998016 -0.062967
v 0.337185 0.003488 0.129912
vt -0.678915 0.432054
vn -0.998010 0.000021 -0.063054
v 0.304955 0.174699 -0.159551
vt -0.514078 0.529553
vn -0.884587 -0.462771 0.057865
v 0.174534 0.304995 -0.159551
vt -0.514078 0.603752
vn -0.461827 -0.885083 0.057828
v 0.278649 0.166071 -0.378145
vt -0.389597 0.524639
vn -0.865562 -0.386536 0.318420
v 0.165902 0.278734 -0.378145
vt -0.389597 0.588797
vn -0.385688 -0.865978 0.318320
v 0.002961 0.337183 -0.159345
vt -0.514193 0.622082
vn 0.000018 -0.997867 0.065286
v 0.002980 0.295839 -0.386347
vt -0.384924 0.598538
vn 0.000027 -0.920801 0.390033
v 0.165375 0.165545 -0.505808
vt -0.316897 0.524340
vn -0.398912 -0.399668 0.825309
v 0.002980 0.173082 -0.524923
vt -0.306010 0.528632
vn 0.000038 -0.487120 0.873335
v 0.295792 0.003508 -0.386347
vt -0.384924 0.432065
vn -0.920672 0.000034 0.390337
v 0.172913 0.003510 -0.524923
vt -0.306010 0.432066
vn -0.486519 0.000041 0.873670
v 0.002965 0.003491 -0.560713
vt -0.285628 0.432055
vn 0.000061 0.000072 1.000000
v 0.337185 0.003488 -0.159345
vt -0.514193 0.432054
vn -0.997861 0.000021 0.065376
v 0.165375 -0.163294 -0.505808
vt -0.316897 0.337077
vn -0.401153 0.392018 0.827888
v 0.278649 -0.163821 -0.378145
vt -0.389597 0.336776
vn -0.868167 0.379212 0.320131
v 0.165902 -0.277548 -0.378145
vt -0.389597 0.272013
vn -0.389515 0.863119 0.321408
v 0.002980 -0.295222 -0.386347
vt -0.384924 0.261948
vn 0.000034 0.919103 0.394018
v 0.002980 -0.170849 -0.524923
vt -0.306010 0.332775
vn 0.000038 0.479334 0.877633
v 0.304955 -0.172510 -0.159551
vt -0.514078 0.331829
vn -0.888494 0.455183 0.058206
v 0.174534 -0.304437 -0.159551
vt -0.514078 0.256700
vn -0.466552 0.882547 0.058657
v 0.002961 -0.337213 -0.159345
vt -0.514193 0.238035
vn 0.000019 0.997787 0.066491
# Faces (1 to 160)
g Flame_2_0
f -158/-158/-158 -159/-159/-159 -160/-160/-160
f -157/-157/-157 -159/-159/-159 -158/-158/-158
f -160/-160/-160 -156/-156/-156 -158/-158/-158
f -160/-160/-160 -159/-159/-159 -155/-155/-155
f -155/-155/-155 -154/-154/-154 -160/-160/-160
f -156/-156/-156 -160/-160/-160 -154/-154/-154
f -154/-154/-154 -155/-155/-155 -153/-153/-153
f -154/-154/-154 -153/-153/-153 -152/-152/-152
f -151/-151/-151 -154/-154/-154 -152/-152/-152
f -154/-154/-154 -151/-151/-151 -156/-156/-156
f -155/-155/-155 -150/-150/-150 -153/-153/-153
f -150/-150/-150 -149/-149/-149 -153/-153/-153
f -153/-153/-153 -149/-149/-149 -148/-148/-148
f -148/-148/-148 -152/-152/-152 -153/-153/-153
f -149/-149/-149 -147/-147/-147 -148/-148/-148
f -148/-148/-148 -147/-147/-147 -146/-146/-146
f -152/-152/-152 -148/-148/-148 -146/-146/-146
f -146/-146/-146 -145/-145/-145 -152/-152/-152
f -152/-152/-152 -145/-145/-145 -144/-144/-144
f -144/-144/-144 -151/-151/-151 -152/-152/-152
f -151/-151/-151 -144/-144/-144 -156/-156/-156
f -156/-156/-156 -144/-144/-144 -143/-143/-143
f -142/-142/-142 -156/-156/-156 -143/-143/-143
f -142/-142/-142 -158/-158/-158 -156/-156/-156
f -158/-158/-158 -142/-142/-142 -141/-141/-141
f -141/-141/-141 -157/-157/-157 -158/-158/-158
f -140/-140/-140 -157/-157/-157 -141/-141/-141
f -141/-141/-141 -139/-139/-139 -140/-140/-140
f -138/-138/-138 -140/-140/-140 -139/-139/-139
f -137/-137/-137 -140/-140/-140 -138/-138/-138
f -138/-138/-138 -136/-136/-136 -137/-137/-137
f -138/-138/-138 -135/-135/-135 -136/-136/-136
f -135/-135/-135 -134/-134/-134 -136/-136/-136
f -135/-135/-135 -133/-133/-133 -134/-134/-134
f -134/-134/-134 -133/-133/-133 -132/-132/-132
f -132/-132/-132 -131/-131/-131 -134/-134/-134
f -130/-130/-130 -134/-134/-134 -131/-131/-131
f -137/-137/-137 -136/-136/-136 -130/-130/-130
f -136/-136/-136 -134/-134/-134 -130/-130/-130
f -131/-131/-131 -129/-129/-129 -130/-130/-130
f -128/-128/-128 -129/-129/-129 -131/-131/-131
f -131/-131/-131 -127/-127/-127 -128/-128/-128
f -132/-132/-132 -127/-127/-127 -131/-131/-131
f -127/-127/-127 -132/-132/-132 -126/-126/-126
f -132/-132/-132 -125/-125/-125 -126/-126/-126
f -127/-127/-127 -126/-126/-126 -124/-124/-124
f -124/-124/-124 -128/-128/-128 -127/-127/-127
f -139/-139/-139 -123/-123/-123 -138/-138/-138
f -135/-135/-135 -138/-138/-138 -123/-123/-123
f -123/-123/-123 -122/-122/-122 -135/-135/-135
f -135/-135/-135 -122/-122/-122 -121/-121/-121
f -121/-121/-121 -133/-133/-133 -135/-135/-135
f -132/-132/-132 -121/-121/-121 -125/-125/-125
f -133/-133/-133 -121/-121/-121 -132/-132/-132
f -155/-155/-155 -130/-130/-130 -129/-129/-129
f -137/-137/-137 -130/-130/-130 -155/-155/-155
f -155/-155/-155 -159/-159/-159 -137/-137/-137
f -140/-140/-140 -137/-137/-137 -159/-159/-159
f -159/-159/-159 -157/-157/-157 -140/-140/-140
f -128/-128/-128 -124/-124/-124 -147/-147/-147
f -147/-147/-147 -149/-149/-149 -128/-128/-128
f -129/-129/-129 -128/-128/-128 -149/-149/-149
f -129/-129/-129 -150/-150/-150 -155/-155/-155
f -149/-149/-149 -150/-150/-150 -129/-129/-129
f -118/-118/-118 -119/-119/-119 -120/-120/-120
f -120/-120/-120 -117/-117/-117 -118/-118/-118
f -116/-116/-116 -118/-118/-118 -117/-117/-117
f -117/-117/-117 -115/-115/-115 -116/-116/-116
f -114/-114/-114 -115/-115/-115 -117/-117/-117
f -117/-117/-117 -113/-113/-113 -114/-114/-114
f -117/-117/-117 -120/-120/-120 -113/-113/-113
f -120/-120/-120 -119/-119/-119 -112/-112/-112
f -112/-112/-112 -111/-111/-111 -120/-120/-120
f -112/-112/-112 -110/-110/-110 -111/-111/-111
f -109/-109/-109 -111/-111/-111 -110/-110/-110
f -109/-109/-109 -120/-120/-120 -111/-111/-111
f -109/-109/-109 -113/-113/-113 -120/-120/-120
f -110/-110/-110 -108/-108/-108 -109/-109/-109
f -107/-107/-107 -110/-110/-110 -112/-112/-112
f -107/-107/-107 -106/-106/-106 -110/-110/-110
f -106/-106/-106 -105/-105/-105 -110/-110/-110
f -108/-108/-108 -110/-110/-110 -105/-105/-105
f -108/-108/-108 -105/-105/-105 -104/-104/-104
f -104/-104/-104 -103/-103/-103 -108/-108/-108
f -102/-102/-102 -104/-104/-104 -105/-105/-105
f -105/-105/-105 -106/-106/-106 -102/-102/-102
f -101/-101/-101 -109/-109/-109 -108/-108/-108
f -108/-108/-108 -103/-103/-103 -101/-101/-101
f -101/-101/-101 -113/-113/-113 -109/-109/-109
f -101/-101/-101 -114/-114/-114 -113/-113/-113
f -100/-100/-100 -103/-103/-103 -104/-104/-104
f -101/-101/-101 -103/-103/-103 -100/-100/-100
f -104/-104/-104 -99/-99/-99 -100/-100/-100
f -102/-102/-102 -99/-99/-99 -104/-104/-104
f -98/-98/-98 -100/-100/-100 -99/-99/-99
f -99/-99/-99 -97/-97/-97 -98/-98/-98
f -96/-96/-96 -97/-97/-97 -99/-99/-99
f -96/-96/-96 -99/-99/-99 -102/-102/-102
f -95/-95/-95 -97/-97/-97 -96/-96/-96
f -94/-94/-94 -97/-97/-97 -95/-95/-95
f -98/-98/-98 -97/-97/-97 -94/-94/-94
f -95/-95/-95 -93/-93/-93 -94/-94/-94
f -98/-98/-98 -94/-94/-94 -92/-92/-92
f -94/-94/-94 -91/-91/-91 -92/-92/-92
f -93/-93/-93 -90/-90/-90 -94/-94/-94
f -90/-90/-90 -91/-91/-91 -94/-94/-94
f -98/-98/-98 -89/-89/-89 -100/-100/-100
f -98/-98/-98 -92/-92/-92 -89/-89/-89
f -100/-100/-100 -89/-89/-89 -101/-101/-101
f -92/-92/-92 -91/-91/-91 -88/-88/-88
f -90/-90/-90 -88/-88/-88 -91/-91/-91
f -88/-88/-88 -87/-87/-87 -92/-92/-92
f -89/-89/-89 -92/-92/-92 -87/-87/-87
f -87/-87/-87 -88/-88/-88 -86/-86/-86
f -88/-88/-88 -85/-85/-85 -86/-86/-86
f -88/-88/-88 -84/-84/-84 -85/-85/-85
f -84/-84/-84 -88/-88/-88 -90/-90/-90
f -83/-83/-83 -87/-87/-87 -86/-86/-86
f -87/-87/-87 -83/-83/-83 -89/-89/-89
f -86/-86/-86 -82/-82/-82 -83/-83/-83
f -86/-86/-86 -85/-85/-85 -81/-81/-81
f -81/-81/-81 -82/-82/-82 -86/-86/-86
f -101/-101/-101 -89/-89/-89 -83/-83/-83
f -83/-83/-83 -114/-114/-114 -101/-101/-101
f -114/-114/-114 -83/-83/-83 -82/-82/-82
f -82/-82/-82 -115/-115/-115 -114/-114/-114
f -82/-82/-82 -81/-81/-81 -116/-116/-116
f -116/-116/-116 -115/-115/-115 -82/-82/-82
f -78/-78/-78 -79/-79/-79 -80/-80/-80
f -77/-77/-77 -80/-80/-80 -79/-79/-79
f -78/-78/-78 -76/-76/-76 -79/-79/-79
f -78/-78/-78 -80/-80/-80 -75/-75/-75
f -75/-75/-75 -74/-74/-74 -78/-78/-78
f -76/-76/-76 -78/-78/-78 -74/-74/-74
f -74/-74/-74 -75/-75/-75 -73/-73/-73
f -74/-74/-74 -73/-73/-73 -72/-72/-72
f -71/-71/-71 -74/-74/-74 -72/-72/-72
f -74/-74/-74 -71/-71/-71 -76/-76/-76
f -75/-75/-75 -70/-70/-70 -73/-73/-73
f -70/-70/-70 -69/-69/-69 -73/-73/-73
f -68/-68/-68 -73/-73/-73 -69/-69/-69
f -68/-68/-68 -72/-72/-72 -73/-73/-73
f -69/-69/-69 -67/-67/-67 -68/-68/-68
f -68/-68/-68 -67/-67/-67 -66/-66/-66
f -72/-72/-72 -68/-68/-68 -66/-66/-66
f -66/-66/-66 -65/-65/-65 -72/-72/-72
f -72/-72/-72 -65/-65/-65 -64/-64/-64
f -64/-64/-64 -71/-71/-71 -72/-72/-72
f -71/-71/-71 -64/-64/-64 -76/-76/-76
f -76/-76/-76 -64/-64/-64 -63/-63/-63
f -62/-62/-62 -76/-76/-76 -63/-63/-63
f -62/-62/-62 -79/-79/-79 -76/-76/-76
f -79/-79/-79 -62/-62/-62 -61/-61/-61
f -61/-61/-61 -77/-77/-77 -79/-79/-79
f -77/-77/-77 -61/-61/-61 -60/-60/-60
f -60/-60/-60 -59/-59/-59 -77/-77/-77
f -58/-58/-58 -59/-59/-59 -60/-60/-60
f -57/-57/-57 -59/-59/-59 -58/-58/-58
f -77/-77/-77 -59/-59/-59 -57/-57/-57
f -58/-58/-58 -56/-56/-56 -57/-57/-57
f -58/-58/-58 -55/-55/-55 -56/-56/-56
f -55/-55/-55 -54/-54/-54 -56/-56/-56
f -55/-55/-55 -53/-53/-53 -54/-54/-54
f -54/-54/-54 -53/-53/-53 -52/-52/-52
f -52/-52/-52 -51/-51/-51 -54/-54/-54
f -50/-50/-50 -54/-54/-54 -51/-51/-51
f -57/-57/-57 -56/-56/-56 -50/-50/-50
f -56/-56/-56 -54/-54/-54 -50/-50/-50
f -51/-51/-51 -49/-49/-49 -50/-50/-50
f -48/-48/-48 -49/-49/-49 -51/-51/-51
f -51/-51/-51 -47/-47/-47 -48/-48/-48
f -52/-52/-52 -47/-47/-47 -51/-51/-51
f -47/-47/-47 -52/-52/-52 -46/-46/-46
f -52/-52/-52 -45/-45/-45 -46/-46/-46
f -47/-47/-47 -46/-46/-46 -44/-44/-44
f -44/-44/-44 -48/-48/-48 -47/-47/-47
f -55/-55/-55 -58/-58/-58 -43/-43/-43
f -60/-60/-60 -43/-43/-43 -58/-58/-58
f -43/-43/-43 -42/-42/-42 -55/-55/-55
f -55/-55/-55 -42/-42/-42 -41/-41/-41
f -41/-41/-41 -53/-53/-53 -55/-55/-55
f -52/-52/-52 -41/-41/-41 -45/-45/-45
f -53/-53/-53 -41/-41/-41 -52/-52/-52
f -50/-50/-50 -49/-49/-49 -70/-70/-70
f -70/-70/-70 -49/-49/-49 -48/-48/-48
f -70/-70/-70 -75/-75/-75 -50/-50/-50
f -50/-50/-50 -75/-75/-75 -80/-80/-80
f -80/-80/-80 -57/-57/-57 -50/-50/-50
f -57/-57/-57 -80/-80/-80 -77/-77/-77
f -48/-48/-48 -69/-69/-69 -70/-70/-70
f -48/-48/-48 -44/-44/-44 -69/-69/-69
f -69/-69/-69 -44/-44/-44 -67/-67/-67
f -38/-38/-38 -39/-39/-39 -40/-40/-40
f -40/-40/-40 -37/-37/-37 -38/-38/-38
f -36/-36/-36 -38/-38/-38 -37/-37/-37
f -37/-37/-37 -35/-35/-35 -36/-36/-36
f -34/-34/-34 -35/-35/-35 -37/-37/-37
f -37/-37/-37 -33/-33/-33 -34/-34/-34
f -37/-37/-37 -40/-40/-40 -33/-33/-33
f -40/-40/-40 -39/-39/-39 -32/-32/-32
f -32/-32/-32 -31/-31/-31 -40/-40/-40
f -32/-32/-32 -30/-30/-30 -31/-31/-31
f -29/-29/-29 -31/-31/-31 -30/-30/-30
f -29/-29/-29 -40/-40/-40 -31/-31/-31
f -29/-29/-29 -33/-33/-33 -40/-40/-40
f -30/-30/-30 -28/-28/-28 -29/-29/-29
f -27/-27/-27 -30/-30/-30 -32/-32/-32
f -27/-27/-27 -26/-26/-26 -30/-30/-30
f -26/-26/-26 -25/-25/-25 -30/-30/-30
f -28/-28/-28 -30/-30/-30 -25/-25/-25
f -28/-28/-28 -25/-25/-25 -24/-24/-24
f -24/-24/-24 -23/-23/-23 -28/-28/-28
f -22/-22/-22 -24/-24/-24 -25/-25/-25
f -25/-25/-25 -26/-26/-26 -22/-22/-22
f -21/-21/-21 -29/-29/-29 -28/-28/-28
f -28/-28/-28 -23/-23/-23 -21/-21/-21
f -21/-21/-21 -33/-33/-33 -29/-29/-29
f -21/-21/-21 -34/-34/-34 -33/-33/-33
f -20/-20/-20 -23/-23/-23 -24/-24/-24
f -24/-24/-24 -19/-19/-19 -20/-20/-20
f -18/-18/-18 -20/-20/-20 -19/-19/-19
f -19/-19/-19 -17/-17/-17 -18/-18/-18
f -16/-16/-16 -17/-17/-17 -19/-19/-19
f -16/-16/-16 -19/-19/-19 -24/-24/-24
f -24/-24/-24 -22/-22/-22 -16/-16/-16
f -15/-15/-15 -17/-17/-17 -16/-16/-16
f -14/-14/-14 -17/-17/-17 -15/-15/-15
f -18/-18/-18 -17/-17/-17 -14/-14/-14
f -15/-15/-15 -13/-13/-13 -14/-14/-14
f -18/-18/-18 -14/-14/-14 -12/-12/-12
f -14/-14/-14 -11/-11/-11 -12/-12/-12
f -13/-13/-13 -10/-10/-10 -14/-14/-14
f -10/-10/-10 -11/-11/-11 -14/-14/-14
f -9/-9/-9 -20/-20/-20 -18/-18/-18
f -18/-18/-18 -12/-12/-12 -9/-9/-9
f -9/-9/-9 -21/-21/-21 -23/-23/-23
f -23/-23/-23 -20/-20/-20 -9/-9/-9
f -12/-12/-12 -11/-11/-11 -8/-8/-8
f -10/-10/-10 -8/-8/-8 -11/-11/-11
f -8/-8/-8 -7/-7/-7 -12/-12/-12
f -9/-9/-9 -12/-12/-12 -7/-7/-7
f -7/-7/-7 -8/-8/-8 -6/-6/-6
f -8/-8/-8 -5/-5/-5 -6/-6/-6
f -8/-8/-8 -4/-4/-4 -5/-5/-5
f -4/-4/-4 -8/-8/-8 -10/-10/-10
f -3/-3/-3 -7/-7/-7 -6/-6/-6
f -7/-7/-7 -3/-3/-3 -9/-9/-9
f -6/-6/-6 -2/-2/-2 -3/-3/-3
f -6/-6/-6 -5/-5/-5 -1/-1/-1
f -1/-1/-1 -2/-2/-2 -6/-6/-6
f -9/-9/-9 -3/-3/-3 -34/-34/-34
f -34/-34/-34 -3/-3/-3 -2/-2/-2
f -34/-34/-34 -21/-21/-21 -9/-9/-9
f -2/-2/-2 -35/-35/-35 -34/-34/-34
f -35/-35/-35 -2/-2/-2 -1/-1/-1
f -1/-1/-1 -36/-36/-36 -35/-35/-35

