# Mesh "House_Shed_Pillaged" exported with Unity Assets Bundle Extractor; 120 vertices, 216 indices, 384 bits per vertex
g House_Shed_Pillaged
# SubMesh 0
# Vertices
v -0.231625 -0.000000 -0.173370
vt 0.677020 0.000000
vn -0.997853 0.046222 0.046405
v -0.206413 0.488932 -0.145355
vt 0.649125 0.686618
vn -0.997853 0.046222 0.046405
v -0.187622 0.492922 0.281830
vt 0.223777 0.676176
vn -0.997853 0.046222 0.046405
v -0.208958 -0.000000 0.286942
vt 0.218685 0.000000
vn -0.997853 0.046222 0.046405
v 0.208179 -0.000000 0.280426
vt 0.225175 0.000000
vn 0.998980 -0.003445 0.045021
v 0.222477 0.325056 -0.006927
vt 0.511291 0.412704
vn 0.998860 -0.000589 0.047740
v 0.224655 0.323040 -0.062622
vt 0.566747 0.411834
vn 0.999119 -0.001977 -0.041922
v 0.218307 -0.000000 -0.174408
vt 0.678051 0.000000
vn 0.999743 -0.020321 0.010059
v 0.218998 0.401153 -0.005554
vt 0.509926 0.525022
vn 0.995793 0.075184 0.052378
v 0.198734 0.494801 0.272461
vt 0.233105 0.673927
vn 0.997172 0.035089 0.066453
v 0.201355 0.490656 -0.147583
vt 0.651341 0.677448
vn 0.988411 0.115952 -0.097974
v 0.220421 0.400797 -0.058487
vt 0.562629 0.525310
vn 0.988405 0.117636 -0.096002
v -0.231625 -0.000000 -0.173370
vt 0.677020 0.000000
vn -0.124986 0.049751 -0.990910
v -0.089882 -0.000000 -0.184605
vt 0.688203 0.141600
vn -0.124986 0.049751 -0.990910
v -0.088886 0.442511 -0.169159
vt 0.672827 0.576922
vn -0.112263 0.076533 -0.990727
v -0.206413 0.488932 -0.145355
vt 0.649125 0.686618
vn -0.125685 0.071552 -0.989487
v -0.006207 0.653622 -0.141968
vt 0.645750 0.759520
vn 0.003563 0.151688 -0.988422
v 0.222477 0.325056 -0.006927
vt 0.511291 0.412704
vn 0.211714 0.977153 -0.018695
v 0.164265 0.336978 -0.018127
vt 0.522445 0.454397
vn 0.211714 0.977153 -0.018695
v 0.164448 0.336834 -0.048538
vt 0.552722 0.454663
vn 0.211714 0.977153 -0.018695
v 0.224655 0.323040 -0.062622
vt 0.566747 0.411834
vn 0.211714 0.977153 -0.018695
v 0.218998 0.401153 -0.005554
vt 0.509926 0.525022
vn 0.212912 0.009813 -0.977022
v 0.163200 0.395852 -0.019135
vt 0.523448 0.492571
vn 0.212912 0.009813 -0.977022
v 0.164265 0.336978 -0.018127
vt 0.522445 0.454397
vn 0.212912 0.009813 -0.977022
v 0.222477 0.325056 -0.006927
vt 0.511291 0.412704
vn 0.212912 0.009813 -0.977022
v 0.218998 0.401153 -0.005554
vt 0.509926 0.525022
vn 0.090819 -0.995843 0.006928
v 0.220421 0.400797 -0.058487
vt 0.562629 0.525310
vn 0.090819 -0.995843 0.006928
v 0.163334 0.395782 -0.047882
vt 0.552068 0.492443
vn 0.090819 -0.995843 0.006928
v 0.163200 0.395852 -0.019135
vt 0.523448 0.492571
vn 0.090819 -0.995843 0.006928
v -0.089882 -0.000000 -0.184605
vt 0.688203 0.141600
vn 0.984913 0.002956 -0.173028
v -0.082577 -0.000000 -0.140770
vt 0.644559 0.178746
vn 0.294203 0.007039 -0.955717
v -0.082943 0.424640 -0.137878
vt 0.641679 0.543472
vn 0.355213 -0.066379 -0.932426
v -0.088886 0.442511 -0.169159
vt 0.672827 0.576922
vn 0.903908 -0.283972 -0.319859
v 0.036957 0.424640 -0.137878
vt 0.641679 0.537125
vn -0.344362 -0.066734 -0.936462
v 0.035229 -0.000000 -0.140770
vt 0.644559 0.175863
vn -0.288698 0.009011 -0.957378
v 0.035229 -0.000000 -0.140770
vt 0.644559 0.175863
vn -0.288698 0.009011 -0.957378
v 0.044308 -0.000000 -0.184605
vt 0.688203 0.137051
vn -0.969776 0.010029 -0.243791
v 0.047050 0.442119 -0.169586
vt 0.673250 0.567068
vn -0.896717 -0.245493 -0.368282
v 0.036957 0.424640 -0.137878
vt 0.641679 0.537125
vn -0.344362 -0.066734 -0.936462
v -0.082943 0.424640 -0.137878
vt 0.641679 0.543472
vn 0.355213 -0.066379 -0.932426
v -0.088886 0.442511 -0.169159
vt 0.672827 0.576922
vn 0.903908 -0.283972 -0.319859
v 0.224655 0.323040 -0.062622
vt 0.566747 0.411834
vn 0.204007 -0.026327 0.978616
v 0.164448 0.336834 -0.048538
vt 0.552722 0.454663
vn 0.204007 -0.026327 0.978616
v 0.163334 0.395782 -0.047882
vt 0.552068 0.492443
vn 0.204007 -0.026327 0.978616
v 0.220421 0.400797 -0.058487
vt 0.562629 0.525310
vn 0.204007 -0.026327 0.978615
v 0.163200 0.395852 -0.019135
vt 0.523448 0.492571
vn 0.999816 0.018469 0.005285
v 0.163334 0.395782 -0.047882
vt 0.552068 0.492443
vn 0.999816 0.018469 0.005285
v 0.164448 0.336834 -0.048538
vt 0.552722 0.454663
vn 0.999816 0.018469 0.005285
v 0.164265 0.336978 -0.018127
vt 0.522445 0.454397
vn 0.999816 0.018469 0.005285
v 0.218307 -0.000000 -0.174408
vt 0.678051 0.000000
vn 0.090779 0.046009 -0.994808
v 0.201355 0.490656 -0.147583
vt 0.651341 0.677448
vn 0.091111 0.061849 -0.993918
v 0.047050 0.442119 -0.169586
vt 0.673250 0.567068
vn 0.081765 0.069213 -0.994245
v 0.044308 -0.000000 -0.184605
vt 0.688203 0.137051
vn 0.090779 0.046009 -0.994808
v -0.006207 0.653622 -0.141968
vt 0.645750 0.759520
vn 0.003563 0.151688 -0.988422
v -0.088886 0.442511 -0.169159
vt 0.672827 0.576922
vn -0.112263 0.076533 -0.990727
v -0.155609 0.170872 -0.082626
vt 0.586665 0.978217
vn -0.012158 0.999926 0.000269
v 0.146023 0.174453 -0.083611
vt 0.587644 0.981783
vn -0.012158 0.999926 0.000269
v 0.144978 0.174453 0.192764
vt 0.312456 0.981783
vn -0.012158 0.999926 0.000269
v -0.142342 0.170872 0.192764
vt 0.312456 0.978217
vn -0.012158 0.999926 0.000269
v -0.208958 -0.000000 0.286942
vt 0.218685 0.000000
vn 0.002892 -0.009741 0.999948
v 0.013847 0.332107 0.290787
vt 0.214858 0.404518
vn -0.006515 -0.003884 0.999971
v 0.064362 0.332753 0.288315
vt 0.217320 0.405996
vn 0.050763 -0.002997 0.998706
v 0.208179 -0.000000 0.280426
vt 0.225175 0.000000
vn 0.030460 -0.013912 0.999439
v 0.063210 0.434808 0.285309
vt 0.220313 0.547068
vn 0.077027 0.059355 0.995261
v 0.198734 0.494801 0.272461
vt 0.233105 0.673927
vn 0.074001 0.058736 0.995527
v -0.187622 0.492922 0.281830
vt 0.223777 0.676176
vn -0.023634 0.046281 0.998649
v -0.004250 0.657005 0.251770
vt 0.253705 0.760005
vn 0.019102 0.162662 0.986497
v 0.015869 0.434259 0.288849
vt 0.216788 0.541726
vn -0.019165 0.049987 0.998566
v 0.063210 0.434808 0.285309
vt 0.220313 0.547068
vn 0.077027 0.059355 0.995261
v -0.187622 0.492922 0.281830
vt 0.223777 0.676176
vn -0.023634 0.046281 0.998649
v 0.015869 0.434259 0.288849
vt 0.216788 0.541726
vn -0.019165 0.049987 0.998566
v 0.013847 0.332107 0.290787
vt 0.214858 0.404518
vn -0.006515 -0.003884 0.999971
v -0.208958 -0.000000 0.286942
vt 0.218685 0.000000
vn 0.002892 -0.009741 0.999948
v 0.013847 0.332107 0.290787
vt 0.214858 0.404518
vn 0.637213 0.420903 0.645601
v 0.039261 0.383478 0.232208
vt 0.273185 0.476233
vn 0.037000 0.016714 0.999175
v 0.064362 0.332753 0.288315
vt 0.217320 0.405996
vn -0.571323 0.465177 0.676166
v 0.015869 0.434259 0.288849
vt 0.216788 0.541726
vn 0.672250 -0.391298 0.628463
v 0.063210 0.434808 0.285309
vt 0.220313 0.547068
vn -0.590408 -0.430679 0.682594
v 0.064362 0.332753 0.288315
vt 0.217320 0.405996
vn -0.571323 0.465177 0.676166
v 0.039261 0.383478 0.232208
vt 0.273185 0.476233
vn 0.037000 0.016714 0.999175
v 0.063210 0.434808 0.285309
vt 0.220313 0.547068
vn -0.590408 -0.430679 0.682594
v -0.004250 0.657005 0.251770
vt 0.253705 0.760005
vn 0.019102 0.162662 0.986497
v 0.198734 0.494801 0.272461
vt 0.233105 0.673927
vn 0.074001 0.058736 0.995527
v 0.063210 0.434808 0.285309
vt 0.220313 0.547068
vn 0.077027 0.059355 0.995261
v -0.206413 0.488932 -0.145355
vt 0.649125 0.686618
vn -0.639296 0.768854 0.012838
v -0.176174 0.514338 -0.101440
vt 0.605397 0.770786
vn -0.639883 0.768344 0.014092
v -0.161121 0.516137 0.211716
vt 0.293588 0.770952
vn -0.653171 0.757170 0.007843
v -0.187622 0.492922 0.281830
vt 0.223777 0.676176
vn -0.658089 0.752940 -0.000945
v -0.005066 0.654463 0.211716
vt 0.293588 0.783710
vn -0.665942 0.745847 -0.015278
v -0.004250 0.657005 0.251770
vt 0.253705 0.760005
vn -0.665942 0.745847 -0.015278
v -0.006207 0.653622 -0.141968
vt 0.645750 0.759520
vn -0.633706 0.773573 0.001039
v -0.005867 0.653146 -0.096512
vt 0.600493 0.783588
vn -0.633706 0.773573 0.001039
v 0.201355 0.490656 -0.147583
vt 0.651341 0.677448
vn 0.621269 0.783583 -0.004653
v 0.166588 0.518771 -0.102554
vt 0.606508 0.771195
vn 0.621250 0.783598 -0.004659
v -0.005867 0.653146 -0.096512
vt 0.600493 0.783588
vn 0.616139 0.787613 -0.006170
v -0.006207 0.653622 -0.141968
vt 0.645750 0.759520
vn 0.616139 0.787613 -0.006170
v 0.198734 0.494801 0.272461
vt 0.233105 0.673927
vn 0.622980 0.782093 -0.015048
v 0.165401 0.521091 0.211716
vt 0.293588 0.771409
vn 0.623397 0.781808 -0.012318
v -0.004250 0.657005 0.251770
vt 0.253705 0.760005
vn 0.621261 0.783173 -0.025976
v -0.005066 0.654463 0.211716
vt 0.293588 0.783710
vn 0.621261 0.783173 -0.025976
v -0.176174 0.514338 -0.101440
vt 0.605397 0.770786
vn 0.997213 0.056986 -0.048159
v -0.155609 0.170872 -0.082626
vt 0.586665 0.978217
vn 0.997213 0.056986 -0.048159
v -0.142342 0.170872 0.192764
vt 0.312456 0.978217
vn 0.997213 0.056986 -0.048159
v -0.161121 0.516137 0.211716
vt 0.293588 0.770952
vn 0.997213 0.056986 -0.048159
v -0.142342 0.170872 0.192764
vt 0.312456 0.978217
vn -0.000759 0.054701 -0.998502
v 0.144978 0.174453 0.192764
vt 0.312456 0.981783
vn -0.000759 0.054701 -0.998502
v 0.165401 0.521091 0.211716
vt 0.293588 0.771409
vn -0.000692 0.049975 -0.998750
v -0.161121 0.516137 0.211716
vt 0.293588 0.770952
vn -0.000690 0.049880 -0.998755
v -0.005066 0.654463 0.211716
vt 0.293588 0.783710
vn 0.000021 0.000000 -1.000000
v -0.176174 0.514338 -0.101440
vt 0.605397 0.770786
vn 0.002682 0.046756 0.998903
v -0.005867 0.653146 -0.096512
vt 0.600493 0.783588
vn 0.003785 -0.040097 0.999189
v 0.166588 0.518771 -0.102554
vt 0.606508 0.771195
vn 0.002684 0.046585 0.998911
v 0.165401 0.521091 0.211716
vt 0.293588 0.771409
vn -0.998237 0.059213 -0.004004
v 0.144978 0.174453 0.192764
vt 0.312456 0.981783
vn -0.998237 0.059213 -0.004004
v 0.146023 0.174453 -0.083611
vt 0.587644 0.981783
vn -0.998237 0.059213 -0.004004
v 0.166588 0.518771 -0.102554
vt 0.606508 0.771195
vn -0.998237 0.059213 -0.004004
v -0.155609 0.170872 -0.082626
vt 0.586665 0.978217
vn 0.002578 0.054816 0.998493
v -0.176174 0.514338 -0.101440
vt 0.605397 0.770786
vn 0.002682 0.046756 0.998903
v 0.166588 0.518771 -0.102554
vt 0.606508 0.771195
vn 0.002684 0.046585 0.998911
v 0.146023 0.174453 -0.083611
vt 0.587644 0.981783
vn 0.002578 0.054816 0.998493
# Faces (1 to 120)
g House_Shed_Pillaged_0
f -118/-118/-118 -119/-119/-119 -120/-120/-120
f -117/-117/-117 -118/-118/-118 -120/-120/-120
f -114/-114/-114 -115/-115/-115 -116/-116/-116
f -113/-113/-113 -114/-114/-114 -116/-116/-116
f -115/-115/-115 -112/-112/-112 -116/-116/-116
f -112/-112/-112 -111/-111/-111 -116/-116/-116
f -110/-110/-110 -111/-111/-111 -112/-112/-112
f -114/-114/-114 -113/-113/-113 -110/-110/-110
f -109/-109/-109 -110/-110/-110 -112/-112/-112
f -109/-109/-109 -114/-114/-114 -110/-110/-110
f -106/-106/-106 -107/-107/-107 -108/-108/-108
f -105/-105/-105 -106/-106/-106 -108/-108/-108
f -106/-106/-106 -105/-105/-105 -104/-104/-104
f -101/-101/-101 -102/-102/-102 -103/-103/-103
f -100/-100/-100 -101/-101/-101 -103/-103/-103
f -97/-97/-97 -98/-98/-98 -99/-99/-99
f -96/-96/-96 -97/-97/-97 -99/-99/-99
f -93/-93/-93 -94/-94/-94 -95/-95/-95
f -92/-92/-92 -93/-93/-93 -95/-95/-95
f -89/-89/-89 -90/-90/-90 -91/-91/-91
f -88/-88/-88 -89/-89/-89 -91/-91/-91
f -90/-90/-90 -89/-89/-89 -87/-87/-87
f -86/-86/-86 -90/-90/-90 -87/-87/-87
f -83/-83/-83 -84/-84/-84 -85/-85/-85
f -82/-82/-82 -83/-83/-83 -85/-85/-85
f -82/-82/-82 -81/-81/-81 -83/-83/-83
f -81/-81/-81 -80/-80/-80 -83/-83/-83
f -77/-77/-77 -78/-78/-78 -79/-79/-79
f -76/-76/-76 -77/-77/-77 -79/-79/-79
f -73/-73/-73 -74/-74/-74 -75/-75/-75
f -72/-72/-72 -73/-73/-73 -75/-75/-75
f -69/-69/-69 -70/-70/-70 -71/-71/-71
f -68/-68/-68 -69/-69/-69 -71/-71/-71
f -70/-70/-70 -69/-69/-69 -67/-67/-67
f -69/-69/-69 -66/-66/-66 -67/-67/-67
f -63/-63/-63 -64/-64/-64 -65/-65/-65
f -62/-62/-62 -63/-63/-63 -65/-65/-65
f -59/-59/-59 -60/-60/-60 -61/-61/-61
f -58/-58/-58 -59/-59/-59 -61/-61/-61
f -57/-57/-57 -59/-59/-59 -58/-58/-58
f -56/-56/-56 -57/-57/-57 -58/-58/-58
f -53/-53/-53 -54/-54/-54 -55/-55/-55
f -53/-53/-53 -52/-52/-52 -54/-54/-54
f -49/-49/-49 -50/-50/-50 -51/-51/-51
f -48/-48/-48 -49/-49/-49 -51/-51/-51
f -45/-45/-45 -46/-46/-46 -47/-47/-47
f -47/-47/-47 -46/-46/-46 -44/-44/-44
f -44/-44/-44 -46/-46/-46 -43/-43/-43
f -40/-40/-40 -41/-41/-41 -42/-42/-42
f -37/-37/-37 -38/-38/-38 -39/-39/-39
f -34/-34/-34 -35/-35/-35 -36/-36/-36
f -33/-33/-33 -34/-34/-34 -36/-36/-36
f -32/-32/-32 -34/-34/-34 -33/-33/-33
f -31/-31/-31 -32/-32/-32 -33/-33/-33
f -36/-36/-36 -35/-35/-35 -30/-30/-30
f -35/-35/-35 -29/-29/-29 -30/-30/-30
f -26/-26/-26 -27/-27/-27 -28/-28/-28
f -25/-25/-25 -26/-26/-26 -28/-28/-28
f -28/-28/-28 -27/-27/-27 -24/-24/-24
f -27/-27/-27 -23/-23/-23 -24/-24/-24
f -24/-24/-24 -23/-23/-23 -22/-22/-22
f -23/-23/-23 -21/-21/-21 -22/-22/-22
f -18/-18/-18 -19/-19/-19 -20/-20/-20
f -17/-17/-17 -18/-18/-18 -20/-20/-20
f -14/-14/-14 -15/-15/-15 -16/-16/-16
f -13/-13/-13 -14/-14/-14 -16/-16/-16
f -13/-13/-13 -12/-12/-12 -14/-14/-14
f -9/-9/-9 -10/-10/-10 -11/-11/-11
f -6/-6/-6 -7/-7/-7 -8/-8/-8
f -5/-5/-5 -6/-6/-6 -8/-8/-8
f -2/-2/-2 -3/-3/-3 -4/-4/-4
f -1/-1/-1 -2/-2/-2 -4/-4/-4

