# Mesh "House_Shed_Intact" exported with Unity Assets Bundle Extractor; 112 vertices, 234 indices, 416 bits per vertex
g House_Shed_Intact
# SubMesh 0
# Vertices
v -0.231625 -0.000000 -0.173367
vt 2.337259 0.347977
vn -0.997852 0.046231 0.046406
v -0.206413 0.488932 -0.145351
vt 2.337259 0.795672
vn -0.997852 0.046231 0.046406
v -0.187622 0.492922 0.281830
vt 3.164914 0.795672
vn -0.997852 0.046231 0.046406
v -0.208958 -0.000000 0.286942
vt 3.164914 0.347977
vn -0.997852 0.046231 0.046406
v 0.208179 -0.000000 0.280422
vt 1.220340 0.347977
vn 0.998980 -0.003445 0.045021
v 0.222477 0.325056 -0.006931
vt 1.459741 0.642380
vn 0.998860 -0.000590 0.047739
v 0.224655 0.323040 -0.062626
vt 1.505513 0.641286
vn 0.999119 -0.001975 -0.041923
v 0.218307 -0.000000 -0.174412
vt 1.586500 0.347977
vn 0.999743 -0.020321 0.010059
v 0.218998 0.401153 -0.005550
vt 1.460606 0.711896
vn 0.995793 0.075182 0.052378
v 0.198734 0.494801 0.272457
vt 1.220340 0.795672
vn 0.997173 0.035089 0.066452
v 0.201355 0.490656 -0.147579
vt 1.586500 0.795672
vn 0.988411 0.115951 -0.097973
v 0.220421 0.400797 -0.058483
vt 1.505530 0.712511
vn 0.988406 0.117638 -0.095999
v -0.231625 -0.000000 -0.173367
vt 2.337259 0.347977
vn -0.125018 0.049755 -0.990906
v -0.089882 -0.000000 -0.184605
vt 2.122974 0.347977
vn -0.125018 0.049755 -0.990906
v -0.088886 0.442511 -0.169155
vt 2.097834 0.664313
vn -0.112295 0.076536 -0.990723
v -0.206413 0.488932 -0.145351
vt 2.337259 0.795672
vn -0.125712 0.071555 -0.989483
v -0.006207 0.653622 -0.141964
vt 1.925375 0.795672
vn 0.003542 0.151688 -0.988422
v 0.047050 0.442119 -0.169582
vt 1.808147 0.657904
vn 0.081739 0.069221 -0.994247
v 0.201355 0.490656 -0.147579
vt 1.586500 0.795672
vn 0.091090 0.061858 -0.993920
v 0.218307 -0.000000 -0.174412
vt 1.586500 0.347977
vn 0.090754 0.046020 -0.994810
v 0.044308 -0.000000 -0.184605
vt 1.782765 0.347977
vn 0.090754 0.046020 -0.994810
v 0.222477 0.325056 -0.006931
vt 0.156250 0.043160
vn 0.282187 0.626293 -0.726724
v 0.053959 0.369296 -0.034245
vt 0.062500 0.043160
vn 0.997188 0.039001 0.063995
v 0.224655 0.323040 -0.062626
vt 0.156250 0.043160
vn 0.284148 0.580437 0.763120
v 0.218998 0.401153 -0.005550
vt 0.156250 0.043160
vn 0.244366 -0.541619 -0.804322
v 0.220421 0.400797 -0.058483
vt 0.156250 0.043160
vn 0.221658 -0.554041 0.802437
v 0.108166 0.585615 0.100735
vt 0.463688 0.900801
vn -0.000000 1.000000 0.000000
v 0.107899 0.585615 0.164555
vt 0.463553 0.868195
vn -0.000000 1.000000 0.000000
v 0.057335 0.585615 0.159405
vt 0.437712 0.870825
vn -0.000000 1.000000 0.000000
v 0.057034 0.585615 0.098862
vt 0.437560 0.901764
vn -0.000000 1.000000 0.000000
v -0.089882 -0.000000 -0.184605
vt 2.122974 0.347977
vn 0.984915 0.002948 -0.173011
v -0.082577 -0.000000 -0.140770
vt 2.055998 0.347977
vn 0.294235 0.007045 -0.955707
v -0.082943 0.424640 -0.137875
vt 2.056157 0.640799
vn 0.355247 -0.066373 -0.932413
v -0.088886 0.442511 -0.169155
vt 2.097834 0.664313
vn 0.903925 -0.283950 -0.319830
v 0.047050 0.442119 -0.169582
vt 1.808147 0.657904
vn -0.896739 -0.245461 -0.368250
v 0.036957 0.424640 -0.137875
vt 1.852794 0.636572
vn -0.344397 -0.066724 -0.936450
v 0.035229 -0.000000 -0.140770
vt 1.851743 0.347977
vn -0.288729 0.009021 -0.957368
v 0.044308 -0.000000 -0.184605
vt 1.782765 0.347977
vn -0.969782 0.010036 -0.243768
v -0.206413 0.488932 -0.145351
vt 0.031887 0.830973
vn -0.650362 0.759564 0.009616
v -0.006207 0.653622 -0.141964
vt 0.031887 0.901698
vn -0.650362 0.759564 0.009616
v -0.004250 0.657005 0.251770
vt 0.183581 0.902390
vn -0.650362 0.759564 0.009616
v -0.187622 0.492922 0.281830
vt 0.183581 0.830973
vn -0.650362 0.759564 0.009616
v -0.208958 -0.000000 0.286942
vt 3.164914 0.347977
vn 0.016522 0.008950 0.999824
v 0.013847 0.332107 0.281548
vt 3.544255 0.646244
vn 0.014991 0.009582 0.999842
v 0.064362 0.332753 0.279079
vt 3.651360 0.647891
vn 0.022281 0.012516 0.999673
v 0.208179 -0.000000 0.280422
vt 3.902008 0.347977
vn 0.020282 0.009499 0.999749
v 0.063210 0.434808 0.276066
vt 3.653129 0.710463
vn 0.019287 0.044272 0.998833
v 0.198734 0.494801 0.272457
vt 3.902008 0.795672
vn 0.013646 0.042543 0.999001
v -0.187622 0.492922 0.281830
vt 3.164914 0.795672
vn 0.018549 0.036571 0.999159
v 0.015869 0.434259 0.279613
vt 3.542481 0.704549
vn 0.020931 0.039510 0.999000
v -0.004250 0.657005 0.251770
vt 3.511620 0.795672
vn 0.027028 0.120160 0.992386
v 0.013847 0.332107 0.281548
vt 0.156250 0.043160
vn 0.855777 0.448956 0.257069
v 0.037926 0.382666 0.113083
vt 0.062500 0.043160
vn 0.030556 0.014066 0.999434
v 0.064362 0.332753 0.279079
vt 0.156250 0.043160
vn -0.829080 0.485161 0.277931
v 0.063210 0.434808 0.276066
vt 0.156250 0.043160
vn -0.840594 -0.464309 0.278960
v 0.015869 0.434259 0.279613
vt 0.156250 0.043160
vn 0.868545 -0.429102 0.247994
v 0.201355 0.490656 -0.147579
vt 0.031887 0.975022
vn 0.619077 0.785302 -0.006662
v 0.143173 0.537771 0.060204
vt 0.103758 0.954469
vn 0.723935 0.689855 -0.004251
v 0.025124 0.631274 0.055870
vt 0.103758 0.912767
vn 0.619400 0.785037 -0.007817
v -0.006207 0.653622 -0.141964
vt 0.031887 0.901698
vn 0.618806 0.785512 -0.007099
v 0.025818 0.632475 0.195648
vt 0.157340 0.913011
vn 0.622847 0.782300 -0.008262
v -0.004250 0.657005 0.251770
vt 0.183581 0.902390
vn 0.623496 0.781789 -0.007698
v 0.142551 0.539191 0.207546
vt 0.157340 0.954249
vn 0.781269 0.624189 -0.002758
v 0.198734 0.494801 0.272457
vt 0.183581 0.975022
vn 0.622588 0.782534 -0.004923
v 0.143173 0.537771 0.060204
vt 0.514513 0.950633
vn 0.097531 0.138354 -0.985569
v 0.129017 0.697718 0.075478
vt 0.520510 0.905459
vn 0.097531 0.138354 -0.985569
v 0.036182 0.697719 0.072071
vt 0.494403 0.900414
vn 0.097531 0.138354 -0.985569
v 0.025124 0.631274 0.055870
vt 0.487429 0.918226
vn 0.097531 0.138354 -0.985569
v 0.025124 0.631274 0.055870
vt 0.475769 0.904120
vn -0.986372 0.164481 0.004106
v 0.036182 0.697719 0.072071
vt 0.494403 0.900414
vn -0.986372 0.164481 0.004106
v 0.036728 0.697719 0.181992
vt 0.495473 0.869942
vn -0.986372 0.164481 0.004106
v 0.025818 0.632475 0.195648
vt 0.477448 0.865620
vn -0.986372 0.164481 0.004106
v 0.025818 0.632475 0.195648
vt 0.488012 0.852661
vn -0.042080 0.131571 0.990413
v 0.036728 0.697719 0.181992
vt 0.495473 0.869942
vn -0.042080 0.131571 0.990413
v 0.128529 0.697718 0.191345
vt 0.521130 0.863184
vn -0.042080 0.131571 0.990413
v 0.142551 0.539191 0.207546
vt 0.512917 0.818484
vn -0.042080 0.131571 0.990413
v 0.142551 0.539191 0.207546
vt 0.578461 0.858618
vn 0.781269 0.624189 -0.002758
v 0.128529 0.697718 0.191345
vt 0.521130 0.863184
vn 0.996101 0.088139 0.003725
v 0.129017 0.697718 0.075478
vt 0.520510 0.905459
vn 0.996101 0.088139 0.003725
v 0.143173 0.537771 0.060204
vt 0.578084 0.911668
vn 0.723935 0.689855 -0.004251
v 0.129017 0.697718 0.075478
vt 0.520510 0.905459
vn -0.000000 1.000000 0.000000
v 0.108166 0.697719 0.100735
vt 0.514465 0.897012
vn -0.000000 1.000000 0.000000
v 0.057034 0.697719 0.098862
vt 0.501107 0.893638
vn -0.000000 1.000000 0.000000
v 0.036182 0.697719 0.072071
vt 0.494403 0.900414
vn -0.000000 1.000000 0.000000
v 0.036182 0.697719 0.072071
vt 0.494403 0.900414
vn -0.000000 1.000000 0.000000
v 0.057034 0.697719 0.098862
vt 0.501107 0.893638
vn -0.000000 1.000000 0.000000
v 0.057335 0.697719 0.159405
vt 0.501606 0.875920
vn -0.000000 1.000000 0.000000
v 0.036728 0.697719 0.181992
vt 0.495473 0.869942
vn -0.000000 1.000000 0.000000
v 0.036728 0.697719 0.181992
vt 0.495473 0.869942
vn -0.000000 1.000000 0.000000
v 0.057335 0.697719 0.159405
vt 0.501606 0.875920
vn -0.000000 1.000000 0.000000
v 0.107899 0.697719 0.164555
vt 0.514676 0.871840
vn -0.000000 1.000000 0.000000
v 0.128529 0.697718 0.191345
vt 0.521130 0.863184
vn -0.000000 1.000000 0.000000
v 0.128529 0.697718 0.191345
vt 0.521130 0.863184
vn -0.000000 1.000000 0.000000
v 0.107899 0.697719 0.164555
vt 0.514676 0.871840
vn -0.000000 1.000000 0.000000
v 0.108166 0.697719 0.100735
vt 0.514465 0.897012
vn -0.000000 1.000000 0.000000
v 0.129017 0.697718 0.075478
vt 0.520510 0.905459
vn -0.000000 1.000000 0.000000
v 0.108166 0.697719 0.100735
vt 0.514465 0.897012
vn -0.036578 0.000000 0.999331
v 0.108166 0.585615 0.100735
vt 0.523418 0.868930
vn -0.036578 0.000000 0.999331
v 0.057034 0.585615 0.098862
vt 0.510407 0.864792
vn -0.036578 0.000000 0.999331
v 0.057034 0.697719 0.098862
vt 0.501107 0.893638
vn -0.036578 0.000000 0.999331
v 0.057034 0.697719 0.098862
vt 0.501107 0.893638
vn 0.999988 0.000000 -0.004978
v 0.057034 0.585615 0.098862
vt 0.534099 0.894483
vn 0.999988 0.000000 -0.004978
v 0.057335 0.585615 0.159405
vt 0.534540 0.876687
vn 0.999988 0.000000 -0.004978
v 0.057335 0.697719 0.159405
vt 0.501606 0.875920
vn 0.999988 0.000000 -0.004978
v 0.057335 0.697719 0.159405
vt 0.501606 0.875920
vn 0.101347 0.000000 -0.994851
v 0.057335 0.585615 0.159405
vt 0.512280 0.904119
vn 0.101347 0.000000 -0.994851
v 0.107899 0.585615 0.164555
vt 0.524936 0.899402
vn 0.101347 0.000000 -0.994851
v 0.107899 0.697719 0.164555
vt 0.514676 0.871840
vn 0.101347 0.000000 -0.994851
v 0.107899 0.697719 0.164555
vt 0.514676 0.871840
vn -0.999991 0.000000 -0.004184
v 0.107899 0.585615 0.164555
vt 0.463553 0.868195
vn -0.999991 0.000000 -0.004184
v 0.108166 0.585615 0.100735
vt 0.463688 0.900801
vn -0.999991 0.000000 -0.004184
v 0.108166 0.697719 0.100735
vt 0.514465 0.897012
vn -0.999991 0.000000 -0.004184
# Faces (1 to 112)
g House_Shed_Intact_0
f -110/-110/-110 -111/-111/-111 -112/-112/-112
f -109/-109/-109 -110/-110/-110 -112/-112/-112
f -106/-106/-106 -107/-107/-107 -108/-108/-108
f -105/-105/-105 -106/-106/-106 -108/-108/-108
f -107/-107/-107 -104/-104/-104 -108/-108/-108
f -104/-104/-104 -103/-103/-103 -108/-108/-108
f -102/-102/-102 -103/-103/-103 -104/-104/-104
f -106/-106/-106 -105/-105/-105 -102/-102/-102
f -101/-101/-101 -102/-102/-102 -104/-104/-104
f -101/-101/-101 -106/-106/-106 -102/-102/-102
f -98/-98/-98 -99/-99/-99 -100/-100/-100
f -97/-97/-97 -98/-98/-98 -100/-100/-100
f -98/-98/-98 -97/-97/-97 -96/-96/-96
f -95/-95/-95 -98/-98/-98 -96/-96/-96
f -94/-94/-94 -95/-95/-95 -96/-96/-96
f -95/-95/-95 -94/-94/-94 -93/-93/-93
f -92/-92/-92 -95/-95/-95 -93/-93/-93
f -89/-89/-89 -90/-90/-90 -91/-91/-91
f -91/-91/-91 -90/-90/-90 -88/-88/-88
f -90/-90/-90 -87/-87/-87 -88/-88/-88
f -87/-87/-87 -90/-90/-90 -89/-89/-89
f -84/-84/-84 -85/-85/-85 -86/-86/-86
f -83/-83/-83 -84/-84/-84 -86/-86/-86
f -80/-80/-80 -81/-81/-81 -82/-82/-82
f -79/-79/-79 -80/-80/-80 -82/-82/-82
f -80/-80/-80 -79/-79/-79 -78/-78/-78
f -77/-77/-77 -80/-80/-80 -78/-78/-78
f -81/-81/-81 -80/-80/-80 -77/-77/-77
f -77/-77/-77 -78/-78/-78 -76/-76/-76
f -76/-76/-76 -81/-81/-81 -77/-77/-77
f -78/-78/-78 -75/-75/-75 -76/-76/-76
f -72/-72/-72 -73/-73/-73 -74/-74/-74
f -71/-71/-71 -72/-72/-72 -74/-74/-74
f -68/-68/-68 -69/-69/-69 -70/-70/-70
f -67/-67/-67 -68/-68/-68 -70/-70/-70
f -66/-66/-66 -68/-68/-68 -67/-67/-67
f -65/-65/-65 -66/-66/-66 -67/-67/-67
f -70/-70/-70 -69/-69/-69 -64/-64/-64
f -69/-69/-69 -63/-63/-63 -64/-64/-64
f -63/-63/-63 -62/-62/-62 -64/-64/-64
f -66/-66/-66 -65/-65/-65 -62/-62/-62
f -63/-63/-63 -66/-66/-66 -62/-62/-62
f -59/-59/-59 -60/-60/-60 -61/-61/-61
f -58/-58/-58 -60/-60/-60 -59/-59/-59
f -57/-57/-57 -60/-60/-60 -58/-58/-58
f -61/-61/-61 -60/-60/-60 -57/-57/-57
f -54/-54/-54 -55/-55/-55 -56/-56/-56
f -53/-53/-53 -54/-54/-54 -56/-56/-56
f -52/-52/-52 -54/-54/-54 -53/-53/-53
f -51/-51/-51 -52/-52/-52 -53/-53/-53
f -50/-50/-50 -52/-52/-52 -51/-51/-51
f -49/-49/-49 -50/-50/-50 -51/-51/-51
f -55/-55/-55 -50/-50/-50 -49/-49/-49
f -56/-56/-56 -55/-55/-55 -49/-49/-49
f -46/-46/-46 -47/-47/-47 -48/-48/-48
f -45/-45/-45 -46/-46/-46 -48/-48/-48
f -42/-42/-42 -43/-43/-43 -44/-44/-44
f -41/-41/-41 -42/-42/-42 -44/-44/-44
f -38/-38/-38 -39/-39/-39 -40/-40/-40
f -37/-37/-37 -38/-38/-38 -40/-40/-40
f -34/-34/-34 -35/-35/-35 -36/-36/-36
f -33/-33/-33 -34/-34/-34 -36/-36/-36
f -30/-30/-30 -31/-31/-31 -32/-32/-32
f -29/-29/-29 -30/-30/-30 -32/-32/-32
f -26/-26/-26 -27/-27/-27 -28/-28/-28
f -25/-25/-25 -26/-26/-26 -28/-28/-28
f -22/-22/-22 -23/-23/-23 -24/-24/-24
f -21/-21/-21 -22/-22/-22 -24/-24/-24
f -18/-18/-18 -19/-19/-19 -20/-20/-20
f -17/-17/-17 -18/-18/-18 -20/-20/-20
f -14/-14/-14 -15/-15/-15 -16/-16/-16
f -13/-13/-13 -14/-14/-14 -16/-16/-16
f -10/-10/-10 -11/-11/-11 -12/-12/-12
f -9/-9/-9 -10/-10/-10 -12/-12/-12
f -6/-6/-6 -7/-7/-7 -8/-8/-8
f -5/-5/-5 -6/-6/-6 -8/-8/-8
f -2/-2/-2 -3/-3/-3 -4/-4/-4
f -1/-1/-1 -2/-2/-2 -4/-4/-4

