# Mesh "Ship_Tiny_Shade" exported with Unity Assets Bundle Extractor; 9 vertices, 18 indices, 384 bits per vertex
g Ship_Tiny_Shade
# SubMesh 0
# Vertices
v 0.144836 0.000000 0.208817
vt 0.672829 0.015519
vn -0.000000 1.000000 0.000000
v -0.144840 0.000000 0.208817
vt 0.672829 0.015519
vn -0.000000 1.000000 0.000000
v -0.169399 0.000000 0.000000
vt 0.000000 0.000000
vn -0.000000 1.000000 0.000000
v 0.169399 0.000000 0.000000
vt 0.000000 0.000000
vn -0.000000 1.000000 0.000000
v -0.065964 0.000000 0.369232
vt 0.862069 0.077604
vn -0.000000 1.000000 0.000000
v 0.065964 0.000000 0.369232
vt 0.862069 0.077604
vn -0.000000 1.000000 0.000000
v -0.124989 0.000000 -0.281738
vt 0.593763 0.007759
vn -0.000000 1.000000 0.000000
v 0.124985 0.000000 -0.281738
vt 0.593763 0.007759
vn -0.000000 1.000000 0.000000
v -0.169399 0.000000 0.000000
vt 0.000000 0.000000
vn -0.000000 1.000000 0.000000
# Faces (1 to 9)
g Ship_Tiny_Shade_0
f -7/-7/-7 -8/-8/-8 -9/-9/-9
f -6/-6/-6 -7/-7/-7 -9/-9/-9
f -8/-8/-8 -5/-5/-5 -9/-9/-9
f -5/-5/-5 -4/-4/-4 -9/-9/-9
f -6/-6/-6 -2/-2/-2 -3/-3/-3
f -1/-1/-1 -6/-6/-6 -3/-3/-3

