# Mesh "Ship_Long_Navigation" exported with Unity Assets Bundle Extractor; 6 vertices, 12 indices, 320 bits per vertex
g Ship_Long_Navigation
# SubMesh 0
# Vertices
v 0.095951 0.128338 -0.259995
vn -0.000000 0.999313 0.037059
v -0.095951 0.128338 -0.259995
vn -0.000000 0.999313 0.037059
v 0.000000 0.187655 -0.608231
vn -0.000000 0.985801 0.167920
v 0.095951 0.128338 0.259995
vn -0.000000 0.999313 -0.037059
v -0.095951 0.128338 0.259995
vn -0.000000 0.999313 -0.037059
v 0.000000 0.187655 0.608231
vn -0.000000 0.985801 -0.167920
# Faces (1 to 6)
g Ship_Long_Navigation_0
f -4//-4 -5//-5 -6//-6
f -3//-3 -6//-6 -5//-5
f -2//-2 -3//-3 -5//-5
f -1//-1 -3//-3 -2//-2

