# Mesh "Ship_Small_Shade" exported with Unity Assets Bundle Extractor; 11 vertices, 24 indices, 384 bits per vertex
g Ship_Small_Shade
# SubMesh 0
# Vertices
v 0.177181 0.000000 0.312050
vt 0.672829 0.015519
vn -0.000000 0.998777 -0.049443
v -0.177181 0.000000 0.312050
vt 0.672829 0.015519
vn -0.000000 0.998777 -0.049444
v -0.207226 0.000000 0.000000
vt 0.000000 0.000000
vn -0.000000 1.000000 0.000000
v 0.207230 0.000000 0.000000
vt 0.000000 0.000000
vn -0.000000 1.000000 0.000000
v -0.080692 0.043851 0.512901
vt 0.862069 0.077604
vn -0.000000 0.978163 -0.207841
v 0.080692 0.043851 0.512901
vt 0.862069 0.077604
vn -0.000000 0.978163 -0.207841
v -0.027382 0.050139 0.573570
vt 0.987397 0.191273
vn -0.000000 0.994671 -0.103098
v 0.027386 0.050139 0.573570
vt 0.987397 0.191273
vn -0.000000 0.994671 -0.103098
v -0.170483 0.000000 -0.431274
vt 0.593763 0.007759
vn -0.000000 1.000000 0.000000
v 0.170483 0.000000 -0.431274
vt 0.593763 0.007759
vn -0.000000 1.000000 0.000000
v -0.207226 0.000000 0.000000
vt 0.000000 0.000000
vn -0.000000 1.000000 0.000000
# Faces (1 to 11)
g Ship_Small_Shade_0
f -9/-9/-9 -10/-10/-10 -11/-11/-11
f -8/-8/-8 -9/-9/-9 -11/-11/-11
f -10/-10/-10 -7/-7/-7 -11/-11/-11
f -7/-7/-7 -6/-6/-6 -11/-11/-11
f -7/-7/-7 -5/-5/-5 -6/-6/-6
f -5/-5/-5 -4/-4/-4 -6/-6/-6
f -8/-8/-8 -2/-2/-2 -3/-3/-3
f -1/-1/-1 -8/-8/-8 -3/-3/-3

