# Mesh "Ship_Small_Body" exported with Unity Assets Bundle Extractor; 160 vertices, 384 indices, 384 bits per vertex
g Ship_Small_Body
# SubMesh 0
# Vertices
v 0.115295 0.007114 0.236198
vt 0.300479 0.638187
vn 0.920152 -0.357346 0.160076
v 0.078674 0.035862 0.394165
vt 0.325839 0.777563
vn 0.872416 -0.313637 0.374863
v 0.105949 0.121643 0.401787
vt 0.401524 0.784288
vn 0.862304 -0.304773 0.404407
v 0.154263 0.101663 0.234009
vt 0.383898 0.636253
vn 0.920349 -0.357553 0.158473
v 0.134838 0.004524 0.000000
vt 0.298190 0.429784
vn 0.930755 -0.365361 0.014389
v 0.171421 0.100382 0.000000
vt 0.382766 0.429784
vn 0.930777 -0.365333 0.013656
v 0.033707 0.151177 0.504013
vt 0.427566 0.873996
vn 0.780739 -0.243659 0.575393
v 0.033707 0.070991 0.478363
vt 0.356837 0.851852
vn 0.780739 -0.243659 0.575393
v 0.162323 0.105012 -0.234009
vt 0.386853 0.223315
vn 0.934246 -0.344043 -0.093908
v 0.123356 0.007114 -0.236198
vt 0.300479 0.221382
vn 0.934237 -0.344124 -0.093702
v 0.133419 0.124239 -0.414070
vt 0.404563 0.064386
vn 0.934959 -0.318281 -0.156678
v 0.106144 0.024866 -0.406448
vt 0.315396 0.071225
vn 0.934959 -0.318281 -0.156678
v 0.028721 -0.064406 0.175194
vt -0.921971 0.602460
vn 0.577572 -0.813228 0.071205
v 0.115295 0.007114 0.236198
vt -0.997571 0.655731
vn 0.587138 -0.798924 0.130344
v 0.134838 0.004524 0.000000
vt -1.014639 0.449468
vn 0.554122 -0.832429 -0.003304
v 0.028721 -0.062150 -0.111397
vt -0.921971 0.352191
vn 0.539861 -0.840794 -0.040200
v 0.123356 0.007114 -0.236198
vt -1.004611 0.243204
vn 0.524718 -0.847141 -0.083801
v 0.039429 -0.007089 0.412903
vt -0.931321 0.810042
vn 0.680489 -0.663086 0.311852
v 0.078674 0.035862 0.394165
vt -0.965592 0.793678
vn 0.760823 -0.534805 0.367604
v 0.033707 0.070991 0.478363
vt -0.926326 0.867205
vn 0.719548 -0.414438 0.557218
v 0.028721 -0.030185 -0.404488
vt -0.921971 0.096246
vn 0.537066 -0.835411 -0.116829
v 0.106144 0.024866 -0.406448
vt -0.989581 0.094531
vn 0.571258 -0.808387 -0.142037
v 0.033707 0.070991 0.478363
vt 0.356837 0.851852
vn 0.956904 -0.110367 0.268615
v 0.021683 0.049937 0.513351
vt 0.337247 0.882091
vn 0.957735 -0.113225 0.264429
v 0.021683 0.152989 0.538155
vt 0.428572 0.904939
vn 0.948199 -0.084287 0.306292
v 0.033707 0.151177 0.504013
vt 0.427566 0.873996
vn 0.948199 -0.084287 0.306292
v 0.039429 -0.007089 0.412903
vt 0.287947 0.794091
vn 0.942164 -0.311137 0.124582
v 0.021683 -0.039271 0.467834
vt 0.261648 0.843120
vn 0.957776 -0.219705 0.185460
v 0.028721 -0.064406 0.175194
vt 0.237426 0.584894
vn 0.912110 -0.405991 0.056807
v 0.011730 0.151177 0.498764
vt 0.447442 0.874937
vn 0.096970 0.992090 -0.079707
v 0.033707 0.151177 0.504013
vt 0.427566 0.873996
vn 0.170844 0.979675 -0.105116
v 0.021683 0.152989 0.538155
vt 0.428572 0.904939
vn 0.001404 0.998926 -0.046315
v -0.021683 0.152989 0.538155
vt 0.465328 0.916607
vn -0.001404 0.998926 -0.046315
v -0.011730 0.151177 0.498764
vt 0.467170 0.881177
vn -0.096989 0.992089 -0.079709
v -0.033707 0.151177 0.504013
vt 0.484001 0.891801
vn -0.170872 0.979670 -0.105118
v 0.021683 -0.039271 0.467834
vt 0.261648 0.843120
vn -0.000000 -0.956728 0.290983
v -0.021683 -0.039271 0.467834
vt 0.226209 0.865157
vn -0.000000 -0.956728 0.290983
v -0.021683 0.049937 0.513351
vt 0.323570 0.917415
vn -0.000000 -0.343502 0.939152
v 0.021683 0.049937 0.513351
vt 0.337247 0.882091
vn -0.000000 -0.343502 0.939152
v -0.021683 0.152989 0.538155
vt 0.418971 0.941497
vn -0.000000 -0.234007 0.972235
v 0.021683 0.152989 0.538155
vt 0.428572 0.904939
vn -0.000000 -0.234007 0.972235
v -0.028721 -0.064406 0.175194
vt 0.187145 0.591377
vn -0.000000 -0.999350 0.036055
v 0.028721 -0.064406 0.175194
vt 0.237426 0.584894
vn -0.000000 -0.999350 0.036055
v 0.103012 0.047875 0.233635
vt -0.559708 0.628662
vn -0.860894 0.483286 -0.159048
v 0.138523 0.107760 0.231339
vt -0.587468 0.626869
vn -0.861745 0.483976 -0.152197
v 0.092697 0.126835 0.392311
vt -0.551644 0.752707
vn -0.785563 0.457482 -0.416655
v 0.067211 0.074605 0.385872
vt -0.531721 0.747672
vn -0.793668 0.459203 -0.399029
v 0.122524 0.045535 0.000000
vt -0.574961 0.446021
vn -0.873503 0.486647 -0.012955
v 0.155533 0.106683 0.000000
vt -0.600765 0.446021
vn -0.873551 0.486582 -0.012103
v 0.011730 0.151177 0.498764
vt -0.488350 0.835927
vn -0.665755 0.423444 -0.614382
v 0.011730 0.105857 0.465599
vt -0.488350 0.809998
vn -0.665755 0.423444 -0.614382
v 0.146584 0.111109 -0.231339
vt -0.593770 0.265172
vn -0.884264 0.459476 0.083415
v 0.111073 0.047875 -0.233635
vt -0.566010 0.263379
vn -0.884603 0.458529 0.085022
v 0.123734 0.126074 -0.386810
vt -0.575907 0.143637
vn -0.894623 0.423559 0.142293
v 0.098248 0.059084 -0.380371
vt -0.555984 0.148673
vn -0.894623 0.423559 0.142293
v 0.067211 0.074605 0.385872
vt -0.531721 0.747672
vn -0.000000 0.980348 -0.197277
v -0.067211 0.074605 0.385872
vt -0.426640 0.747672
vn -0.000000 0.980348 -0.197277
v -0.103012 0.047875 0.233635
vt -0.398650 0.628662
vn -0.000000 0.998364 -0.057171
v 0.103012 0.047875 0.233635
vt -0.559708 0.628662
vn -0.000000 0.998364 -0.057171
v -0.122524 0.045535 0.000000
vt -0.383397 0.446021
vn -0.000000 1.000000 0.000290
v 0.122524 0.045535 0.000000
vt -0.574961 0.446021
vn -0.000000 1.000000 0.000290
v -0.011730 0.105857 0.465599
vt -0.470011 0.809998
vn -0.000000 0.931029 -0.364944
v 0.011730 0.105857 0.465599
vt -0.488350 0.809998
vn -0.000000 0.931029 -0.364944
v 0.111073 0.047875 -0.233635
vt -0.566010 0.263379
vn -0.000000 0.999469 0.032578
v -0.111073 0.047875 -0.233635
vt -0.392351 0.263379
vn -0.000000 0.999469 0.032578
v 0.098248 0.059084 -0.380371
vt -0.555984 0.148673
vn -0.000000 0.997095 0.076170
v -0.098248 0.059084 -0.380371
vt -0.402377 0.148673
vn -0.000000 0.997095 0.076170
v 0.011730 0.151177 0.498764
vt -0.488350 0.835927
vn 0.096970 0.992090 -0.079707
v 0.092697 0.126835 0.392311
vt -0.551644 0.752707
vn 0.290994 0.955301 -0.052180
v 0.105949 0.121643 0.401787
vt -0.562005 0.760115
vn 0.278974 0.958454 -0.059487
v 0.033707 0.151177 0.504013
vt -0.505531 0.840029
vn 0.170844 0.979675 -0.105116
v 0.138523 0.107760 0.231339
vt -0.587468 0.626869
vn 0.364077 0.931315 0.009993
v 0.154263 0.101663 0.234009
vt -0.599774 0.628955
vn 0.364044 0.931323 0.010491
v 0.155533 0.106683 0.000000
vt -0.600765 0.446021
vn 0.364259 0.931206 0.013038
v 0.171421 0.100382 0.000000
vt -0.613185 0.446021
vn 0.364276 0.931202 0.012884
v 0.162323 0.105012 -0.234009
vt -0.606073 0.263087
vn 0.356045 0.934252 0.020130
v 0.146584 0.111109 -0.231339
vt -0.593770 0.265172
vn 0.356673 0.934035 0.019030
v 0.133419 0.124239 -0.414070
vt -0.583478 0.122325
vn 0.342473 0.938945 0.033080
v 0.123734 0.126074 -0.386810
vt -0.575907 0.143637
vn 0.342761 0.938647 0.038174
v 0.074783 0.145055 -0.395157
vt -0.537642 0.137111
vn 0.106234 0.994306 0.008337
v 0.074417 0.145055 -0.422417
vt -0.537356 0.115799
vn 0.090840 0.995840 0.007129
v -0.074417 0.145055 -0.422417
vt -0.421005 0.115799
vn -0.090832 0.995841 0.007129
v -0.074783 0.145055 -0.395157
vt -0.420719 0.137111
vn -0.106225 0.994307 0.008337
v -0.133419 0.124239 -0.414070
vt -0.374881 0.122325
vn -0.342452 0.938953 0.033080
v -0.123734 0.126074 -0.386810
vt -0.382451 0.143637
vn -0.342743 0.938653 0.038175
v -0.146584 0.111109 -0.231339
vt -0.364591 0.265172
vn -0.356668 0.934037 0.019029
v -0.162323 0.105012 -0.234009
vt -0.352285 0.263087
vn -0.356039 0.934254 0.020128
v -0.155533 0.106683 0.000000
vt -0.357593 0.446021
vn -0.364260 0.931206 0.013038
v -0.171421 0.100382 0.000000
vt -0.345173 0.446021
vn -0.364276 0.931202 0.012884
v -0.154263 0.101663 0.234009
vt -0.358587 0.628955
vn -0.364040 0.931324 0.010491
v -0.138523 0.107760 0.231339
vt -0.370890 0.626869
vn -0.364072 0.931317 0.009993
v -0.105949 0.121643 0.401787
vt -0.396356 0.760115
vn -0.278983 0.958452 -0.059488
v -0.092697 0.126835 0.392311
vt -0.406714 0.752707
vn -0.291000 0.955299 -0.052181
v -0.011730 0.151177 0.498764
vt -0.470011 0.835927
vn -0.096989 0.992089 -0.079709
v -0.033707 0.151177 0.504013
vt -0.452830 0.840029
vn -0.170872 0.979670 -0.105118
v 0.028721 -0.030185 -0.404488
vt -0.921971 0.096246
vn -0.000000 -0.994105 -0.108417
v -0.028721 -0.030185 -0.404488
vt -0.871810 0.096246
vn -0.000000 -0.994105 -0.108417
v -0.028721 -0.062150 -0.111397
vt -0.871810 0.352191
vn -0.000000 -0.998262 -0.058931
v 0.028721 -0.062150 -0.111397
vt -0.921971 0.352191
vn -0.000000 -0.998262 -0.058931
v -0.028721 -0.064406 0.175194
vt -0.871810 0.602460
vn -0.000000 -0.999350 0.036055
v 0.028721 -0.064406 0.175194
vt -0.921971 0.602460
vn -0.000000 -0.999350 0.036055
v 0.106144 0.024866 -0.406448
vt 0.315396 0.071225
vn 0.074324 -0.111996 -0.990925
v 0.133419 0.124239 -0.414070
vt 0.404563 0.064386
vn 0.074324 -0.111996 -0.990925
v 0.074417 0.145055 -0.422417
vt 0.405016 0.009127
vn 0.026195 -0.105443 -0.994080
v 0.028721 -0.030185 -0.404488
vt 0.245866 0.023385
vn 0.011682 -0.103419 -0.994569
v -0.028721 -0.030185 -0.404488
vt 0.228752 -0.024320
vn -0.011691 -0.103419 -0.994569
v -0.074417 0.145055 -0.422417
vt 0.360674 -0.114480
vn -0.026214 -0.105442 -0.994080
v -0.106144 0.024866 -0.406448
vt 0.251407 -0.105021
vn -0.074378 -0.111994 -0.990921
v -0.133419 0.124239 -0.414070
vt 0.325808 -0.157276
vn -0.074378 -0.111994 -0.990921
v 0.011730 0.151177 0.498764
vt -0.488350 0.835927
vn -0.000000 0.590502 -0.807036
v -0.011730 0.151177 0.498764
vt -0.470011 0.835927
vn -0.000000 0.590502 -0.807036
v -0.011730 0.105857 0.465599
vt -0.470011 0.809998
vn -0.000000 0.590502 -0.807036
v 0.011730 0.105857 0.465599
vt -0.488350 0.809998
vn -0.000000 0.590502 -0.807036
v 0.098248 0.059084 -0.380371
vt -0.555984 0.148673
vn -0.006575 0.167758 0.985806
v 0.074783 0.145055 -0.395157
vt -0.537642 0.137111
vn -0.006854 0.167684 0.985817
v 0.123734 0.126074 -0.386810
vt -0.575907 0.143637
vn -0.114444 0.138006 0.983797
v -0.098248 0.059084 -0.380371
vt -0.402377 0.148673
vn 0.006575 0.167758 0.985806
v -0.074783 0.145055 -0.395157
vt -0.420719 0.137111
vn 0.006854 0.167684 0.985817
v -0.123734 0.126074 -0.386810
vt -0.382451 0.143637
vn 0.114444 0.138014 0.983796
v -0.115295 0.007114 0.236198
vt 0.721086 0.767031
vn -0.920147 -0.357358 0.160078
v -0.154263 0.101663 0.234009
vt 0.652949 0.718867
vn -0.920344 -0.357566 0.158475
v -0.105949 0.121643 0.401787
vt 0.555699 0.831861
vn -0.862303 -0.304778 0.404406
v -0.078674 0.035862 0.394165
vt 0.622252 0.868524
vn -0.872413 -0.313643 0.374864
v -0.134838 0.004524 0.000000
vt 0.839303 0.595388
vn -0.930752 -0.365369 0.014388
v -0.171421 0.100382 0.000000
vt 0.769126 0.548182
vn -0.930774 -0.365341 0.013656
v -0.033707 0.151177 0.504013
vt 0.484001 0.891801
vn -0.780749 -0.243654 0.575382
v -0.033707 0.070991 0.478363
vt 0.555068 0.912864
vn -0.780749 -0.243654 0.575382
v -0.162323 0.105012 -0.234009
vt 0.880974 0.374584
vn -0.934245 -0.344044 -0.093909
v -0.123356 0.007114 -0.236198
vt 0.953721 0.421189
vn -0.934236 -0.344126 -0.093703
v -0.133419 0.124239 -0.414070
vt 0.955568 0.233291
vn -0.934959 -0.318281 -0.156679
v -0.106144 0.024866 -0.406448
vt 1.024567 0.287808
vn -0.934959 -0.318281 -0.156679
v -0.028721 -0.064406 0.175194
vt -0.871810 0.602460
vn -0.577564 -0.813234 0.071204
v -0.134838 0.004524 0.000000
vt -0.779141 0.449468
vn -0.554114 -0.832434 -0.003304
v -0.115295 0.007114 0.236198
vt -0.796206 0.655731
vn -0.587128 -0.798932 0.130341
v -0.028721 -0.062150 -0.111397
vt -0.871810 0.352191
vn -0.539854 -0.840798 -0.040199
v -0.123356 0.007114 -0.236198
vt -0.789166 0.243204
vn -0.524709 -0.847147 -0.083799
v -0.039429 -0.007089 0.412903
vt -0.862460 0.810042
vn -0.680475 -0.663103 0.311847
v -0.078674 0.035862 0.394165
vt -0.828186 0.793678
vn -0.760808 -0.534829 0.367598
v -0.033707 0.070991 0.478363
vt -0.867455 0.867205
vn -0.719548 -0.414438 0.557218
v -0.028721 -0.030185 -0.404488
vt -0.871810 0.096246
vn -0.537055 -0.835418 -0.116828
v -0.106144 0.024866 -0.406448
vt -0.804199 0.094531
vn -0.571249 -0.808394 -0.142038
v -0.033707 0.070991 0.478363
vt 0.555068 0.912864
vn -0.956903 -0.110374 0.268615
v -0.033707 0.151177 0.504013
vt 0.484001 0.891801
vn -0.948195 -0.084336 0.306290
v -0.021683 0.152989 0.538155
vt 0.465328 0.916607
vn -0.948195 -0.084336 0.306290
v -0.021683 0.049937 0.513351
vt 0.553253 0.948846
vn -0.957735 -0.113227 0.264430
v -0.039429 -0.007089 0.412903
vt 0.644468 0.903386
vn -0.942166 -0.311129 0.124583
v -0.021683 -0.039271 0.467834
vt 0.640979 0.959455
vn -0.957779 -0.219690 0.185460
v -0.028721 -0.064406 0.175194
vt 0.803490 0.757586
vn -0.912110 -0.405991 0.056807
v -0.103012 0.047875 0.233635
vt -0.398650 0.628662
vn 0.860898 0.483280 -0.159047
v -0.067211 0.074605 0.385872
vt -0.426640 0.747672
vn 0.793697 0.459167 -0.399012
v -0.092697 0.126835 0.392311
vt -0.406714 0.752707
vn 0.785593 0.457447 -0.416637
v -0.138523 0.107760 0.231339
vt -0.370890 0.626869
vn 0.861747 0.483972 -0.152196
v -0.122524 0.045535 0.000000
vt -0.383397 0.446021
vn 0.873493 0.486664 -0.012955
v -0.155533 0.106683 0.000000
vt -0.357593 0.446021
vn 0.873542 0.486599 -0.012103
v -0.011730 0.151177 0.498764
vt -0.470011 0.835927
vn 0.665782 0.423419 -0.614371
v -0.011730 0.105857 0.465599
vt -0.470011 0.809998
vn 0.665782 0.423419 -0.614371
v -0.146584 0.111109 -0.231339
vt -0.364591 0.265172
vn 0.884264 0.459477 0.083415
v -0.111073 0.047875 -0.233635
vt -0.392351 0.263379
vn 0.884603 0.458529 0.085023
v -0.123734 0.126074 -0.386810
vt -0.382451 0.143637
vn 0.894634 0.423537 0.142292
v -0.098248 0.059084 -0.380371
vt -0.402377 0.148673
vn 0.894634 0.423537 0.142292
# Faces (1 to 160)
g Ship_Small_Body_0
f -158/-158/-158 -159/-159/-159 -160/-160/-160
f -157/-157/-157 -158/-158/-158 -160/-160/-160
f -160/-160/-160 -156/-156/-156 -157/-157/-157
f -156/-156/-156 -155/-155/-155 -157/-157/-157
f -158/-158/-158 -154/-154/-154 -159/-159/-159
f -154/-154/-154 -153/-153/-153 -159/-159/-159
f -155/-155/-155 -156/-156/-156 -152/-152/-152
f -156/-156/-156 -151/-151/-151 -152/-152/-152
f -150/-150/-150 -152/-152/-152 -151/-151/-151
f -149/-149/-149 -150/-150/-150 -151/-151/-151
f -146/-146/-146 -147/-147/-147 -148/-148/-148
f -145/-145/-145 -146/-146/-146 -148/-148/-148
f -144/-144/-144 -146/-146/-146 -145/-145/-145
f -147/-147/-147 -143/-143/-143 -148/-148/-148
f -147/-147/-147 -142/-142/-142 -143/-143/-143
f -142/-142/-142 -141/-141/-141 -143/-143/-143
f -144/-144/-144 -145/-145/-145 -140/-140/-140
f -140/-140/-140 -139/-139/-139 -144/-144/-144
f -136/-136/-136 -137/-137/-137 -138/-138/-138
f -135/-135/-135 -136/-136/-136 -138/-138/-138
f -138/-138/-138 -137/-137/-137 -134/-134/-134
f -137/-137/-137 -133/-133/-133 -134/-134/-134
f -134/-134/-134 -133/-133/-133 -132/-132/-132
f -129/-129/-129 -130/-130/-130 -131/-131/-131
f -129/-129/-129 -131/-131/-131 -128/-128/-128
f -131/-131/-131 -127/-127/-127 -128/-128/-128
f -127/-127/-127 -126/-126/-126 -128/-128/-128
f -123/-123/-123 -124/-124/-124 -125/-125/-125
f -122/-122/-122 -123/-123/-123 -125/-125/-125
f -123/-123/-123 -122/-122/-122 -121/-121/-121
f -122/-122/-122 -120/-120/-120 -121/-121/-121
f -124/-124/-124 -119/-119/-119 -125/-125/-125
f -119/-119/-119 -118/-118/-118 -125/-125/-125
f -115/-115/-115 -116/-116/-116 -117/-117/-117
f -114/-114/-114 -115/-115/-115 -117/-117/-117
f -113/-113/-113 -117/-117/-117 -116/-116/-116
f -112/-112/-112 -113/-113/-113 -116/-116/-116
f -111/-111/-111 -115/-115/-115 -114/-114/-114
f -110/-110/-110 -111/-111/-111 -114/-114/-114
f -113/-113/-113 -112/-112/-112 -109/-109/-109
f -108/-108/-108 -113/-113/-113 -109/-109/-109
f -109/-109/-109 -107/-107/-107 -108/-108/-108
f -107/-107/-107 -106/-106/-106 -108/-108/-108
f -103/-103/-103 -104/-104/-104 -105/-105/-105
f -102/-102/-102 -103/-103/-103 -105/-105/-105
f -101/-101/-101 -103/-103/-103 -102/-102/-102
f -100/-100/-100 -101/-101/-101 -102/-102/-102
f -105/-105/-105 -104/-104/-104 -99/-99/-99
f -98/-98/-98 -105/-105/-105 -99/-99/-99
f -101/-101/-101 -100/-100/-100 -97/-97/-97
f -96/-96/-96 -101/-101/-101 -97/-97/-97
f -96/-96/-96 -97/-97/-97 -95/-95/-95
f -94/-94/-94 -96/-96/-96 -95/-95/-95
f -91/-91/-91 -92/-92/-92 -93/-93/-93
f -90/-90/-90 -91/-91/-91 -93/-93/-93
f -92/-92/-92 -91/-91/-91 -89/-89/-89
f -91/-91/-91 -88/-88/-88 -89/-89/-89
f -89/-89/-89 -88/-88/-88 -87/-87/-87
f -88/-88/-88 -86/-86/-86 -87/-87/-87
f -86/-86/-86 -85/-85/-85 -87/-87/-87
f -85/-85/-85 -84/-84/-84 -87/-87/-87
f -85/-85/-85 -83/-83/-83 -84/-84/-84
f -83/-83/-83 -82/-82/-82 -84/-84/-84
f -81/-81/-81 -82/-82/-82 -83/-83/-83
f -80/-80/-80 -81/-81/-81 -83/-83/-83
f -80/-80/-80 -79/-79/-79 -81/-81/-81
f -79/-79/-79 -78/-78/-78 -81/-81/-81
f -78/-78/-78 -79/-79/-79 -77/-77/-77
f -76/-76/-76 -78/-78/-78 -77/-77/-77
f -76/-76/-76 -77/-77/-77 -75/-75/-75
f -77/-77/-77 -74/-74/-74 -75/-75/-75
f -75/-75/-75 -74/-74/-74 -73/-73/-73
f -74/-74/-74 -72/-72/-72 -73/-73/-73
f -72/-72/-72 -71/-71/-71 -73/-73/-73
f -71/-71/-71 -70/-70/-70 -73/-73/-73
f -71/-71/-71 -69/-69/-69 -70/-70/-70
f -69/-69/-69 -68/-68/-68 -70/-70/-70
f -68/-68/-68 -69/-69/-69 -67/-67/-67
f -69/-69/-69 -66/-66/-66 -67/-67/-67
f -63/-63/-63 -64/-64/-64 -65/-65/-65
f -62/-62/-62 -63/-63/-63 -65/-65/-65
f -61/-61/-61 -63/-63/-63 -62/-62/-62
f -60/-60/-60 -61/-61/-61 -62/-62/-62
f -57/-57/-57 -58/-58/-58 -59/-59/-59
f -56/-56/-56 -57/-57/-57 -59/-59/-59
f -56/-56/-56 -55/-55/-55 -57/-57/-57
f -55/-55/-55 -54/-54/-54 -57/-57/-57
f -54/-54/-54 -55/-55/-55 -53/-53/-53
f -52/-52/-52 -54/-54/-54 -53/-53/-53
f -49/-49/-49 -50/-50/-50 -51/-51/-51
f -48/-48/-48 -49/-49/-49 -51/-51/-51
f -45/-45/-45 -46/-46/-46 -47/-47/-47
f -44/-44/-44 -47/-47/-47 -46/-46/-46
f -43/-43/-43 -44/-44/-44 -46/-46/-46
f -43/-43/-43 -42/-42/-42 -44/-44/-44
f -39/-39/-39 -40/-40/-40 -41/-41/-41
f -38/-38/-38 -39/-39/-39 -41/-41/-41
f -37/-37/-37 -41/-41/-41 -40/-40/-40
f -36/-36/-36 -37/-37/-37 -40/-40/-40
f -35/-35/-35 -39/-39/-39 -38/-38/-38
f -34/-34/-34 -35/-35/-35 -38/-38/-38
f -37/-37/-37 -36/-36/-36 -33/-33/-33
f -32/-32/-32 -37/-37/-37 -33/-33/-33
f -33/-33/-33 -31/-31/-31 -32/-32/-32
f -31/-31/-31 -30/-30/-30 -32/-32/-32
f -27/-27/-27 -28/-28/-28 -29/-29/-29
f -28/-28/-28 -26/-26/-26 -29/-29/-29
f -28/-28/-28 -25/-25/-25 -26/-26/-26
f -24/-24/-24 -27/-27/-27 -29/-29/-29
f -23/-23/-23 -27/-27/-27 -24/-24/-24
f -22/-22/-22 -23/-23/-23 -24/-24/-24
f -26/-26/-26 -25/-25/-25 -21/-21/-21
f -20/-20/-20 -21/-21/-21 -25/-25/-25
f -17/-17/-17 -18/-18/-18 -19/-19/-19
f -16/-16/-16 -17/-17/-17 -19/-19/-19
f -16/-16/-16 -19/-19/-19 -15/-15/-15
f -14/-14/-14 -16/-16/-16 -15/-15/-15
f -14/-14/-14 -15/-15/-15 -13/-13/-13
f -10/-10/-10 -11/-11/-11 -12/-12/-12
f -9/-9/-9 -10/-10/-10 -12/-12/-12
f -12/-12/-12 -8/-8/-8 -9/-9/-9
f -8/-8/-8 -7/-7/-7 -9/-9/-9
f -10/-10/-10 -6/-6/-6 -11/-11/-11
f -6/-6/-6 -5/-5/-5 -11/-11/-11
f -7/-7/-7 -8/-8/-8 -4/-4/-4
f -8/-8/-8 -3/-3/-3 -4/-4/-4
f -2/-2/-2 -4/-4/-4 -3/-3/-3
f -1/-1/-1 -2/-2/-2 -3/-3/-3

