# Mesh "Ship_Small_Navigation" exported with Unity Assets Bundle Extractor; 6 vertices, 12 indices, 320 bits per vertex
g Ship_Small_Navigation
# SubMesh 0
# Vertices
v 0.021240 0.126858 0.339905
vn -0.000000 0.998994 -0.044850
v -0.021240 0.126858 0.339905
vn -0.000000 0.998994 -0.044850
v -0.058407 0.112444 0.018852
vn -0.000000 0.999989 -0.004697
v 0.058407 0.112444 0.018852
vn -0.000000 0.999989 -0.004697
v -0.043247 0.120537 -0.312927
vn -0.000000 0.999703 0.024385
v 0.043247 0.120537 -0.312927
vn -0.000000 0.999703 0.024385
# Faces (1 to 6)
g Ship_Small_Navigation_0
f -4//-4 -5//-5 -6//-6
f -3//-3 -4//-4 -6//-6
f -2//-2 -4//-4 -3//-3
f -1//-1 -2//-2 -3//-3

