# Mesh "Weapons_Shield_2" exported with Unity Assets Bundle Extractor; 29 vertices, 96 indices, 384 bits per vertex
g Weapons_Shield_2
# SubMesh 0
# Vertices
v -0.065213 0.066202 0.035442
vt 0.198504 0.609198
vn -0.647145 0.297287 0.702014
v -0.000000 0.066202 0.043681
vt 0.198504 0.614742
vn -0.000000 0.419304 0.907846
v -0.000000 -0.011784 0.043681
vt 0.252042 0.633002
vn -0.000000 -0.002688 0.999996
v 0.065213 0.066202 0.035442
vt 0.198504 0.620286
vn 0.647144 0.297288 0.702015
v -0.000000 0.066202 0.024106
vt 0.184360 0.614742
vn -0.000000 0.157233 -0.987561
v -0.065213 0.066202 0.015866
vt 0.184360 0.609198
vn -0.147064 0.126743 -0.980973
v 0.065213 0.066202 0.015866
vt 0.184360 0.620286
vn 0.147077 0.126742 -0.980971
v 0.060962 -0.056948 0.035442
vt 0.198504 0.632323
vn 0.645967 -0.244091 0.723288
v 0.060962 -0.056948 0.015866
vt 0.184360 0.632323
vn 0.124211 -0.098195 -0.987385
v -0.000000 -0.089769 0.024106
vt 0.184360 0.639752
vn -0.000000 -0.206184 -0.978513
v -0.000000 -0.089769 0.043681
vt 0.198504 0.639752
vn -0.000000 -0.559298 0.828967
v -0.060962 -0.056948 0.015866
vt 0.184360 0.647181
vn -0.124198 -0.098195 -0.987387
v -0.060962 -0.056948 0.035442
vt 0.198504 0.647181
vn -0.645968 -0.244092 0.723287
v -0.065213 0.066202 0.035442
vt 0.198504 0.653525
vn -0.647145 0.297287 0.702014
v -0.065213 0.066202 0.015866
vt 0.184360 0.653525
vn -0.147064 0.126743 -0.980973
v -0.065213 0.066202 0.015866
vt 0.072323 0.922211
vn -0.147064 0.126743 -0.980973
v -0.060962 -0.056948 0.015866
vt 0.072891 0.890726
vn -0.124198 -0.098195 -0.987387
v -0.000000 -0.089769 0.024106
vt 0.081047 0.882335
vn -0.000000 -0.206184 -0.978513
v -0.000000 0.066202 0.024106
vt 0.081047 0.922211
vn -0.000000 0.157233 -0.987561
v 0.060962 -0.056948 0.015866
vt 0.089202 0.890726
vn 0.124211 -0.098195 -0.987385
v 0.065213 0.066202 0.015866
vt 0.089771 0.922211
vn 0.147077 0.126742 -0.980971
v -0.041924 0.022683 0.026280
vt 0.142360 0.988650
vn -0.488287 0.860590 -0.144775
v -0.028646 0.015500 -0.061201
vt 0.142360 0.988650
vn -0.431421 0.830718 -0.351828
v 0.028647 0.015500 -0.061201
vt 0.157688 0.988650
vn 0.431422 0.830718 -0.351827
v 0.041923 0.022683 0.026280
vt 0.157688 0.988650
vn 0.488286 0.860591 -0.144773
v 0.028647 -0.015500 -0.061201
vt 0.157688 0.972786
vn 0.431422 -0.830718 -0.351827
v -0.028646 -0.015500 -0.061201
vt 0.142360 0.972786
vn -0.431421 -0.830718 -0.351828
v 0.041923 -0.022683 0.026280
vt 0.157688 0.972786
vn 0.488286 -0.860591 -0.144773
v -0.041924 -0.022683 0.026280
vt 0.142360 0.972786
vn -0.488287 -0.860590 -0.144775
# Faces (1 to 29)
g Weapons_Shield_2_0
f -27/-27/-27 -28/-28/-28 -29/-29/-29
f -26/-26/-26 -28/-28/-28 -27/-27/-27
f -28/-28/-28 -25/-25/-25 -29/-29/-29
f -25/-25/-25 -24/-24/-24 -29/-29/-29
f -23/-23/-23 -25/-25/-25 -28/-28/-28
f -26/-26/-26 -23/-23/-23 -28/-28/-28
f -23/-23/-23 -26/-26/-26 -22/-22/-22
f -22/-22/-22 -26/-26/-26 -27/-27/-27
f -21/-21/-21 -23/-23/-23 -22/-22/-22
f -21/-21/-21 -22/-22/-22 -20/-20/-20
f -22/-22/-22 -19/-19/-19 -20/-20/-20
f -22/-22/-22 -27/-27/-27 -19/-19/-19
f -20/-20/-20 -19/-19/-19 -18/-18/-18
f -19/-19/-19 -17/-17/-17 -18/-18/-18
f -19/-19/-19 -27/-27/-27 -17/-17/-17
f -17/-17/-17 -16/-16/-16 -18/-18/-18
f -27/-27/-27 -16/-16/-16 -17/-17/-17
f -16/-16/-16 -15/-15/-15 -18/-18/-18
f -12/-12/-12 -13/-13/-13 -14/-14/-14
f -11/-11/-11 -12/-12/-12 -14/-14/-14
f -10/-10/-10 -12/-12/-12 -11/-11/-11
f -9/-9/-9 -10/-10/-10 -11/-11/-11
f -6/-6/-6 -7/-7/-7 -8/-8/-8
f -5/-5/-5 -6/-6/-6 -8/-8/-8
f -6/-6/-6 -4/-4/-4 -7/-7/-7
f -4/-4/-4 -3/-3/-3 -7/-7/-7
f -8/-8/-8 -7/-7/-7 -3/-3/-3
f -4/-4/-4 -2/-2/-2 -3/-3/-3
f -6/-6/-6 -5/-5/-5 -2/-2/-2
f -4/-4/-4 -6/-6/-6 -2/-2/-2
f -2/-2/-2 -1/-1/-1 -3/-3/-3
f -1/-1/-1 -8/-8/-8 -3/-3/-3

