# Mesh "Weapons_ThrowingAxe" exported with Unity Assets Bundle Extractor; 28 vertices, 78 indices, 384 bits per vertex
g Weapons_ThrowingAxe
# SubMesh 0
# Vertices
v 0.007799 0.083453 -0.035556
vt 0.528808 0.649164
vn 0.742844 0.107886 -0.660715
v 0.007799 0.006847 -0.034821
vt 0.528355 0.563718
vn 0.906402 0.048380 -0.419637
v 0.000000 0.086415 -0.010967
vt 0.517940 0.649164
vn -0.000000 0.105632 0.994405
v 0.000000 -0.089220 -0.016533
vt 0.521368 0.488767
vn -0.000000 -0.176126 0.984368
v 0.011193 -0.086651 -0.047481
vt 0.536154 0.492488
vn 0.747043 -0.028043 -0.664185
v -0.007800 0.083453 -0.035556
vt 0.528808 0.649164
vn -0.742849 0.107885 -0.660709
v -0.007800 0.006847 -0.034821
vt 0.528355 0.563718
vn -0.906406 0.048378 -0.419629
v -0.011193 -0.086651 -0.047481
vt 0.536154 0.492488
vn -0.747042 -0.028048 -0.664185
v -0.007800 0.083453 -0.035556
vt 0.528808 0.649164
vn -0.742849 0.107885 -0.660709
v 0.000000 0.086415 -0.010967
vt 0.517940 0.649164
vn -0.000000 0.105632 0.994405
v -0.007800 0.006847 -0.034821
vt 0.528355 0.563718
vn -0.906406 0.048378 -0.419629
v 0.000000 -0.089220 -0.016533
vt 0.521368 0.488767
vn -0.000000 -0.176126 0.984368
v -0.011193 -0.086651 -0.047481
vt 0.536154 0.492488
vn -0.747042 -0.028048 -0.664185
v -0.014024 0.077873 -0.047437
vt 0.578557 0.642489
vn -0.913906 0.397245 -0.083505
v 0.014024 0.077873 -0.047437
vt 0.578557 0.642489
vn 0.913904 0.397248 -0.083508
v 0.000000 0.079161 0.052095
vt 0.625088 0.638973
vn -0.000000 0.310434 0.950595
v -0.014024 0.055213 -0.047437
vt 0.577504 0.637030
vn -0.946229 -0.294644 -0.133549
v 0.014024 0.055213 -0.047437
vt 0.577504 0.637030
vn 0.946231 -0.294638 -0.133550
v -0.004559 0.036835 0.006541
vt 0.609127 0.626934
vn -0.960781 -0.276661 0.018973
v 0.004559 0.036835 0.006541
vt 0.609127 0.626934
vn 0.960782 -0.276656 0.018971
v 0.000000 -0.005400 0.020335
vt 0.621698 0.601419
vn -0.000000 -0.708110 0.706102
v -0.000000 0.033943 0.047322
vt 0.624067 0.618603
vn -0.000041 -0.300749 0.953703
v -0.014024 0.077873 -0.047437
vt 0.578557 0.642489
vn -0.913906 0.397245 -0.083505
v 0.000000 0.079161 0.052095
vt 0.625088 0.638973
vn -0.000000 0.310434 0.950595
v -0.004559 0.036835 0.006541
vt 0.609127 0.626934
vn -0.960781 -0.276661 0.018973
v -0.014024 0.055213 -0.047437
vt 0.577504 0.637030
vn -0.946229 -0.294644 -0.133549
v -0.000000 0.033943 0.047322
vt 0.624067 0.618603
vn -0.000041 -0.300749 0.953703
v 0.000000 -0.005400 0.020335
vt 0.621698 0.601419
vn -0.000000 -0.708110 0.706102
# Faces (1 to 28)
g Weapons_ThrowingAxe_0
f -26/-26/-26 -27/-27/-27 -28/-28/-28
f -26/-26/-26 -25/-25/-25 -27/-27/-27
f -25/-25/-25 -24/-24/-24 -27/-27/-27
f -26/-26/-26 -28/-28/-28 -23/-23/-23
f -28/-28/-28 -27/-27/-27 -22/-22/-22
f -23/-23/-23 -28/-28/-28 -22/-22/-22
f -21/-21/-21 -24/-24/-24 -25/-25/-25
f -27/-27/-27 -24/-24/-24 -21/-21/-21
f -22/-22/-22 -27/-27/-27 -21/-21/-21
f -18/-18/-18 -19/-19/-19 -20/-20/-20
f -17/-17/-17 -19/-19/-19 -18/-18/-18
f -16/-16/-16 -17/-17/-17 -18/-18/-18
f -13/-13/-13 -14/-14/-14 -15/-15/-15
f -15/-15/-15 -14/-14/-14 -12/-12/-12
f -14/-14/-14 -11/-11/-11 -12/-12/-12
f -12/-12/-12 -11/-11/-11 -10/-10/-10
f -11/-11/-11 -9/-9/-9 -10/-10/-10
f -9/-9/-9 -11/-11/-11 -14/-14/-14
f -13/-13/-13 -9/-9/-9 -14/-14/-14
f -10/-10/-10 -9/-9/-9 -8/-8/-8
f -7/-7/-7 -8/-8/-8 -9/-9/-9
f -13/-13/-13 -7/-7/-7 -9/-9/-9
f -4/-4/-4 -5/-5/-5 -6/-6/-6
f -3/-3/-3 -4/-4/-4 -6/-6/-6
f -4/-4/-4 -2/-2/-2 -5/-5/-5
f -4/-4/-4 -1/-1/-1 -2/-2/-2

