# Mesh "Weapons_TankArcher_Bow" exported with Unity Assets Bundle Extractor; 47 vertices, 192 indices, 384 bits per vertex
g Weapons_TankArcher_Bow
# SubMesh 0
# Vertices
v 0.021615 -0.021615 0.071945
vt 0.678864 0.631680
vn 0.639345 -0.639350 0.427164
v -0.021615 -0.021615 0.071945
vt 0.678864 0.634551
vn -0.639346 -0.639350 0.427163
v -0.021615 0.021615 0.071945
vt 0.681736 0.634551
vn -0.639346 0.639350 0.427164
v 0.021615 0.021615 0.071945
vt 0.681736 0.631680
vn 0.639345 0.639350 0.427165
v -0.019265 0.019265 -0.016451
vt 0.681736 0.637422
vn -0.641964 0.641968 -0.419236
v -0.019265 -0.019265 -0.016451
vt 0.678864 0.637422
vn -0.641964 -0.641968 -0.419237
v 0.019265 0.019265 -0.016451
vt 0.681736 0.640293
vn 0.641965 0.641968 -0.419235
v 0.019265 -0.019265 -0.016451
vt 0.678864 0.640293
vn 0.641965 -0.641968 -0.419236
v 0.021615 0.021615 0.071945
vt 0.681736 0.643165
vn 0.639345 0.639350 0.427165
v 0.021615 -0.021615 0.071945
vt 0.678864 0.643165
vn 0.639345 -0.639350 0.427164
v -0.019265 0.019265 -0.016451
vt 0.684607 0.634551
vn -0.641964 0.641968 -0.419236
v 0.019265 0.019265 -0.016451
vt 0.684607 0.631680
vn 0.641965 0.641968 -0.419235
v 0.019265 -0.019265 -0.016451
vt 0.675993 0.631680
vn 0.641965 -0.641968 -0.419236
v -0.019265 -0.019265 -0.016451
vt 0.675993 0.634551
vn -0.641964 -0.641968 -0.419237
v -0.044137 0.017632 0.054395
vt 0.491945 0.849649
vn -0.354671 0.635461 0.685856
v -0.039391 0.017632 0.023646
vt 0.494857 0.854772
vn 0.250475 0.803171 -0.540536
v -0.000000 0.013039 0.023646
vt 0.494857 0.833622
vn -0.000000 0.780901 -0.624655
v -0.000000 0.013039 0.054395
vt 0.491945 0.833622
vn -0.000000 0.744663 0.667440
v -0.202058 0.019450 -0.043896
vt 0.491945 0.947506
vn -0.265498 0.826373 0.496607
v -0.201809 0.019450 -0.068759
vt 0.494857 0.952700
vn 0.311392 0.579213 -0.753358
v -0.243560 0.012951 -0.053152
vt 0.488063 0.974353
vn -0.595378 0.615836 -0.516015
v -0.234213 0.012951 -0.033706
vt 0.490489 0.973172
vn -0.164440 0.703713 0.691193
v -0.044137 -0.017632 0.054395
vt 0.489033 0.849573
vn -0.354671 -0.635461 0.685856
v -0.000000 -0.013039 0.054395
vt 0.489033 0.833622
vn -0.000000 -0.744663 0.667440
v -0.000000 -0.013039 0.023646
vt 0.486122 0.833622
vn -0.000000 -0.780901 -0.624655
v -0.039391 -0.017632 0.023646
vt 0.486122 0.854506
vn 0.250475 -0.803171 -0.540536
v -0.202058 -0.019450 -0.043896
vt 0.489033 0.947421
vn -0.265498 -0.826373 0.496607
v -0.201809 -0.019450 -0.068759
vt 0.486122 0.952211
vn 0.311392 -0.579213 -0.753358
v -0.243560 -0.012951 -0.053152
vt 0.486121 0.973087
vn -0.595378 -0.615836 -0.516015
v -0.234213 -0.012951 -0.033706
vt 0.489033 0.970668
vn -0.164440 -0.703713 0.691193
v -0.039391 0.017632 0.023646
vt 0.483210 0.854400
vn 0.250475 0.803171 -0.540536
v -0.000000 0.013039 0.023646
vt 0.483210 0.833622
vn -0.000000 0.780901 -0.624655
v -0.201809 0.019450 -0.068759
vt 0.483210 0.952044
vn 0.311392 0.579213 -0.753358
v 0.044137 -0.017632 0.054395
vt 0.489033 0.817671
vn 0.354671 -0.635463 0.685854
v 0.039391 -0.017632 0.023646
vt 0.486122 0.812738
vn -0.250474 -0.803173 -0.540534
v 0.202058 -0.019450 -0.043896
vt 0.489033 0.719824
vn 0.265498 -0.826374 0.496605
v 0.201809 -0.019450 -0.068759
vt 0.486122 0.715033
vn -0.311391 -0.579215 -0.753357
v 0.243560 -0.012951 -0.053152
vt 0.486121 0.694157
vn 0.595379 -0.615834 -0.516016
v 0.234213 -0.012951 -0.033706
vt 0.489033 0.696577
vn 0.164441 -0.703711 0.691195
v 0.044137 0.017632 0.054395
vt 0.491945 0.817595
vn 0.354671 0.635463 0.685854
v 0.039391 0.017632 0.023646
vt 0.494857 0.812473
vn -0.250474 0.803172 -0.540534
v 0.202058 0.019450 -0.043896
vt 0.491945 0.719738
vn 0.265498 0.826374 0.496605
v 0.201809 0.019450 -0.068759
vt 0.494857 0.714545
vn -0.311391 0.579215 -0.753357
v 0.243560 0.012951 -0.053152
vt 0.488063 0.692891
vn 0.595378 0.615835 -0.516016
v 0.234213 0.012951 -0.033706
vt 0.490489 0.694072
vn 0.164440 0.703712 0.691194
v 0.201809 0.019450 -0.068759
vt 0.483210 0.715201
vn -0.311391 0.579215 -0.753357
v 0.039391 0.017632 0.023646
vt 0.483210 0.812845
vn -0.250474 0.803172 -0.540534
# Faces (1 to 47)
g Weapons_TankArcher_Bow_0
f -45/-45/-45 -46/-46/-46 -47/-47/-47
f -44/-44/-44 -45/-45/-45 -47/-47/-47
f -45/-45/-45 -43/-43/-43 -46/-46/-46
f -43/-43/-43 -42/-42/-42 -46/-46/-46
f -43/-43/-43 -41/-41/-41 -42/-42/-42
f -41/-41/-41 -40/-40/-40 -42/-42/-42
f -41/-41/-41 -39/-39/-39 -40/-40/-40
f -39/-39/-39 -38/-38/-38 -40/-40/-40
f -37/-37/-37 -45/-45/-45 -44/-44/-44
f -36/-36/-36 -37/-37/-37 -44/-44/-44
f -47/-47/-47 -46/-46/-46 -35/-35/-35
f -46/-46/-46 -34/-34/-34 -35/-35/-35
f -31/-31/-31 -32/-32/-32 -33/-33/-33
f -30/-30/-30 -31/-31/-31 -33/-33/-33
f -33/-33/-33 -32/-32/-32 -29/-29/-29
f -32/-32/-32 -28/-28/-28 -29/-29/-29
f -28/-28/-28 -27/-27/-27 -29/-29/-29
f -27/-27/-27 -26/-26/-26 -29/-29/-29
f -30/-30/-30 -33/-33/-33 -25/-25/-25
f -24/-24/-24 -30/-30/-30 -25/-25/-25
f -23/-23/-23 -24/-24/-24 -25/-25/-25
f -22/-22/-22 -23/-23/-23 -25/-25/-25
f -22/-22/-22 -25/-25/-25 -21/-21/-21
f -33/-33/-33 -29/-29/-29 -21/-21/-21
f -25/-25/-25 -33/-33/-33 -21/-21/-21
f -20/-20/-20 -22/-22/-22 -21/-21/-21
f -19/-19/-19 -20/-20/-20 -21/-21/-21
f -19/-19/-19 -27/-27/-27 -20/-20/-20
f -26/-26/-26 -27/-27/-27 -19/-19/-19
f -18/-18/-18 -19/-19/-19 -21/-21/-21
f -18/-18/-18 -26/-26/-26 -19/-19/-19
f -29/-29/-29 -26/-26/-26 -18/-18/-18
f -21/-21/-21 -29/-29/-29 -18/-18/-18
f -22/-22/-22 -17/-17/-17 -23/-23/-23
f -17/-17/-17 -16/-16/-16 -23/-23/-23
f -15/-15/-15 -17/-17/-17 -22/-22/-22
f -20/-20/-20 -15/-15/-15 -22/-22/-22
f -27/-27/-27 -15/-15/-15 -20/-20/-20
f -24/-24/-24 -23/-23/-23 -14/-14/-14
f -23/-23/-23 -13/-13/-13 -14/-14/-14
f -14/-14/-14 -13/-13/-13 -12/-12/-12
f -13/-13/-13 -11/-11/-11 -12/-12/-12
f -11/-11/-11 -10/-10/-10 -12/-12/-12
f -10/-10/-10 -9/-9/-9 -12/-12/-12
f -30/-30/-30 -24/-24/-24 -14/-14/-14
f -8/-8/-8 -30/-30/-30 -14/-14/-14
f -8/-8/-8 -14/-14/-14 -12/-12/-12
f -31/-31/-31 -30/-30/-30 -8/-8/-8
f -7/-7/-7 -31/-31/-31 -8/-8/-8
f -7/-7/-7 -8/-8/-8 -6/-6/-6
f -6/-6/-6 -8/-8/-8 -12/-12/-12
f -6/-6/-6 -12/-12/-12 -9/-9/-9
f -5/-5/-5 -7/-7/-7 -6/-6/-6
f -4/-4/-4 -5/-5/-5 -6/-6/-6
f -4/-4/-4 -10/-10/-10 -11/-11/-11
f -3/-3/-3 -4/-4/-4 -6/-6/-6
f -3/-3/-3 -9/-9/-9 -10/-10/-10
f -4/-4/-4 -3/-3/-3 -10/-10/-10
f -3/-3/-3 -6/-6/-6 -9/-9/-9
f -2/-2/-2 -11/-11/-11 -13/-13/-13
f -2/-2/-2 -4/-4/-4 -11/-11/-11
f -1/-1/-1 -2/-2/-2 -13/-13/-13
f -1/-1/-1 -13/-13/-13 -23/-23/-23
f -16/-16/-16 -1/-1/-1 -23/-23/-23

