# Mesh "Weapons_Shield_3" exported with Unity Assets Bundle Extractor; 42 vertices, 138 indices, 384 bits per vertex
g Weapons_Shield_3
# SubMesh 0
# Vertices
v -0.033113 0.040185 0.032206
vt 0.427579 0.648805
vn -0.198521 0.000000 0.980097
v -0.033113 0.102632 0.032207
vt 0.478979 0.649586
vn -0.122321 0.392195 0.911713
v 0.033113 0.102632 0.032206
vt 0.478979 0.649586
vn 0.122312 0.392205 0.911710
v 0.033113 0.040186 0.032207
vt 0.427579 0.648805
vn 0.198509 0.000000 0.980099
v -0.092023 0.092890 0.011281
vt 0.478979 0.640061
vn -0.725368 0.179858 0.664449
v 0.030244 0.102632 0.009466
vt 0.489578 0.649586
vn -0.139082 0.114696 -0.983616
v -0.030244 0.102632 0.009466
vt 0.489578 0.649586
vn 0.139076 0.114697 -0.983617
v -0.084162 0.092890 -0.009272
vt 0.489578 0.640061
vn 0.183334 0.059269 -0.981262
v -0.084162 -0.134284 -0.009272
vt 0.489578 0.614000
vn 0.161461 -0.074281 -0.984080
v -0.092023 -0.134284 0.011281
vt 0.478979 0.614000
vn -0.722490 -0.235053 0.650198
v -0.030244 -0.142155 0.009466
vt 0.489578 0.604680
vn 0.142761 -0.113608 -0.983215
v -0.033113 -0.142155 0.032207
vt 0.478979 0.604680
vn -0.117565 -0.365247 0.923457
v -0.033113 -0.074795 0.032206
vt 0.427579 0.605287
vn -0.198309 0.000000 0.980140
v 0.033113 -0.074795 0.032207
vt 0.427579 0.605287
vn 0.198294 0.000000 0.980143
v 0.033113 -0.074795 0.032207
vt 0.427579 0.605287
vn 0.198294 0.000000 0.980143
v 0.033113 -0.142156 0.032206
vt 0.478979 0.604680
vn 0.117546 -0.365259 0.923455
v 0.092023 -0.134284 0.011281
vt 0.478979 0.614000
vn 0.722489 -0.235053 0.650200
v 0.030244 -0.142156 0.009466
vt 0.489578 0.604680
vn -0.142768 -0.113608 -0.983214
v 0.084162 -0.134284 -0.009272
vt 0.489578 0.614000
vn -0.161471 -0.074281 -0.984078
v 0.084162 0.092890 -0.009272
vt 0.489578 0.640061
vn -0.183345 0.059269 -0.981260
v 0.092023 0.092890 0.011281
vt 0.478979 0.640061
vn 0.725372 0.179858 0.664445
v 0.033113 0.040186 0.032207
vt 0.427579 0.648805
vn 0.198509 0.000000 0.980099
v 0.033113 0.102632 0.032206
vt 0.478979 0.649586
vn 0.122312 0.392205 0.911710
v 0.030244 0.102632 0.009466
vt 0.489578 0.649586
vn -0.139082 0.114696 -0.983616
v -0.033113 -0.142155 0.032207
vt 0.478979 0.604680
vn -0.117565 -0.365247 0.923457
v -0.030244 -0.142155 0.009466
vt 0.489578 0.604680
vn 0.142761 -0.113608 -0.983215
v 0.030244 0.102632 0.009466
vt 0.080719 0.912961
vn -0.139082 0.114696 -0.983616
v -0.030244 0.102632 0.009466
vt 0.084089 0.912961
vn 0.139076 0.114697 -0.983617
v -0.030244 -0.142155 0.009466
vt 0.084089 0.896109
vn 0.142761 -0.113608 -0.983215
v 0.030244 -0.142156 0.009466
vt 0.080719 0.896109
vn -0.142768 -0.113608 -0.983214
v -0.084162 -0.134284 -0.009272
vt 0.090830 0.896109
vn 0.161461 -0.074281 -0.984080
v -0.084162 0.092890 -0.009272
vt 0.090830 0.912961
vn 0.183334 0.059269 -0.981262
v 0.084162 -0.134284 -0.009272
vt 0.073978 0.896109
vn -0.161471 -0.074281 -0.984078
v 0.084162 0.092890 -0.009272
vt 0.073978 0.912961
vn -0.183345 0.059269 -0.981260
v -0.041924 0.022683 0.022701
vt 0.142360 0.988650
vn -0.488287 0.860590 -0.144775
v -0.028646 0.015500 -0.061201
vt 0.142360 0.988650
vn -0.431421 0.830718 -0.351828
v 0.028647 0.015500 -0.061201
vt 0.157688 0.988650
vn 0.431422 0.830718 -0.351827
v 0.041923 0.022683 0.022701
vt 0.157688 0.988650
vn 0.488286 0.860591 -0.144773
v 0.028647 -0.015500 -0.061201
vt 0.157688 0.972786
vn 0.431422 -0.830718 -0.351827
v -0.028646 -0.015500 -0.061201
vt 0.142360 0.972786
vn -0.431421 -0.830718 -0.351828
v 0.041923 -0.022683 0.022701
vt 0.157688 0.972786
vn 0.488286 -0.860591 -0.144773
v -0.041924 -0.022683 0.022701
vt 0.142360 0.972786
vn -0.488287 -0.860590 -0.144775
# Faces (1 to 42)
g Weapons_Shield_3_0
f -40/-40/-40 -41/-41/-41 -42/-42/-42
f -39/-39/-39 -40/-40/-40 -42/-42/-42
f -41/-41/-41 -38/-38/-38 -42/-42/-42
f -40/-40/-40 -37/-37/-37 -41/-41/-41
f -37/-37/-37 -36/-36/-36 -41/-41/-41
f -35/-35/-35 -38/-38/-38 -41/-41/-41
f -36/-36/-36 -35/-35/-35 -41/-41/-41
f -35/-35/-35 -34/-34/-34 -38/-38/-38
f -34/-34/-34 -33/-33/-33 -38/-38/-38
f -33/-33/-33 -34/-34/-34 -32/-32/-32
f -31/-31/-31 -33/-33/-33 -32/-32/-32
f -30/-30/-30 -33/-33/-33 -31/-31/-31
f -38/-38/-38 -33/-33/-33 -30/-30/-30
f -42/-42/-42 -38/-38/-38 -30/-30/-30
f -42/-42/-42 -30/-30/-30 -29/-29/-29
f -39/-39/-39 -42/-42/-42 -29/-29/-29
f -30/-30/-30 -31/-31/-31 -28/-28/-28
f -31/-31/-31 -27/-27/-27 -28/-28/-28
f -28/-28/-28 -27/-27/-27 -26/-26/-26
f -27/-27/-27 -25/-25/-25 -26/-26/-26
f -25/-25/-25 -24/-24/-24 -26/-26/-26
f -26/-26/-26 -24/-24/-24 -23/-23/-23
f -22/-22/-22 -26/-26/-26 -23/-23/-23
f -28/-28/-28 -26/-26/-26 -22/-22/-22
f -21/-21/-21 -28/-28/-28 -22/-22/-22
f -20/-20/-20 -21/-21/-21 -22/-22/-22
f -20/-20/-20 -22/-22/-22 -23/-23/-23
f -19/-19/-19 -20/-20/-20 -23/-23/-23
f -27/-27/-27 -18/-18/-18 -25/-25/-25
f -18/-18/-18 -17/-17/-17 -25/-25/-25
f -14/-14/-14 -15/-15/-15 -16/-16/-16
f -13/-13/-13 -14/-14/-14 -16/-16/-16
f -14/-14/-14 -12/-12/-12 -15/-15/-15
f -12/-12/-12 -11/-11/-11 -15/-15/-15
f -13/-13/-13 -16/-16/-16 -10/-10/-10
f -16/-16/-16 -9/-9/-9 -10/-10/-10
f -6/-6/-6 -7/-7/-7 -8/-8/-8
f -5/-5/-5 -6/-6/-6 -8/-8/-8
f -6/-6/-6 -4/-4/-4 -7/-7/-7
f -4/-4/-4 -3/-3/-3 -7/-7/-7
f -8/-8/-8 -7/-7/-7 -3/-3/-3
f -4/-4/-4 -2/-2/-2 -3/-3/-3
f -6/-6/-6 -5/-5/-5 -2/-2/-2
f -4/-4/-4 -6/-6/-6 -2/-2/-2
f -2/-2/-2 -1/-1/-1 -3/-3/-3
f -1/-1/-1 -8/-8/-8 -3/-3/-3

